<svg width="147" height="28" viewBox="0 0 147 28" fill="none" xmlns="http://www.w3.org/2000/svg">
<path fill-rule="evenodd" clip-rule="evenodd" d="M16.5 4.66667L8.25 0L0 4.66667V14V23.3333L8.25 28V18.6667L16.5 14L8.25 9.33333L16.5 4.66667Z" fill="black"/>
<path d="M37.2578 11.3516H33.3047V14.1016H36.9375V16.1484H33.3047V20.5H30.7812V9.29688H37.2578V11.3516ZM41.1759 20.5H38.7072V8.65625H41.1759V20.5ZM50.6956 20.5H48.2347V19.2812H48.1956C47.5863 20.224 46.7711 20.6953 45.7503 20.6953C43.8961 20.6953 42.9691 19.5729 42.9691 17.3281V12.5H45.43V17.1094C45.43 18.2396 45.8779 18.8047 46.7738 18.8047C47.2165 18.8047 47.5706 18.651 47.8363 18.3438C48.1019 18.0312 48.2347 17.6094 48.2347 17.0781V12.5H50.6956V20.5ZM59.8091 17.2031H54.5903C54.6736 18.3646 55.4054 18.9453 56.7856 18.9453C57.6658 18.9453 58.4393 18.737 59.1059 18.3203V20.1016C58.3664 20.4974 57.4054 20.6953 56.2231 20.6953C54.9315 20.6953 53.9289 20.3385 53.2153 19.625C52.5018 18.9062 52.145 17.9062 52.145 16.625C52.145 15.2969 52.5304 14.2448 53.3013 13.4688C54.0721 12.6927 55.02 12.3047 56.145 12.3047C57.3117 12.3047 58.2127 12.651 58.8481 13.3438C59.4888 14.0365 59.8091 14.9766 59.8091 16.1641V17.2031ZM57.52 15.6875C57.52 14.5417 57.0565 13.9688 56.1294 13.9688C55.7335 13.9688 55.3898 14.1328 55.0981 14.4609C54.8117 14.7891 54.6372 15.1979 54.5747 15.6875H57.52ZM68.8444 20.5H66.3834V16.0547C66.3834 14.8151 65.9407 14.1953 65.0553 14.1953C64.6282 14.1953 64.2767 14.3594 64.0006 14.6875C63.7246 15.0156 63.5866 15.4323 63.5866 15.9375V20.5H61.1178V12.5H63.5866V13.7656H63.6178C64.2064 12.7917 65.0631 12.3047 66.1881 12.3047C67.959 12.3047 68.8444 13.4036 68.8444 15.6016V20.5ZM75.4813 20.4062C75.1167 20.599 74.5672 20.6953 73.8328 20.6953C72.0932 20.6953 71.2234 19.7917 71.2234 17.9844V14.3203H69.9266V12.5H71.2234V10.7734L73.6844 10.0703V12.5H75.4813V14.3203H73.6844V17.5547C73.6844 18.388 74.0151 18.8047 74.6766 18.8047C74.937 18.8047 75.2052 18.7292 75.4813 18.5781V20.4062ZM85.3331 17.0938H81.0597V15.3672H85.3331V17.0938ZM99.8256 20.1016C99.0079 20.4974 97.9402 20.6953 96.6225 20.6953C94.9038 20.6953 93.5522 20.1901 92.5678 19.1797C91.5834 18.1693 91.0913 16.8229 91.0913 15.1406C91.0913 13.349 91.6433 11.8958 92.7475 10.7812C93.8569 9.66667 95.2944 9.10938 97.06 9.10938C98.1538 9.10938 99.0756 9.2474 99.8256 9.52344V11.9531C99.0756 11.5052 98.2215 11.2812 97.2631 11.2812C96.211 11.2812 95.3621 11.612 94.7163 12.2734C94.0704 12.9349 93.7475 13.8307 93.7475 14.9609C93.7475 16.0443 94.0522 16.9089 94.6616 17.5547C95.2709 18.1953 96.0913 18.5156 97.1225 18.5156C98.1069 18.5156 99.0079 18.276 99.8256 17.7969V20.1016ZM105.189 20.6953C103.856 20.6953 102.806 20.3229 102.041 19.5781C101.28 18.8281 100.9 17.8125 100.9 16.5312C100.9 15.2083 101.296 14.1745 102.088 13.4297C102.879 12.6797 103.949 12.3047 105.298 12.3047C106.627 12.3047 107.668 12.6797 108.423 13.4297C109.179 14.1745 109.556 15.1615 109.556 16.3906C109.556 17.7188 109.166 18.7682 108.384 19.5391C107.608 20.3099 106.543 20.6953 105.189 20.6953ZM105.252 14.1953C104.668 14.1953 104.215 14.3958 103.892 14.7969C103.569 15.1979 103.408 15.7656 103.408 16.5C103.408 18.0365 104.028 18.8047 105.267 18.8047C106.449 18.8047 107.041 18.0156 107.041 16.4375C107.041 14.9427 106.444 14.1953 105.252 14.1953ZM118.724 20.5H116.263V16.0547C116.263 14.8151 115.821 14.1953 114.935 14.1953C114.508 14.1953 114.157 14.3594 113.881 14.6875C113.605 15.0156 113.467 15.4323 113.467 15.9375V20.5H110.998V12.5H113.467V13.7656H113.498C114.086 12.7917 114.943 12.3047 116.068 12.3047C117.839 12.3047 118.724 13.4036 118.724 15.6016V20.5ZM125.361 20.4062C124.997 20.599 124.447 20.6953 123.713 20.6953C121.973 20.6953 121.103 19.7917 121.103 17.9844V14.3203H119.807V12.5H121.103V10.7734L123.564 10.0703V12.5H125.361V14.3203H123.564V17.5547C123.564 18.388 123.895 18.8047 124.557 18.8047C124.817 18.8047 125.085 18.7292 125.361 18.5781V20.4062ZM131.818 14.7266C131.522 14.5651 131.175 14.4844 130.779 14.4844C130.243 14.4844 129.824 14.6823 129.522 15.0781C129.219 15.4688 129.068 16.0026 129.068 16.6797V20.5H126.6V12.5H129.068V13.9844H129.1C129.49 12.901 130.193 12.3594 131.209 12.3594C131.469 12.3594 131.673 12.3906 131.818 12.4531V14.7266ZM134.127 11.2344C133.711 11.2344 133.369 11.112 133.104 10.8672C132.838 10.6172 132.705 10.3125 132.705 9.95312C132.705 9.58333 132.838 9.28125 133.104 9.04688C133.369 8.8125 133.711 8.69531 134.127 8.69531C134.549 8.69531 134.89 8.8125 135.151 9.04688C135.416 9.28125 135.549 9.58333 135.549 9.95312C135.549 10.3281 135.416 10.6354 135.151 10.875C134.89 11.1146 134.549 11.2344 134.127 11.2344ZM135.346 20.5H132.877V12.5H135.346V20.5ZM139.764 19.5703H139.733V20.5H137.264V8.65625H139.733V13.7031H139.764C140.373 12.7708 141.241 12.3047 142.366 12.3047C143.397 12.3047 144.191 12.6589 144.748 13.3672C145.306 14.0755 145.584 15.0443 145.584 16.2734C145.584 17.6068 145.259 18.6771 144.608 19.4844C143.957 20.2917 143.087 20.6953 141.998 20.6953C141.014 20.6953 140.269 20.3203 139.764 19.5703ZM139.694 16.1953V17.0156C139.694 17.5312 139.842 17.9583 140.139 18.2969C140.436 18.6354 140.816 18.8047 141.28 18.8047C141.842 18.8047 142.277 18.5885 142.584 18.1562C142.897 17.7188 143.053 17.1016 143.053 16.3047C143.053 15.6432 142.91 15.1276 142.623 14.7578C142.342 14.3828 141.939 14.1953 141.412 14.1953C140.918 14.1953 140.506 14.3802 140.178 14.75C139.855 15.1198 139.694 15.6016 139.694 16.1953Z" fill="black"/>
</svg>
