<svg width="21" height="20" viewBox="0 0 21 20" fill="none" xmlns="http://www.w3.org/2000/svg">
  <path
    d="M8.45846 18.1689C9.93625 18.1689 11.1356 17.0061 11.1356 15.5734V12.9778H8.45846C6.98068 12.9778 5.7813 14.1407 5.7813 15.5734C5.7813 17.0061 6.98068 18.1689 8.45846 18.1689Z"
    fill="#0ACF83" />
  <path
    d="M5.7813 10.3824C5.7813 8.94962 6.98068 7.7868 8.45846 7.7868H11.1356V12.9778H8.45846C6.98068 12.9779 5.7813 11.8151 5.7813 10.3824Z"
    fill="#A259FF" />
  <path
    d="M5.7813 5.19119C5.7813 3.75846 6.98068 2.59564 8.45846 2.59564H11.1356V7.78668H8.45846C6.98068 7.78668 5.7813 6.62392 5.7813 5.19119Z"
    fill="#F24E1E" />
  <path
    d="M11.1356 2.59583H13.8128C15.2906 2.59583 16.4899 3.75864 16.4899 5.19137C16.4899 6.62411 15.2906 7.78686 13.8128 7.78686H11.1356V2.59583Z"
    fill="#FF7262" />
  <path
    d="M16.4899 10.3824C16.4899 11.8151 15.2906 12.9779 13.8128 12.9779C12.335 12.9779 11.1356 11.8151 11.1356 10.3824C11.1356 8.94962 12.335 7.7868 13.8128 7.7868C15.2906 7.7868 16.4899 8.94962 16.4899 10.3824Z"
    fill="#1ABCFE" />
</svg>
