<svg width="32" height="33" viewBox="0 0 32 33" fill="none" xmlns="http://www.w3.org/2000/svg">
<path d="M13 22.0312C13 21.479 12.5523 21.0312 12 21.0312C11.4477 21.0312 11 21.479 11 22.0312V25.0312C11 25.5835 11.4477 26.0312 12 26.0312C12.5523 26.0312 13 25.5835 13 25.0312V22.0312ZM16 15.0312C16.5523 15.0312 17 15.479 17 16.0312V25.0312C17 25.5835 16.5523 26.0312 16 26.0312C15.4477 26.0312 15 25.5835 15 25.0312V16.0312C15 15.479 15.4477 15.0312 16 15.0312ZM21 19.0312C21 18.479 20.5523 18.0312 20 18.0312C19.4477 18.0312 19 18.479 19 19.0312V25.0312C19 25.5835 19.4477 26.0312 20 26.0312C20.5523 26.0312 21 25.5835 21 25.0312V19.0312ZM5 5.03125C5 3.3744 6.34315 2.03125 8 2.03125H18.1716C18.9672 2.03125 19.7303 2.34732 20.2929 2.90993L26.1213 8.73836C26.6839 9.30097 27 10.064 27 10.8597V27.0312C27 28.6881 25.6569 30.0312 24 30.0312H8C6.34315 30.0312 5 28.6881 5 27.0312V5.03125ZM8 4.03125C7.44772 4.03125 7 4.47897 7 5.03125V27.0312C7 27.5835 7.44772 28.0312 8 28.0312H24C24.5523 28.0312 25 27.5835 25 27.0312V12.0312H20C18.3431 12.0312 17 10.6881 17 9.03125V4.03125H8ZM20 10.0312H24.5858L19 4.44546V9.03125C19 9.58353 19.4477 10.0312 20 10.0312Z" fill="black"/>
</svg>
