<svg width="507" height="120" viewBox="0 0 507 120" fill="none" xmlns="http://www.w3.org/2000/svg">
<path d="M50.3149 13.6952L26.881 27.23C25.5624 27.9915 24.75 29.4002 24.75 30.9249V89.9724C24.75 91.4971 25.5624 92.9058 26.881 93.6673L49.2494 106.587C50.6686 107.406 52.4416 106.38 52.4416 104.739V76.4426L76.9345 62.2961C78.3552 61.4756 78.3552 59.4217 76.9345 58.6012L52.4416 44.4547L76.9345 30.3082C78.3552 29.4877 78.3552 27.4339 76.9345 26.6133L54.5683 13.6952C53.252 12.9349 51.6311 12.9349 50.3149 13.6952Z" fill="#1F1F1F"/>
<path d="M158.371 39.3438H134.652V55.5156H156.449V67.9844H134.652V94H119.512V26.7812H158.371V39.3438ZM166.13 94V22.9375H180.942V94H166.13ZM237.123 94H222.311V87.8594H222.123C220.623 90.0469 218.514 91.8125 215.795 93.1562C213.107 94.4688 210.404 95.125 207.686 95.125C202.123 95.125 197.904 93.4375 195.029 90.0625C192.186 86.6875 190.764 81.9219 190.764 75.7656V45.9531H205.529V73.5156C205.529 76.5781 206.186 79.0312 207.498 80.875C208.811 82.6875 210.764 83.5938 213.357 83.5938C215.951 83.5938 218.092 82.625 219.779 80.6875C221.467 78.75 222.311 76.2969 222.311 73.3281V45.9531H237.123V94ZM290.866 74.2188H259.554C259.772 77.3125 260.835 79.7656 262.741 81.5781C264.679 83.3906 267.21 84.2969 270.335 84.2969C272.241 84.2969 273.976 83.8281 275.538 82.8906C277.132 81.9531 278.554 80.5469 279.804 78.6719L290.679 84.8594C287.929 88.4219 284.851 91.0312 281.444 92.6875C278.038 94.3125 274.257 95.125 270.101 95.125C262.163 95.125 255.976 92.9844 251.538 88.7031C247.101 84.4219 244.882 78.4375 244.882 70.75C244.882 62.7812 247.194 56.4844 251.819 51.8594C256.444 47.2031 262.132 44.875 268.882 44.875C275.882 44.875 281.288 46.9531 285.101 51.1094C288.944 55.2656 290.866 61.5 290.866 69.8125V74.2188ZM277.132 64.8438C277.132 61.5938 276.429 59.1562 275.022 57.5312C273.647 55.875 271.788 55.0469 269.444 55.0469C266.632 55.0469 264.351 55.9844 262.601 57.8594C260.882 59.7031 259.835 62.0312 259.46 64.8438H277.132ZM345.359 94H330.594V66.4844C330.594 63.4219 329.938 60.9844 328.625 59.1719C327.344 57.3281 325.391 56.4062 322.766 56.4062C320.172 56.4062 318.031 57.375 316.344 59.3125C314.656 61.25 313.812 63.7031 313.812 66.6719V94H299V46H313.812V52.1406H314C315.562 49.9531 317.734 48.2031 320.516 46.8906C323.297 45.5469 326.094 44.875 328.906 44.875C334.312 44.875 338.406 46.5625 341.188 49.9375C343.969 53.3125 345.359 58.0781 345.359 64.2344V94ZM387.384 91.5156C385.915 92.5781 384.102 93.4375 381.946 94.0938C379.79 94.7812 377.446 95.125 374.915 95.125C369.415 95.125 365.337 93.8594 362.681 91.3281C360.024 88.7969 358.696 85.0156 358.696 79.9844V56.9219H350.915V46H358.696V33.7656L373.462 31.1406V46H384.993V56.9219H373.462V77.8281C373.462 79.8281 373.852 81.3125 374.634 82.2812C375.446 83.25 376.618 83.7344 378.149 83.7344C378.868 83.7344 379.587 83.625 380.306 83.4062C381.024 83.1562 381.993 82.6719 383.212 81.9531L387.384 91.5156ZM471.62 66.4844C471.62 75.0469 469.229 81.9688 464.448 87.25C459.667 92.5 452.651 95.125 443.401 95.125C434.432 95.125 427.62 92.5469 422.964 87.3906C418.339 82.2031 416.026 75.4219 416.026 67.0469V26.7812H431.214V66.4844C431.214 71.5156 432.386 75.3438 434.729 77.9688C437.073 80.5625 440.151 81.8594 443.964 81.8594C447.682 81.8594 450.698 80.6094 453.011 78.1094C455.323 75.5781 456.479 71.8906 456.479 67.0469V26.7812H471.62V66.4844ZM499.535 94H484.394V26.7812H499.535V94Z" fill="#1F1F1F"/>
</svg>
