<svg id="Layer_1" data-name="Layer 1" xmlns="http://www.w3.org/2000/svg" width="284" height="388" viewBox="0 0 284 388">
  <defs>
    <style>
      .cls-1 {
        fill: #fff;
      }

      .cls-2 {
        fill: #eaeaea;
      }

      .cls-3 {
        fill: #3c3c3c;
      }

      .cls-4 {
        fill: #212121;
      }

      .cls-5 {
        fill: #f4f4f4;
      }

      .cls-6 {
        fill: #767676;
      }

      .cls-7 {
        fill: #c8c8c8;
      }

      .cls-8 {
        fill: #ff6767;
      }

      .cls-9 {
        fill: #d8b094;
      }

      .cls-10 {
        fill: #00bcf2;
      }

      .cls-11 {
        fill: #666;
      }

      .cls-12 {
        fill: #a6a6a6;
      }

      .cls-13 {
        fill: #5c5c5c;
      }

      .cls-14 {
        fill: #cc76ca;
      }
    </style>
  </defs>
  <title>components-header</title>
  <path class="cls-1" d="M277.38,2717.43v-57.15H379.11l8.53-11.15H277.38V2592h154l8.53-11.15H277.38v-57.15h189.7v21.57l11.15-14.58v-86.44h-212v308.72h42l27.15-35.5h-58Zm0-262.06h189.7v57.15H277.38v-57.15Z" transform="translate(-194.22 -2412.22)"/>
  <polygon class="cls-2" points="284 118.44 272.85 133.02 272.85 168.61 245.64 168.61 237.11 179.76 272.85 179.76 272.85 236.91 193.41 236.91 184.89 248.06 272.85 248.06 272.85 305.21 141.19 305.21 114.04 340.72 284 340.72 284 118.44"/>
  <rect class="cls-3" x="72" y="6" width="212" height="26"/>
  <rect class="cls-4" x="72" width="212" height="6"/>
  <g>
    <path class="cls-5" d="M314.36,2489a8.67,8.67,0,0,0-4.33-3.29,6.19,6.19,0,0,0,1.39-1,6.66,6.66,0,0,0,1.06-1.34,6.51,6.51,0,0,0,.67-1.57,6.45,6.45,0,0,0-.27-4.23,6.43,6.43,0,0,0-3.42-3.42,6.51,6.51,0,0,0-5,0,6.43,6.43,0,0,0-3.42,3.42,6.47,6.47,0,0,0-.27,4.23,6.54,6.54,0,0,0,.67,1.58,6.34,6.34,0,0,0,2.47,2.37,9.15,9.15,0,0,0-2.46,1.34,8.83,8.83,0,0,0-1.87,2,8.92,8.92,0,0,0-1.2,2.43,9,9,0,0,0-.42,2.77h1.29a7.81,7.81,0,0,1,1-3.92,7.53,7.53,0,0,1,2.75-2.75,7.81,7.81,0,0,1,3.92-1,7.88,7.88,0,0,1,3.06.59,7.4,7.4,0,0,1,4.07,4.07,7.88,7.88,0,0,1,.59,3.06H316a9.28,9.28,0,0,0-.41-2.76,8.94,8.94,0,0,0-1.18-2.44m-5.41-4.21a5.11,5.11,0,0,1-4,0,5.21,5.21,0,0,1-2.74-2.74,5.12,5.12,0,0,1,0-4,5.21,5.21,0,0,1,2.74-2.74,5.12,5.12,0,0,1,4,0,5.21,5.21,0,0,1,2.74,2.74,5.11,5.11,0,0,1,0,4,5.21,5.21,0,0,1-2.74,2.74" transform="translate(-194.22 -2412.22)"/>
    <path class="cls-5" d="M467.07,2455.37H277.38v57.15h189.7v-57.15Zm-130.55,15.29H450.08v6H336.53v-6Zm-52.9-6a3,3,0,1,1,3-3,3,3,0,0,1-3,3m23.32,39.9a20.58,20.58,0,1,1,20.58-20.58A20.58,20.58,0,0,1,307,2504.52m102.26-3.87H336.53v-6h72.68v6Zm41.54-12H336.53v-6H450.75v6Z" transform="translate(-194.22 -2412.22)"/>
    <rect class="cls-6" x="142.3" y="58.44" width="113.55" height="6"/>
    <rect class="cls-7" x="142.3" y="70.44" width="114.22" height="6"/>
    <rect class="cls-7" x="142.3" y="82.44" width="72.68" height="6"/>
    <path class="cls-8" d="M307,2463.37a20.58,20.58,0,1,0,20.58,20.58A20.58,20.58,0,0,0,307,2463.37m7.72,30.86a7.88,7.88,0,0,0-.59-3.06,7.39,7.39,0,0,0-4.07-4.07,8.17,8.17,0,0,0-5.13-.32,7.73,7.73,0,0,0-1.85.77,7.53,7.53,0,0,0-2.75,2.75,7.73,7.73,0,0,0-.77,1.85,7.82,7.82,0,0,0-.27,2.07h-1.29a9.06,9.06,0,0,1,.42-2.77,9,9,0,0,1,1.2-2.43,8.85,8.85,0,0,1,1.87-2,9.13,9.13,0,0,1,2.46-1.33,6.35,6.35,0,0,1-1.41-1,6.43,6.43,0,0,1-1.06-1.34,6.58,6.58,0,0,1-.67-1.58,6.47,6.47,0,0,1,.27-4.23,6.44,6.44,0,0,1,3.42-3.42,6.51,6.51,0,0,1,5,0,6.44,6.44,0,0,1,3.42,3.42,6.45,6.45,0,0,1,.27,4.23,6.55,6.55,0,0,1-.67,1.57,6.7,6.7,0,0,1-1.05,1.34,6.21,6.21,0,0,1-1.39,1,8.62,8.62,0,0,1,2.47,1.32,8.72,8.72,0,0,1,1.87,2,8.94,8.94,0,0,1,1.18,2.44,9.25,9.25,0,0,1,.41,2.76h-1.29Z" transform="translate(-194.22 -2412.22)"/>
    <path class="cls-8" d="M311.69,2482.09a5.12,5.12,0,0,0,0-4,5.22,5.22,0,0,0-2.74-2.74,5.13,5.13,0,0,0-4,0,5.22,5.22,0,0,0-2.74,2.74,5.12,5.12,0,0,0,0,4,5.21,5.21,0,0,0,2.74,2.74,5.11,5.11,0,0,0,4,0,5.21,5.21,0,0,0,2.74-2.74" transform="translate(-194.22 -2412.22)"/>
    <path class="cls-7" d="M283.63,2458.63a3,3,0,1,0,3,3,3,3,0,0,0-3-3" transform="translate(-194.22 -2412.22)"/>
    <polygon class="cls-7" points="272.85 168.61 272.85 133.02 245.64 168.61 272.85 168.61"/>
    <path class="cls-5" d="M314.36,2557.34A8.69,8.69,0,0,0,310,2554a6.19,6.19,0,0,0,1.39-1,6.66,6.66,0,0,0,1.06-1.34,6.51,6.51,0,0,0,.67-1.57,6.45,6.45,0,0,0-.27-4.23,6.43,6.43,0,0,0-3.42-3.42,6.51,6.51,0,0,0-5,0,6.43,6.43,0,0,0-3.42,3.42,6.47,6.47,0,0,0-.27,4.23,6.54,6.54,0,0,0,.67,1.58,6.34,6.34,0,0,0,2.47,2.37,9.15,9.15,0,0,0-2.46,1.34,8.83,8.83,0,0,0-1.87,2,8.92,8.92,0,0,0-1.2,2.43,9,9,0,0,0-.42,2.77h1.29a7.81,7.81,0,0,1,1-3.92,7.53,7.53,0,0,1,2.75-2.75,7.81,7.81,0,0,1,3.92-1,7.88,7.88,0,0,1,3.06.59,7.4,7.4,0,0,1,4.07,4.07,7.88,7.88,0,0,1,.59,3.06H316a9.28,9.28,0,0,0-.41-2.76,8.94,8.94,0,0,0-1.18-2.44m-5.41-4.21a5.11,5.11,0,0,1-4,0,5.21,5.21,0,0,1-2.74-2.74,5.11,5.11,0,0,1,0-4,5.21,5.21,0,0,1,2.74-2.74,5.12,5.12,0,0,1,4,0,5.21,5.21,0,0,1,2.74,2.74,5.11,5.11,0,0,1,0,4,5.21,5.21,0,0,1-2.74,2.74" transform="translate(-194.22 -2412.22)"/>
    <path class="cls-5" d="M277.38,2523.67v57.15H439.86l27.21-35.58v-21.57H277.38ZM336.53,2539H450.08v6H336.53v-6Zm-52.9-6a3,3,0,1,1,3-3,3,3,0,0,1-3,3m23.32,39.9a20.58,20.58,0,1,1,20.58-20.58A20.58,20.58,0,0,1,307,2572.83M409.21,2569H336.53v-6h72.68v6Zm-72.68-18H450.75v6H336.53v-6Z" transform="translate(-194.22 -2412.22)"/>
    <rect class="cls-6" x="142.3" y="126.74" width="113.55" height="6"/>
    <rect class="cls-7" x="142.3" y="138.74" width="114.22" height="6"/>
    <rect class="cls-7" x="142.3" y="150.74" width="72.68" height="6"/>
    <path class="cls-9" d="M307,2531.67a20.58,20.58,0,1,0,20.58,20.58A20.58,20.58,0,0,0,307,2531.67m7.72,30.86a7.88,7.88,0,0,0-.59-3.06,7.39,7.39,0,0,0-4.07-4.07,8.17,8.17,0,0,0-5.13-.32,7.73,7.73,0,0,0-1.85.77,7.51,7.51,0,0,0-2.75,2.75,7.73,7.73,0,0,0-.77,1.85,7.83,7.83,0,0,0-.27,2.07h-1.29a9.05,9.05,0,0,1,.42-2.77,9,9,0,0,1,1.2-2.43,8.85,8.85,0,0,1,1.87-2,9.13,9.13,0,0,1,2.46-1.33,6.35,6.35,0,0,1-1.41-1,6.43,6.43,0,0,1-1.06-1.34,6.58,6.58,0,0,1-.67-1.58,6.47,6.47,0,0,1,.27-4.23,6.44,6.44,0,0,1,3.42-3.42,6.51,6.51,0,0,1,5,0,6.44,6.44,0,0,1,3.42,3.42,6.45,6.45,0,0,1,.27,4.23,6.55,6.55,0,0,1-.67,1.57,6.7,6.7,0,0,1-1.05,1.34,6.21,6.21,0,0,1-1.39,1,8.62,8.62,0,0,1,2.47,1.32,8.72,8.72,0,0,1,1.87,2,8.94,8.94,0,0,1,1.18,2.44,9.25,9.25,0,0,1,.41,2.76h-1.29Z" transform="translate(-194.22 -2412.22)"/>
    <path class="cls-10" d="M311.69,2550.39a5.12,5.12,0,0,0,0-4,5.22,5.22,0,0,0-2.74-2.74,5.13,5.13,0,0,0-4,0,5.22,5.22,0,0,0-2.74,2.74,5.12,5.12,0,0,0,0,4,5.21,5.21,0,0,0,2.74,2.74,5.11,5.11,0,0,0,4,0,5.21,5.21,0,0,0,2.74-2.74" transform="translate(-194.22 -2412.22)"/>
    <path class="cls-7" d="M283.63,2526.93a3,3,0,1,0,3,3,3,3,0,0,0-3-3" transform="translate(-194.22 -2412.22)"/>
    <polygon class="cls-7" points="255.85 195.05 255.85 201.05 220.84 201.05 216.25 207.05 256.53 207.05 256.53 213.05 211.66 213.05 207.07 219.05 214.98 219.05 214.98 225.05 202.49 225.05 193.41 236.91 272.85 236.91 272.85 179.76 237.11 179.76 225.42 195.05 255.85 195.05"/>
    <path class="cls-5" d="M299.51,2628.77a7.73,7.73,0,0,1,.77-1.85,7.53,7.53,0,0,1,2.75-2.75,7.73,7.73,0,0,1,1.85-.77,8.17,8.17,0,0,1,5.13.32,7.4,7.4,0,0,1,4.07,4.07,7.88,7.88,0,0,1,.59,3.06H316a9.25,9.25,0,0,0-.41-2.76,8.94,8.94,0,0,0-1.18-2.44,8.74,8.74,0,0,0-1.87-2,8.62,8.62,0,0,0-2.47-1.32,6.21,6.21,0,0,0,1.39-1,6.67,6.67,0,0,0,1.05-1.34,6.53,6.53,0,0,0,.67-1.57,6.45,6.45,0,0,0-.27-4.23,6.44,6.44,0,0,0-3.42-3.42,6.51,6.51,0,0,0-5,0,6.44,6.44,0,0,0-3.42,3.42,6.47,6.47,0,0,0-.27,4.23,6.58,6.58,0,0,0,.67,1.58,6.35,6.35,0,0,0,2.47,2.37,9.1,9.1,0,0,0-2.46,1.34,8.83,8.83,0,0,0-1.87,1.95,9,9,0,0,0-1.2,2.43,9.06,9.06,0,0,0-.42,2.77h1.29a7.82,7.82,0,0,1,.27-2.07m3.81-8.45a5.23,5.23,0,0,1-1.11-1.63,5.11,5.11,0,0,1,0-4A5.21,5.21,0,0,1,305,2612a5.11,5.11,0,0,1,4,0,5.21,5.21,0,0,1,2.74,2.74,5.11,5.11,0,0,1,0,4,5.21,5.21,0,0,1-2.74,2.74,5.11,5.11,0,0,1-4,0,5.23,5.23,0,0,1-1.63-1.11" transform="translate(-194.22 -2412.22)"/>
    <path class="cls-5" d="M277.38,2649.13H387.64l9.07-11.86H336.53v-6H401.3l4.59-6H336.53v-6h73.95l4.59-6H336.53v-6h83.12L431.34,2592h-154v57.15ZM307,2600a20.58,20.58,0,1,1-20.58,20.58A20.58,20.58,0,0,1,307,2600m-23.32-4.75a3,3,0,1,1-3,3,3,3,0,0,1,3-3" transform="translate(-194.22 -2412.22)"/>
    <polygon class="cls-6" points="142.3 195.05 142.3 201.05 220.84 201.05 225.42 195.05 142.3 195.05"/>
    <polygon class="cls-11" points="255.85 195.05 225.42 195.05 220.84 201.05 255.85 201.05 255.85 195.05"/>
    <polygon class="cls-7" points="142.3 207.05 142.3 213.05 211.66 213.05 216.25 207.05 142.3 207.05"/>
    <polygon class="cls-12" points="256.53 207.05 216.25 207.05 211.66 213.05 256.53 213.05 256.53 207.05"/>
    <polygon class="cls-7" points="142.3 219.05 142.3 225.05 202.49 225.05 207.07 219.05 142.3 219.05"/>
    <polygon class="cls-12" points="214.98 219.05 207.07 219.05 202.49 225.05 214.98 225.05 214.98 219.05"/>
    <path class="cls-13" d="M307,2641.13a20.58,20.58,0,1,0-20.58-20.58A20.58,20.58,0,0,0,307,2641.13m-8.58-13.06a8.94,8.94,0,0,1,1.2-2.43,8.84,8.84,0,0,1,1.87-1.95,9.14,9.14,0,0,1,2.46-1.34,6.31,6.31,0,0,1-1.41-1,6.4,6.4,0,0,1-1.06-1.34,6.62,6.62,0,0,1-.67-1.58,6.35,6.35,0,0,1-.24-1.72,6.29,6.29,0,0,1,.5-2.51,6.44,6.44,0,0,1,3.42-3.42,6.51,6.51,0,0,1,5,0,6.44,6.44,0,0,1,3.42,3.42,6.45,6.45,0,0,1,.27,4.23,6.51,6.51,0,0,1-.67,1.57,6.66,6.66,0,0,1-1.05,1.34,6.23,6.23,0,0,1-1.39,1,8.61,8.61,0,0,1,2.47,1.32,8.74,8.74,0,0,1,1.87,2,8.94,8.94,0,0,1,1.18,2.44,9.25,9.25,0,0,1,.41,2.76h-1.29a7.88,7.88,0,0,0-.59-3.06,7.39,7.39,0,0,0-4.07-4.07,8.17,8.17,0,0,0-5.13-.32,7.73,7.73,0,0,0-1.85.77,7.51,7.51,0,0,0-2.75,2.75,7.73,7.73,0,0,0-.77,1.85,7.82,7.82,0,0,0-.27,2.07h-1.29a9.05,9.05,0,0,1,.42-2.77" transform="translate(-194.22 -2412.22)"/>
    <path class="cls-13" d="M307,2621.84a4.94,4.94,0,0,0,2-.41,5.21,5.21,0,0,0,2.74-2.74,5.11,5.11,0,0,0,0-4A5.21,5.21,0,0,0,309,2612a5.11,5.11,0,0,0-4,0,5.21,5.21,0,0,0-2.74,2.74,5.11,5.11,0,0,0,0,4,5.21,5.21,0,0,0,2.74,2.74,4.94,4.94,0,0,0,2,.41" transform="translate(-194.22 -2412.22)"/>
    <path class="cls-7" d="M283.63,2601.23a3,3,0,1,0-3-3,3,3,0,0,0,3,3" transform="translate(-194.22 -2412.22)"/>
    <polygon class="cls-7" points="255.85 263.35 255.85 269.35 168.61 269.35 164.02 275.35 256.53 275.35 256.53 281.35 159.43 281.35 154.85 287.35 214.98 287.35 214.98 293.35 150.26 293.35 141.19 305.21 272.85 305.21 272.85 248.06 184.89 248.06 173.2 263.35 255.85 263.35"/>
    <path class="cls-5" d="M277.38,2717.43h58l9.07-11.87h-8v-6h12.54l4.59-6H336.53v-6h21.72l4.59-6H336.53v-6h30.89l11.69-15.29H277.38v57.15ZM307,2668.28a20.58,20.58,0,1,1-20.58,20.58A20.58,20.58,0,0,1,307,2668.28m-23.32-4.75a3,3,0,1,1-3,3,3,3,0,0,1,3-3" transform="translate(-194.22 -2412.22)"/>
    <path class="cls-5" d="M299.51,2697.08a7.73,7.73,0,0,1,.77-1.85,7.51,7.51,0,0,1,2.75-2.75,7.73,7.73,0,0,1,1.85-.77,8.17,8.17,0,0,1,5.13.32,7.4,7.4,0,0,1,4.07,4.07,7.88,7.88,0,0,1,.59,3.06H316a9.25,9.25,0,0,0-.41-2.76,8.94,8.94,0,0,0-1.18-2.44,8.74,8.74,0,0,0-1.87-2,8.62,8.62,0,0,0-2.47-1.32,6.21,6.21,0,0,0,1.39-1,6.67,6.67,0,0,0,1.05-1.34,6.55,6.55,0,0,0,.67-1.57,6.45,6.45,0,0,0-.27-4.23,6.44,6.44,0,0,0-3.42-3.42,6.51,6.51,0,0,0-5,0,6.44,6.44,0,0,0-3.42,3.42,6.47,6.47,0,0,0-.27,4.23,6.58,6.58,0,0,0,.67,1.58,6.37,6.37,0,0,0,1.06,1.34,6.29,6.29,0,0,0,1.41,1,9.13,9.13,0,0,0-2.46,1.34,8.83,8.83,0,0,0-1.87,1.95,9,9,0,0,0-1.2,2.43,9.06,9.06,0,0,0-.42,2.77h1.29a7.82,7.82,0,0,1,.27-2.07m3.81-8.45a5.24,5.24,0,0,1-1.11-1.63,5.11,5.11,0,0,1,0-4,5.21,5.21,0,0,1,2.74-2.74,5.11,5.11,0,0,1,4,0,5.21,5.21,0,0,1,2.74,2.74,5.11,5.11,0,0,1,0,4,5.21,5.21,0,0,1-2.74,2.74,5.11,5.11,0,0,1-4,0,5.23,5.23,0,0,1-1.63-1.11" transform="translate(-194.22 -2412.22)"/>
    <polygon class="cls-6" points="142.3 263.35 142.3 269.35 168.61 269.35 173.2 263.35 142.3 263.35"/>
    <polygon class="cls-11" points="255.85 263.35 173.2 263.35 168.61 269.35 255.85 269.35 255.85 263.35"/>
    <polygon class="cls-7" points="142.3 275.35 142.3 281.35 159.43 281.35 164.02 275.35 142.3 275.35"/>
    <polygon class="cls-12" points="256.53 275.35 164.02 275.35 159.43 281.35 256.53 281.35 256.53 275.35"/>
    <polygon class="cls-7" points="142.3 287.35 142.3 293.35 150.26 293.35 154.85 287.35 142.3 287.35"/>
    <polygon class="cls-12" points="214.98 287.35 154.85 287.35 150.26 293.35 214.98 293.35 214.98 287.35"/>
    <path class="cls-14" d="M307,2709.43a20.58,20.58,0,1,0-20.58-20.58A20.58,20.58,0,0,0,307,2709.43m-8.58-13.06a8.94,8.94,0,0,1,1.2-2.43,8.84,8.84,0,0,1,1.87-1.95,9.14,9.14,0,0,1,2.46-1.34,6.31,6.31,0,0,1-1.41-1,6.4,6.4,0,0,1-1.06-1.34,6.62,6.62,0,0,1-.67-1.58,6.47,6.47,0,0,1,.27-4.23,6.44,6.44,0,0,1,3.42-3.42,6.51,6.51,0,0,1,5,0,6.44,6.44,0,0,1,3.42,3.42,6.45,6.45,0,0,1,.27,4.23,6.51,6.51,0,0,1-.67,1.57,6.66,6.66,0,0,1-1.05,1.34,6.23,6.23,0,0,1-1.39,1,8.59,8.59,0,0,1,2.47,1.32,8.73,8.73,0,0,1,1.87,2,9,9,0,0,1,1.18,2.44,9.25,9.25,0,0,1,.41,2.76h-1.29a7.88,7.88,0,0,0-.59-3.06A7.39,7.39,0,0,0,310,2692a8.17,8.17,0,0,0-5.13-.32,7.73,7.73,0,0,0-1.85.77,7.51,7.51,0,0,0-2.75,2.75,7.73,7.73,0,0,0-.77,1.85,7.82,7.82,0,0,0-.27,2.07h-1.29a9.05,9.05,0,0,1,.42-2.77" transform="translate(-194.22 -2412.22)"/>
    <path class="cls-14" d="M307,2690.14a4.94,4.94,0,0,0,2-.41,5.21,5.21,0,0,0,2.74-2.74,5.11,5.11,0,0,0,0-4,5.21,5.21,0,0,0-2.74-2.74,5.11,5.11,0,0,0-4,0,5.21,5.21,0,0,0-2.74,2.74,5.11,5.11,0,0,0,0,4,5.21,5.21,0,0,0,2.74,2.74,4.94,4.94,0,0,0,2,.41" transform="translate(-194.22 -2412.22)"/>
    <path class="cls-7" d="M283.63,2669.54a3,3,0,1,0-3-3,3,3,0,0,0,3,3" transform="translate(-194.22 -2412.22)"/>
    <path class="cls-2" d="M404.8,2593.51l-47.49,62.11a4.73,4.73,0,0,1-5.68,7.43l-76.81,100.46a4.74,4.74,0,1,1-5.73,7.49l-22.34,29.22H404.8V2593.51Zm-105.29,178.8a4.76,4.76,0,1,1,4.76-4.76,4.76,4.76,0,0,1-4.76,4.76m0-27.17a4.76,4.76,0,1,1,4.76-4.76,4.76,4.76,0,0,1-4.76,4.76m27.17,27.17a4.76,4.76,0,1,1,4.76-4.76,4.76,4.76,0,0,1-4.76,4.76m0-27.17a4.76,4.76,0,1,1,4.76-4.76,4.76,4.76,0,0,1-4.76,4.76m0-27.17a4.76,4.76,0,1,1,4.76-4.76,4.76,4.76,0,0,1-4.76,4.76m27.17,54.34a4.76,4.76,0,1,1,4.76-4.76,4.76,4.76,0,0,1-4.76,4.76m0-27.17a4.76,4.76,0,1,1,4.76-4.76,4.76,4.76,0,0,1-4.76,4.76m0-27.17a4.76,4.76,0,1,1,4.76-4.76,4.76,4.76,0,0,1-4.76,4.76m0-27.17a4.76,4.76,0,1,1,4.76-4.76,4.76,4.76,0,0,1-4.76,4.76M381,2745.14a4.76,4.76,0,1,1,4.76-4.76,4.76,4.76,0,0,1-4.76,4.76m0-27.17a4.76,4.76,0,1,1,4.76-4.76A4.76,4.76,0,0,1,381,2718m0-27.17a4.76,4.76,0,1,1,4.76-4.76,4.76,4.76,0,0,1-4.76,4.76m0-27.17a4.76,4.76,0,1,1,4.76-4.76,4.76,4.76,0,0,1-4.76,4.76" transform="translate(-194.22 -2412.22)"/>
    <path class="cls-1" d="M267.59,2767.55a4.73,4.73,0,0,1,7.23-4L351.63,2663a4.74,4.74,0,1,1,5.68-7.43l47.49-62.11v-19.76H194.22v226.47h52.52L269.09,2771a4.73,4.73,0,0,1-1.5-3.45m108.47-166.8,1.07-1.07,8.86,8.86-8.86,8.86-1.07-1.07,7.79-7.79ZM272.34,2745.14a4.76,4.76,0,1,1,4.76-4.76,4.76,4.76,0,0,1-4.76,4.76m0-27.17a4.76,4.76,0,1,1,4.76-4.76,4.76,4.76,0,0,1-4.76,4.76m27.17,0a4.76,4.76,0,1,1,4.76-4.76,4.76,4.76,0,0,1-4.76,4.76m0-27.17a4.76,4.76,0,1,1,4.76-4.76,4.76,4.76,0,0,1-4.76,4.76m27.17,0a4.76,4.76,0,1,1,4.76-4.76,4.76,4.76,0,0,1-4.76,4.76m0-27.17a4.76,4.76,0,1,1,4.76-4.75,4.76,4.76,0,0,1-4.76,4.75m-58.81-60.57H331v11.48H267.87v-11.48ZM218,2772.31a4.76,4.76,0,1,1,4.76-4.76,4.76,4.76,0,0,1-4.76,4.76m0-27.17a4.76,4.76,0,1,1,4.76-4.76,4.76,4.76,0,0,1-4.76,4.76m0-27.17a4.76,4.76,0,1,1,4.76-4.76A4.76,4.76,0,0,1,218,2718m0-27.17a4.76,4.76,0,1,1,4.76-4.76,4.76,4.76,0,0,1-4.76,4.76m5-74.47-1.07,1.07-8.86-8.86,8.86-8.86,1.07,1.07-7.79,7.79Zm22.2,156a4.76,4.76,0,1,1,4.76-4.76,4.76,4.76,0,0,1-4.76,4.76m0-27.17a4.76,4.76,0,1,1,4.76-4.76,4.76,4.76,0,0,1-4.76,4.76m0-27.17a4.76,4.76,0,1,1,4.76-4.76,4.76,4.76,0,0,1-4.76,4.76m0-27.17a4.76,4.76,0,1,1,4.76-4.76,4.76,4.76,0,0,1-4.76,4.76m15.5-4.76a11.67,11.67,0,1,1,11.67,11.67A11.68,11.68,0,0,1,260.68,2686" transform="translate(-194.22 -2412.22)"/>
    <rect class="cls-3" y="135.7" width="210.58" height="25.83"/>
    <rect class="cls-4" y="129.74" width="210.58" height="5.96"/>
    <rect class="cls-8" x="73.65" y="190.83" width="63.13" height="11.48"/>
    <polygon class="cls-7" points="27.67 187.46 18.81 196.32 27.67 205.18 28.75 204.1 20.96 196.32 28.75 188.53 27.67 187.46"/>
    <polygon class="cls-7" points="182.91 205.18 191.77 196.32 182.91 187.46 181.84 188.53 189.62 196.32 181.84 204.1 182.91 205.18"/>
    <path class="cls-12" d="M381,2654.11a4.76,4.76,0,1,0,4.76,4.76,4.76,4.76,0,0,0-4.76-4.76" transform="translate(-194.22 -2412.22)"/>
    <path class="cls-12" d="M353.85,2663.63a4.74,4.74,0,0,0,3.46-8l-5.68,7.43a4.72,4.72,0,0,0,2.23.58" transform="translate(-194.22 -2412.22)"/>
    <path class="cls-7" d="M353.85,2654.11a4.74,4.74,0,0,0-2.23,8.94l5.68-7.43a4.73,4.73,0,0,0-3.46-1.51" transform="translate(-194.22 -2412.22)"/>
    <path class="cls-7" d="M326.68,2654.11a4.76,4.76,0,1,0,4.76,4.76,4.76,4.76,0,0,0-4.76-4.76" transform="translate(-194.22 -2412.22)"/>
    <path class="cls-7" d="M218,2681.28a4.76,4.76,0,1,0,4.76,4.76,4.76,4.76,0,0,0-4.76-4.76" transform="translate(-194.22 -2412.22)"/>
    <path class="cls-7" d="M245.17,2681.28a4.76,4.76,0,1,0,4.76,4.76,4.76,4.76,0,0,0-4.76-4.76" transform="translate(-194.22 -2412.22)"/>
    <path class="cls-7" d="M299.51,2681.28a4.76,4.76,0,1,0,4.76,4.76,4.76,4.76,0,0,0-4.76-4.76" transform="translate(-194.22 -2412.22)"/>
    <path class="cls-7" d="M326.68,2681.28a4.76,4.76,0,1,0,4.76,4.76,4.76,4.76,0,0,0-4.76-4.76" transform="translate(-194.22 -2412.22)"/>
    <path class="cls-12" d="M353.85,2681.28a4.76,4.76,0,1,0,4.76,4.76,4.76,4.76,0,0,0-4.76-4.76" transform="translate(-194.22 -2412.22)"/>
    <path class="cls-12" d="M381,2681.28a4.76,4.76,0,1,0,4.76,4.76,4.76,4.76,0,0,0-4.76-4.76" transform="translate(-194.22 -2412.22)"/>
    <path class="cls-7" d="M218,2708.46a4.76,4.76,0,1,0,4.76,4.76,4.76,4.76,0,0,0-4.76-4.76" transform="translate(-194.22 -2412.22)"/>
    <path class="cls-7" d="M245.17,2708.46a4.76,4.76,0,1,0,4.76,4.76,4.76,4.76,0,0,0-4.76-4.76" transform="translate(-194.22 -2412.22)"/>
    <path class="cls-7" d="M272.34,2708.46a4.76,4.76,0,1,0,4.76,4.76,4.76,4.76,0,0,0-4.76-4.76" transform="translate(-194.22 -2412.22)"/>
    <path class="cls-7" d="M299.51,2708.46a4.76,4.76,0,1,0,4.76,4.76,4.76,4.76,0,0,0-4.76-4.76" transform="translate(-194.22 -2412.22)"/>
    <path class="cls-12" d="M326.68,2708.46a4.76,4.76,0,1,0,4.76,4.76,4.76,4.76,0,0,0-4.76-4.76" transform="translate(-194.22 -2412.22)"/>
    <path class="cls-12" d="M353.85,2708.46a4.76,4.76,0,1,0,4.76,4.76,4.76,4.76,0,0,0-4.76-4.76" transform="translate(-194.22 -2412.22)"/>
    <path class="cls-12" d="M381,2708.46a4.76,4.76,0,1,0,4.76,4.76,4.76,4.76,0,0,0-4.76-4.76" transform="translate(-194.22 -2412.22)"/>
    <path class="cls-7" d="M218,2735.63a4.76,4.76,0,1,0,4.76,4.76,4.76,4.76,0,0,0-4.76-4.76" transform="translate(-194.22 -2412.22)"/>
    <path class="cls-7" d="M245.17,2735.63a4.76,4.76,0,1,0,4.76,4.76,4.76,4.76,0,0,0-4.76-4.76" transform="translate(-194.22 -2412.22)"/>
    <path class="cls-7" d="M272.34,2735.63a4.76,4.76,0,1,0,4.76,4.76,4.76,4.76,0,0,0-4.76-4.76" transform="translate(-194.22 -2412.22)"/>
    <path class="cls-12" d="M299.51,2735.63a4.76,4.76,0,1,0,4.76,4.76,4.76,4.76,0,0,0-4.76-4.76" transform="translate(-194.22 -2412.22)"/>
    <path class="cls-12" d="M326.68,2735.63a4.76,4.76,0,1,0,4.76,4.76,4.76,4.76,0,0,0-4.76-4.76" transform="translate(-194.22 -2412.22)"/>
    <path class="cls-12" d="M353.85,2735.63a4.76,4.76,0,1,0,4.76,4.76,4.76,4.76,0,0,0-4.76-4.76" transform="translate(-194.22 -2412.22)"/>
    <path class="cls-12" d="M381,2735.63a4.76,4.76,0,1,0,4.76,4.76,4.76,4.76,0,0,0-4.76-4.76" transform="translate(-194.22 -2412.22)"/>
    <path class="cls-7" d="M218,2762.8a4.76,4.76,0,1,0,4.76,4.76,4.76,4.76,0,0,0-4.76-4.76" transform="translate(-194.22 -2412.22)"/>
    <path class="cls-7" d="M245.17,2762.8a4.76,4.76,0,1,0,4.76,4.76,4.76,4.76,0,0,0-4.76-4.76" transform="translate(-194.22 -2412.22)"/>
    <path class="cls-12" d="M272.34,2772.31a4.74,4.74,0,0,0,2.47-8.8l-5.73,7.49a4.72,4.72,0,0,0,3.26,1.31" transform="translate(-194.22 -2412.22)"/>
    <path class="cls-7" d="M267.59,2767.55a4.73,4.73,0,0,0,1.5,3.45l5.73-7.49a4.73,4.73,0,0,0-7.23,4" transform="translate(-194.22 -2412.22)"/>
    <path class="cls-12" d="M299.51,2762.8a4.76,4.76,0,1,0,4.76,4.76,4.76,4.76,0,0,0-4.76-4.76" transform="translate(-194.22 -2412.22)"/>
    <path class="cls-12" d="M326.68,2762.8a4.76,4.76,0,1,0,4.76,4.76,4.76,4.76,0,0,0-4.76-4.76" transform="translate(-194.22 -2412.22)"/>
    <path class="cls-12" d="M353.85,2762.8a4.76,4.76,0,1,0,4.76,4.76,4.76,4.76,0,0,0-4.76-4.76" transform="translate(-194.22 -2412.22)"/>
    <path class="cls-1" d="M272.34,2676.71a9.33,9.33,0,1,0,9.33,9.33,9.34,9.34,0,0,0-9.33-9.33m0,14.09a4.76,4.76,0,1,1,4.76-4.76,4.76,4.76,0,0,1-4.76,4.76" transform="translate(-194.22 -2412.22)"/>
    <path class="cls-3" d="M272.34,2681.28a4.76,4.76,0,1,0,4.76,4.76,4.76,4.76,0,0,0-4.76-4.76" transform="translate(-194.22 -2412.22)"/>
    <path class="cls-8" d="M272.34,2674.37A11.67,11.67,0,1,0,284,2686a11.68,11.68,0,0,0-11.67-11.67m0,21a9.33,9.33,0,1,1,9.33-9.33,9.34,9.34,0,0,1-9.33,9.33" transform="translate(-194.22 -2412.22)"/>
    <polygon class="cls-6" points="202.09 143.62 197.67 148.03 193.24 143.62 192.67 144.19 197.08 148.62 192.67 153.04 193.24 153.62 197.67 149.2 202.09 153.62 202.67 153.04 198.25 148.62 202.67 144.19 202.09 143.62"/>
    <polygon class="cls-6" points="275.51 14 271.09 18.42 266.66 14 266.09 14.58 270.5 19 266.09 23.43 266.66 24 271.09 19.58 275.51 24 276.09 23.43 271.67 19 276.09 14.58 275.51 14"/>
  </g>
</svg>
