<svg id="ILLUSTRATIONS" xmlns="http://www.w3.org/2000/svg" width="178" height="127.43" viewBox="0 0 178 127.43">
  <defs>
    <style>
      .cls-1 {
        fill: #92b5af;
      }

      .cls-2 {
        fill: #eaeaea;
      }

      .cls-3 {
        fill: #fff;
      }

      .cls-4 {
        fill: #a6a6a6;
      }

      .cls-5 {
        fill: #c8c8c8;
      }

      .cls-6 {
        fill: #00bcf2;
      }

      .cls-7 {
        fill: #0099bc;
      }

      .cls-8 {
        fill: #f4f4f4;
      }
    </style>
  </defs>
  <title>diagram-components-many</title>
  <g>
    <polygon class="cls-1" points="118.67 65.02 2.91 65.02 2.91 127.43 70.94 127.43 119.33 127.43 119.33 65.02 118.67 65.02"/>
    <g>
      <g>
        <polygon class="cls-2" points="104.85 77.34 104.85 80.61 102.36 80.61 99.14 84.81 104.85 84.81 104.85 89.03 95.92 89.03 92.7 93.24 104.85 93.24 104.85 97.45 89.48 97.45 83.05 105.86 104.85 105.86 104.85 117.08 74.47 117.08 68.03 125.49 116.42 125.49 116.42 63.08 115.76 63.08 104.85 77.34"/>
        <polygon class="cls-3" points="62.77 117.08 62.77 105.86 83.05 105.86 89.48 97.45 49.44 97.45 49.44 93.24 92.7 93.24 95.92 89.03 49.44 89.03 49.44 84.81 99.14 84.81 102.36 80.61 49.44 80.61 49.44 76.39 104.85 76.39 104.85 77.34 115.76 63.08 0 63.08 0 125.49 68.03 125.49 74.47 117.08 62.77 117.08"/>
        <polygon class="cls-4" points="104.85 80.61 104.85 77.34 102.36 80.61 104.85 80.61"/>
        <polygon class="cls-5" points="49.44 76.39 49.44 80.61 102.36 80.61 104.85 77.34 104.85 76.39 49.44 76.39"/>
        <polygon class="cls-5" points="49.44 89.03 95.92 89.03 99.14 84.81 49.44 84.81 49.44 89.03"/>
        <polygon class="cls-4" points="104.85 89.03 104.85 84.81 99.14 84.81 95.92 89.03 104.85 89.03"/>
        <polygon class="cls-5" points="49.44 97.45 89.48 97.45 92.7 93.24 49.44 93.24 49.44 97.45"/>
        <polygon class="cls-4" points="104.85 97.45 104.85 93.24 92.7 93.24 89.48 97.45 104.85 97.45"/>
        <polygon class="cls-6" points="62.77 117.08 74.47 117.08 77.68 112.87 72.59 112.87 72.59 110.06 79.83 110.06 83.05 105.86 62.77 105.86 62.77 117.08"/>
        <polygon class="cls-7" points="95.03 110.06 95.03 112.87 77.68 112.87 74.47 117.08 104.85 117.08 104.85 105.86 83.05 105.86 79.83 110.06 95.03 110.06"/>
        <polygon class="cls-8" points="72.59 110.06 72.59 112.87 77.68 112.87 79.83 110.06 72.59 110.06"/>
        <polygon class="cls-8" points="95.03 110.06 79.83 110.06 77.68 112.87 95.03 112.87 95.03 110.06"/>
      </g>
      <path class="cls-6" d="M416.53,758a12.62,12.62,0,1,1-12.62,12.62A12.64,12.64,0,0,1,416.53,758m0-2.81A15.43,15.43,0,1,0,432,770.61a15.43,15.43,0,0,0-15.43-15.43h0Z" transform="translate(-394.09 -683.69)"/>
    </g>
  </g>
  <g>
    <polygon class="cls-1" points="165.52 26.96 61.58 26.96 61.58 58.52 141.39 58.52 178 58.52 178 26.96 165.52 26.96"/>
    <g>
      <polygon class="cls-3" points="113.11 50.52 113.11 46.31 146.33 46.31 150.41 40.97 61.82 40.97 61.82 40.27 150.95 40.27 155.17 34.75 113.11 34.75 113.11 30.54 158.39 30.54 162.61 25.02 58.67 25.02 58.67 56.58 138.48 56.58 143.11 50.52 113.11 50.52"/>
      <polygon class="cls-2" points="175.09 25.02 162.61 25.02 158.39 30.54 168.51 30.54 168.51 34.75 155.17 34.75 150.95 40.27 171.93 40.27 171.93 40.97 150.41 40.97 146.33 46.31 168.51 46.31 168.51 50.52 143.11 50.52 138.48 56.58 175.09 56.58 175.09 25.02"/>
      <polygon class="cls-2" points="61.82 40.97 150.41 40.97 150.95 40.27 61.82 40.27 61.82 40.97"/>
      <polygon class="cls-5" points="171.93 40.97 171.93 40.27 150.95 40.27 150.41 40.97 171.93 40.97"/>
      <polygon class="cls-4" points="168.51 34.75 168.51 30.54 158.39 30.54 155.17 34.75 168.51 34.75"/>
      <polygon class="cls-5" points="113.11 34.75 155.17 34.75 158.39 30.54 113.11 30.54 113.11 34.75"/>
      <polygon class="cls-5" points="113.11 50.52 143.11 50.52 146.33 46.31 113.11 46.31 113.11 50.52"/>
      <polygon class="cls-4" points="168.51 50.52 168.51 46.31 146.33 46.31 143.11 50.52 168.51 50.52"/>
      <rect class="cls-8" x="66.65" y="29.49" width="6.31" height="6.31"/>
      <path class="cls-5" d="M468.45,711.77h-9.12v9.12h9.12v-9.12Zm-1.4,7.71h-6.31v-6.31h6.31v6.31Z" transform="translate(-394.09 -683.69)"/>
      <g>
        <path class="cls-6" d="M459.34,736.66h9.12v-9.12h-9.12v9.12Zm2-4.92,1.65,1.65,3.46-3.46,0.44,0.44L463,734.28l-2.09-2.1Z" transform="translate(-394.09 -683.69)"/>
        <polygon class="cls-3" points="72.8 46.68 72.36 46.24 68.9 49.7 67.24 48.05 66.8 48.49 68.9 50.59 72.8 46.68"/>
      </g>
    </g>
  </g>
  <g>
    <polygon class="cls-1" points="131.3 1.94 32.47 1.94 32.47 19.79 117.65 19.79 148.89 19.79 148.89 1.94 131.3 1.94"/>
    <g>
      <polygon class="cls-3" points="29.56 0 29.56 17.85 114.74 17.85 128.39 0 29.56 0"/>
      <polygon class="cls-2" points="145.98 0 128.39 0 114.74 17.85 145.98 17.85 145.98 0"/>
      <path class="cls-6" d="M439,697.63a0.34,0.34,0,0,1-.08.22,0.26,0.26,0,0,1-.21.1,0.28,0.28,0,0,1-.2-0.09L435,694.3a3.26,3.26,0,0,1-1,.55,3.19,3.19,0,0,1-2.7-.25,3.28,3.28,0,0,1-1.15-1.15,3.19,3.19,0,0,1,0-3.23,3.28,3.28,0,0,1,1.15-1.15,3.19,3.19,0,0,1,3.23,0,3.28,3.28,0,0,1,1.15,1.15,3.2,3.2,0,0,1,.25,2.7,3.26,3.26,0,0,1-.55,1l0.26,0.26,0.46,0.45,0.59,0.58,0.65,0.64,0.63,0.63,0.54,0.56,0.38,0.42A0.64,0.64,0,0,1,439,697.63Zm-6.11-3.17a2.54,2.54,0,0,0,1-.21,2.64,2.64,0,0,0,1.39-1.39,2.61,2.61,0,0,0,0-2,2.64,2.64,0,0,0-1.39-1.39,2.61,2.61,0,0,0-2,0,2.64,2.64,0,0,0-1.39,1.39,2.61,2.61,0,0,0,0,2,2.64,2.64,0,0,0,1.39,1.39A2.54,2.54,0,0,0,432.92,694.46Z" transform="translate(-394.09 -683.69)"/>
      <rect class="cls-5" x="51.42" y="6.66" width="33.64" height="4.54"/>
    </g>
  </g>
  <g>
    <rect class="cls-1" x="131.39" y="65.07" width="40" height="40"/>
    <g>
      <path class="cls-2" d="M553.3,756.29a3,3,0,0,1-3.49,4.56L530,786.76h32.49v-40h-1.91Zm-11,25.71a3,3,0,1,1,3-3A3,3,0,0,1,542.26,782ZM553,777.52a3,3,0,1,1,0-4.24A3,3,0,0,1,553,777.52Zm4.46-10.8v0a3,3,0,0,1-6,0v0a3,3,0,0,1,6,0v0Z" transform="translate(-394.09 -683.69)"/>
      <path class="cls-3" d="M548.77,760.18a3,3,0,1,1,4.53-3.89l7.28-9.52H522.48v40H530l19.82-25.92A2.94,2.94,0,0,1,548.77,760.18ZM531.44,756a3,3,0,1,1,0,4.24A3,3,0,0,1,531.44,756ZM527,766.78a3,3,0,1,1,3,3A3,3,0,0,1,527,766.78Zm8.72,10.76a3,3,0,0,1-2.12.88A3,3,0,1,1,535.72,777.54Zm6.5-20h0a3,3,0,1,1,3-3,3,3,0,0,1-3,3Z" transform="translate(-394.09 -683.69)"/>
      <path class="cls-8" d="M531.48,773.3a3,3,0,0,0,2.12,5.12,3,3,0,0,0,2.12-.88A3,3,0,0,0,531.48,773.3Z" transform="translate(-394.09 -683.69)"/>
      <path class="cls-6" d="M531.48,773.3a3,3,0,0,0,2.12,5.12,3,3,0,0,0,2.12-.88A3,3,0,0,0,531.48,773.3Z" transform="translate(-394.09 -683.69)"/>
      <path class="cls-6" d="M542.2,751.5a3,3,0,0,0,0,6h0A3,3,0,0,0,542.2,751.5Z" transform="translate(-394.09 -683.69)"/>
      <path class="cls-8" d="M533.56,761.11a3,3,0,1,0-2.11-.88A3,3,0,0,0,533.56,761.11Z" transform="translate(-394.09 -683.69)"/>
      <path class="cls-6" d="M533.56,761.11a3,3,0,1,0-2.11-.88A3,3,0,0,0,533.56,761.11Z" transform="translate(-394.09 -683.69)"/>
      <path class="cls-8" d="M533,766.77a3,3,0,1,0-3,3A3,3,0,0,0,533,766.77Z" transform="translate(-394.09 -683.69)"/>
      <path class="cls-6" d="M533,766.77a3,3,0,1,0-3,3A3,3,0,0,0,533,766.77Z" transform="translate(-394.09 -683.69)"/>
      <path class="cls-8" d="M550.88,761a3,3,0,0,0,2.42-4.76l-3.49,4.56A3,3,0,0,0,550.88,761Z" transform="translate(-394.09 -683.69)"/>
      <path class="cls-6" d="M550.88,761a3,3,0,0,0,2.42-4.76l-3.49,4.56A3,3,0,0,0,550.88,761Z" transform="translate(-394.09 -683.69)"/>
      <path class="cls-8" d="M548.75,755.94a3,3,0,0,0,0,4.24,2.94,2.94,0,0,0,1,.67l3.49-4.56A2.94,2.94,0,0,0,548.75,755.94Z" transform="translate(-394.09 -683.69)"/>
      <path class="cls-6" d="M548.75,755.94a3,3,0,0,0,0,4.24,2.94,2.94,0,0,0,1,.67l3.49-4.56A2.94,2.94,0,0,0,548.75,755.94Z" transform="translate(-394.09 -683.69)"/>
      <path class="cls-8" d="M554.49,763.7a3,3,0,0,0-3,3v0a3,3,0,0,0,6,0v-0.07A3,3,0,0,0,554.49,763.7Z" transform="translate(-394.09 -683.69)"/>
      <path class="cls-6" d="M554.49,763.7a3,3,0,0,0-3,3v0a3,3,0,0,0,6,0v-0.07A3,3,0,0,0,554.49,763.7Z" transform="translate(-394.09 -683.69)"/>
      <path class="cls-8" d="M542.26,776a3,3,0,1,0,3,3A3,3,0,0,0,542.26,776Z" transform="translate(-394.09 -683.69)"/>
      <path class="cls-6" d="M542.26,776a3,3,0,1,0,3,3A3,3,0,0,0,542.26,776Z" transform="translate(-394.09 -683.69)"/>
      <path class="cls-8" d="M548.79,773.28a3,3,0,1,0,4.25,0A3,3,0,0,0,548.79,773.28Z" transform="translate(-394.09 -683.69)"/>
      <path class="cls-6" d="M548.79,773.28a3,3,0,1,0,4.25,0A3,3,0,0,0,548.79,773.28Z" transform="translate(-394.09 -683.69)"/>
    </g>
  </g>
  <g>
    <rect class="cls-1" x="3" y="33.49" width="49.86" height="18.27"/>
    <path class="cls-3" d="M413.12,724.81c0-.16,0-0.33,0-0.5s0-.34,0-0.5h19.26l6.6-8.64H394.09v18.27H425l6.6-8.64H413.12Z" transform="translate(-394.09 -683.69)"/>
    <path class="cls-2" d="M432.37,723.81h8.15a0.5,0.5,0,0,1,0,1h-8.91l-6.6,8.64h18.95V715.17h-5Z" transform="translate(-394.09 -683.69)"/>
    <path class="cls-4" d="M440.52,724.81a0.5,0.5,0,0,0,0-1h-8.15l-0.76,1h8.91Z" transform="translate(-394.09 -683.69)"/>
    <path class="cls-5" d="M413.14,724.31c0,0.17,0,.34,0,0.5h18.49l0.76-1H413.12C413.13,724,413.14,724.14,413.14,724.31Z" transform="translate(-394.09 -683.69)"/>
    <path class="cls-5" d="M397.52,723.81h4.72c0,0.16,0,.33,0,0.5s0,0.34,0,.5h-4.72A0.5,0.5,0,1,1,397.52,723.81Z" transform="translate(-394.09 -683.69)"/>
    <path class="cls-6" d="M402.22,724.31c0,0.17,0,.34,0,0.5a5.46,5.46,0,0,0,10.87,0c0-.16,0-0.33,0-0.5s0-.34,0-0.5a5.46,5.46,0,0,0-10.87,0C402.23,724,402.22,724.14,402.22,724.31Zm1.55,0.5a2.5,2.5,0,0,1,0-1,3.94,3.94,0,0,1,7.82,0,2.5,2.5,0,0,1,0,1A3.94,3.94,0,0,1,403.77,724.81Z" transform="translate(-394.09 -683.69)"/>
  </g>
</svg>
