<svg id="ILLUSTRATIONS" xmlns="http://www.w3.org/2000/svg" width="168.43" height="58.59" viewBox="0 0 168.43 58.59">
  <defs>
    <style>
      .cls-1 {
        fill: #92b5af;
      }

      .cls-2 {
        fill: #fff;
      }

      .cls-3 {
        fill: #eaeaea;
      }

      .cls-4 {
        fill: #c8c8c8;
      }

      .cls-5 {
        fill: #a6a6a6;
      }

      .cls-6 {
        fill: #f4f4f4;
      }

      .cls-7 {
        fill: #00bcf2;
      }
    </style>
  </defs>
  <title>diagram-components-few</title>
  <g>
    <polygon class="cls-1" points="155.96 1.94 52.01 1.94 52.01 33.5 131.82 33.5 168.43 33.5 168.43 1.94 155.96 1.94"/>
    <g>
      <polygon class="cls-2" points="103.54 25.5 103.54 21.29 136.77 21.29 140.85 15.96 52.26 15.96 52.26 15.25 141.38 15.25 145.6 9.73 103.54 9.73 103.54 5.52 148.82 5.52 153.05 0 49.1 0 49.1 31.56 128.91 31.56 133.55 25.5 103.54 25.5"/>
      <polygon class="cls-3" points="165.52 0 153.05 0 148.82 5.52 158.95 5.52 158.95 9.73 145.6 9.73 141.38 15.25 162.37 15.25 162.37 15.96 140.85 15.96 136.77 21.29 158.95 21.29 158.95 25.5 133.55 25.5 128.91 31.56 165.52 31.56 165.52 0"/>
      <polygon class="cls-3" points="52.26 15.96 140.85 15.96 141.38 15.25 52.26 15.25 52.26 15.96"/>
      <polygon class="cls-4" points="162.37 15.96 162.37 15.25 141.38 15.25 140.85 15.96 162.37 15.96"/>
      <polygon class="cls-5" points="158.95 9.73 158.95 5.52 148.82 5.52 145.6 9.73 158.95 9.73"/>
      <polygon class="cls-4" points="103.54 9.73 145.6 9.73 148.82 5.52 103.54 5.52 103.54 9.73"/>
      <polygon class="cls-4" points="103.54 25.5 133.55 25.5 136.77 21.29 103.54 21.29 103.54 25.5"/>
      <polygon class="cls-5" points="158.95 25.5 158.95 21.29 136.77 21.29 133.55 25.5 158.95 25.5"/>
      <rect class="cls-6" x="57.08" y="4.47" width="6.31" height="6.31"/>
      <path class="cls-4" d="M684.76,755.16h-9.12v9.12h9.12v-9.12Zm-1.4,7.71H677v-6.31h6.31v6.31Z" transform="translate(-619.96 -752.1)"/>
      <g>
        <path class="cls-7" d="M675.64,780.05h9.12v-9.12h-9.12v9.12Zm2-4.92,1.65,1.65,3.46-3.46,0.44,0.44-3.91,3.91-2.09-2.1Z" transform="translate(-619.96 -752.1)"/>
        <polygon class="cls-2" points="63.24 21.66 62.8 21.22 59.33 24.68 57.68 23.03 57.24 23.48 59.33 25.57 63.24 21.66"/>
      </g>
    </g>
  </g>
  <g>
    <polygon class="cls-1" points="150.85 40.74 52.01 40.74 52.01 58.59 137.2 58.59 168.43 58.59 168.43 40.74 150.85 40.74"/>
    <g>
      <polygon class="cls-2" points="49.1 38.8 49.1 56.65 134.29 56.65 147.94 38.8 49.1 38.8"/>
      <polygon class="cls-3" points="165.52 38.8 147.94 38.8 134.29 56.65 165.52 56.65 165.52 38.8"/>
      <path class="cls-7" d="M684.45,804.84a0.34,0.34,0,0,1-.08.22,0.26,0.26,0,0,1-.21.1,0.28,0.28,0,0,1-.2-0.09l-3.57-3.57a3.26,3.26,0,0,1-1,.55,3.19,3.19,0,0,1-2.7-.25,3.28,3.28,0,0,1-1.15-1.15,3.19,3.19,0,0,1,0-3.23,3.28,3.28,0,0,1,1.15-1.15,3.19,3.19,0,0,1,3.23,0,3.28,3.28,0,0,1,1.15,1.15,3.2,3.2,0,0,1,.25,2.7,3.26,3.26,0,0,1-.55,1l0.26,0.26,0.46,0.45,0.59,0.58,0.65,0.64,0.63,0.63,0.54,0.56,0.38,0.42A0.64,0.64,0,0,1,684.45,804.84Zm-6.11-3.17a2.54,2.54,0,0,0,1-.21,2.64,2.64,0,0,0,1.39-1.39,2.61,2.61,0,0,0,0-2,2.64,2.64,0,0,0-1.39-1.39,2.61,2.61,0,0,0-2,0,2.64,2.64,0,0,0-1.39,1.39,2.61,2.61,0,0,0,0,2,2.64,2.64,0,0,0,1.39,1.39A2.54,2.54,0,0,0,678.34,801.67Z" transform="translate(-619.96 -752.1)"/>
      <rect class="cls-4" x="70.97" y="45.46" width="33.64" height="4.54"/>
    </g>
  </g>
  <g>
    <rect class="cls-1" x="3" y="8.96" width="40" height="40"/>
    <g>
      <path class="cls-3" d="M650.77,768.58a3,3,0,0,1-3.49,4.56l-19.82,25.92H660v-40h-1.91Zm-11,25.71a3,3,0,1,1,3-3A3,3,0,0,1,639.74,794.29Zm10.78-4.48a3,3,0,1,1,0-4.24A3,3,0,0,1,650.52,789.81ZM655,779v0a3,3,0,0,1-6,0v0a3,3,0,0,1,6,0v0Z" transform="translate(-619.96 -752.1)"/>
      <path class="cls-2" d="M646.25,772.47a3,3,0,1,1,4.53-3.89l7.28-9.52H620v40h7.51l19.82-25.92A2.94,2.94,0,0,1,646.25,772.47Zm-17.33-4.19a3,3,0,1,1,0,4.24A3,3,0,0,1,628.92,768.28Zm-4.44,10.79a3,3,0,1,1,3,3A3,3,0,0,1,624.48,779.07Zm8.72,10.76a3,3,0,0,1-2.12.88A3,3,0,1,1,633.2,789.83Zm6.5-20h0a3,3,0,1,1,3-3,3,3,0,0,1-3,3Z" transform="translate(-619.96 -752.1)"/>
      <path class="cls-6" d="M629,785.59a3,3,0,0,0,2.12,5.12,3,3,0,0,0,2.12-.88A3,3,0,0,0,629,785.59Z" transform="translate(-619.96 -752.1)"/>
      <path class="cls-7" d="M629,785.59a3,3,0,0,0,2.12,5.12,3,3,0,0,0,2.12-.88A3,3,0,0,0,629,785.59Z" transform="translate(-619.96 -752.1)"/>
      <path class="cls-7" d="M639.68,763.79a3,3,0,0,0,0,6h0A3,3,0,0,0,639.68,763.79Z" transform="translate(-619.96 -752.1)"/>
      <path class="cls-6" d="M631,773.4a3,3,0,1,0-2.11-.88A3,3,0,0,0,631,773.4Z" transform="translate(-619.96 -752.1)"/>
      <path class="cls-7" d="M631,773.4a3,3,0,1,0-2.11-.88A3,3,0,0,0,631,773.4Z" transform="translate(-619.96 -752.1)"/>
      <path class="cls-6" d="M630.48,779.06a3,3,0,1,0-3,3A3,3,0,0,0,630.48,779.06Z" transform="translate(-619.96 -752.1)"/>
      <path class="cls-7" d="M630.48,779.06a3,3,0,1,0-3,3A3,3,0,0,0,630.48,779.06Z" transform="translate(-619.96 -752.1)"/>
      <path class="cls-6" d="M648.36,773.34a3,3,0,0,0,2.42-4.76l-3.49,4.56A3,3,0,0,0,648.36,773.34Z" transform="translate(-619.96 -752.1)"/>
      <path class="cls-7" d="M648.36,773.34a3,3,0,0,0,2.42-4.76l-3.49,4.56A3,3,0,0,0,648.36,773.34Z" transform="translate(-619.96 -752.1)"/>
      <path class="cls-6" d="M646.23,768.23a3,3,0,0,0,0,4.24,2.94,2.94,0,0,0,1,.67l3.49-4.56A2.94,2.94,0,0,0,646.23,768.23Z" transform="translate(-619.96 -752.1)"/>
      <path class="cls-7" d="M646.23,768.23a3,3,0,0,0,0,4.24,2.94,2.94,0,0,0,1,.67l3.49-4.56A2.94,2.94,0,0,0,646.23,768.23Z" transform="translate(-619.96 -752.1)"/>
      <path class="cls-6" d="M652,776a3,3,0,0,0-3,3v0a3,3,0,0,0,6,0V779A3,3,0,0,0,652,776Z" transform="translate(-619.96 -752.1)"/>
      <path class="cls-7" d="M652,776a3,3,0,0,0-3,3v0a3,3,0,0,0,6,0V779A3,3,0,0,0,652,776Z" transform="translate(-619.96 -752.1)"/>
      <path class="cls-6" d="M639.74,788.29a3,3,0,1,0,3,3A3,3,0,0,0,639.74,788.29Z" transform="translate(-619.96 -752.1)"/>
      <path class="cls-7" d="M639.74,788.29a3,3,0,1,0,3,3A3,3,0,0,0,639.74,788.29Z" transform="translate(-619.96 -752.1)"/>
      <path class="cls-6" d="M646.27,785.57a3,3,0,1,0,4.25,0A3,3,0,0,0,646.27,785.57Z" transform="translate(-619.96 -752.1)"/>
      <path class="cls-7" d="M646.27,785.57a3,3,0,1,0,4.25,0A3,3,0,0,0,646.27,785.57Z" transform="translate(-619.96 -752.1)"/>
    </g>
  </g>
</svg>
