<svg id="Layer_1" data-name="Layer 1" xmlns="http://www.w3.org/2000/svg" width="257.33" height="257.33" viewBox="0 0 257.33 257.33">
  <defs>
    <style>
      .cls-1 {
        fill: #ff6767;
      }

      .cls-2 {
        fill: #bf4d4d;
      }

      .cls-3 {
        fill: #ffef6f;
      }

      .cls-4 {
        fill: #eecc48;
      }

      .cls-5 {
        fill: #5c5c5c;
      }

      .cls-6 {
        fill: #333;
      }

      .cls-7 {
        fill: #613d30;
      }

      .cls-8 {
        fill: #e6e7e8;
      }

      .cls-9 {
        fill: #4d291c;
      }

      .cls-10 {
        fill: #31d2f7;
      }

      .cls-11 {
        fill: #754a3c;
      }

      .cls-12 {
        fill: #3a1f15;
      }

      .cls-13 {
        fill: #bcbec0;
      }

      .cls-14 {
        fill: #939598;
      }

      .cls-15 {
        fill: #00bcf2;
      }

      .cls-16 {
        fill: #fff;
      }

      .cls-17 {
        fill: #b1adab;
      }

      .cls-18 {
        fill: #d8b094;
      }

      .cls-19 {
        fill: #3b534d;
      }

      .cls-20 {
        fill: #858280;
      }

      .cls-21 {
        fill: #bb9167;
      }
    </style>
  </defs>
  <title>diagram-core</title>
  <circle class="cls-1" cx="128.67" cy="128.67" r="128.67"/>
  <path class="cls-2" d="M215.22,845.31a17,17,0,1,0,6.68,13.49A16.9,16.9,0,0,0,215.22,845.31Z" transform="translate(-30 -681.56)"/>
  <path class="cls-2" d="M257.33,845.31A17,17,0,1,0,264,858.8,16.9,16.9,0,0,0,257.33,845.31Z" transform="translate(-30 -681.56)"/>
  <path class="cls-2" d="M244.67,762.63l-5.12-14.41H217.4l-30.19,82.93h20.24l5.84-18.45h29.49l5.9,18.45H269Zm-27.32,35.73h-0.07l10.65-33.11,4.34,13.6,6.24,19.51H217.35Z" transform="translate(-30 -681.56)"/>
  <rect class="cls-2" x="110.5" y="66.48" width="37" height="37"/>
  <rect class="cls-2" x="110.5" y="112.62" width="37" height="37"/>
  <rect class="cls-2" x="110.5" y="158.72" width="37" height="37"/>
  <path class="cls-2" d="M123.77,748H100.62a2.77,2.77,0,0,0-2.77,2.77v2.77h0V755h0v5H97.79v1.39h0.06v5.05H97.79v1.39h0.06v5.05H97.79l0.06,1.45h0v5.05h0v1.39h0v5.05h0l-0.06,1.32h0.06v5.12h0l-0.06,1.32h0.06v5.05H97.79V800h0.06v5.12h0v1.39h0v5.05h0v1.39h0V818h0v1.39h0v5.05h0v1.39h0v5.05h0v1.39h0v5.05h0v1.39h0v5.05h0v1.39h0v5.05h0v1.39h0v5.05h0V858h0v16.55a2.77,2.77,0,0,0,2.77,2.77h23.14a2.77,2.77,0,0,0,2.77-2.77V750.81A2.77,2.77,0,0,0,123.77,748ZM112.19,871.62a4.39,4.39,0,1,1,4.39-4.39A4.39,4.39,0,0,1,112.19,871.62Z" transform="translate(-30 -681.56)"/>
  <g>
    <path class="cls-3" d="M97.59,746a2.77,2.77,0,0,0-2.77,2.77V872.55a2.77,2.77,0,0,0,2.77,2.77h19.57V746H97.59Zm11.57,123.58a4.39,4.39,0,1,1,4.39-4.39A4.39,4.39,0,0,1,109.16,869.62Z" transform="translate(-30 -681.56)"/>
    <path class="cls-4" d="M120.73,746h-3.58V875.32h3.58a2.77,2.77,0,0,0,2.77-2.77V748.81A2.77,2.77,0,0,0,120.73,746Z" transform="translate(-30 -681.56)"/>
    <g>
      <path class="cls-4" d="M107.23,753a0.69,0.69,0,1,0,0-1.39H94.82V753h12.41Z" transform="translate(-30 -681.56)"/>
      <path class="cls-4" d="M103,759.34a0.69,0.69,0,1,0,0-1.39H94.76v1.39H103Z" transform="translate(-30 -681.56)"/>
      <path class="cls-4" d="M103,765.78a0.69,0.69,0,1,0,0-1.39H94.76v1.39H103Z" transform="translate(-30 -681.56)"/>
      <path class="cls-4" d="M103.07,772.28a0.69,0.69,0,0,0,.69-0.69,0.8,0.8,0,0,0-.76-0.76H94.76l0.06,1.45h8.25Z" transform="translate(-30 -681.56)"/>
      <path class="cls-4" d="M107.23,778.72a0.69,0.69,0,1,0,0-1.39H94.82v1.39h12.41Z" transform="translate(-30 -681.56)"/>
      <path class="cls-4" d="M103,785.1a0.63,0.63,0,0,0,.76-0.63,0.69,0.69,0,0,0-.69-0.69H94.82l-0.06,1.32H103Z" transform="translate(-30 -681.56)"/>
      <path class="cls-4" d="M103,791.54a0.63,0.63,0,0,0,.76-0.63,0.69,0.69,0,0,0-.69-0.69H94.82l-0.06,1.32H103Z" transform="translate(-30 -681.56)"/>
      <path class="cls-4" d="M103,798a0.69,0.69,0,1,0,0-1.39H94.76V798H103Z" transform="translate(-30 -681.56)"/>
      <path class="cls-4" d="M107.23,804.48a0.69,0.69,0,1,0,0-1.39H94.82v1.39h12.41Z" transform="translate(-30 -681.56)"/>
      <path class="cls-4" d="M103.07,810.92a0.69,0.69,0,1,0,0-1.39H94.82v1.39h8.25Z" transform="translate(-30 -681.56)"/>
      <path class="cls-4" d="M103.07,817.36a0.69,0.69,0,1,0,0-1.39H94.82v1.39h8.25Z" transform="translate(-30 -681.56)"/>
      <path class="cls-4" d="M103.07,823.8a0.69,0.69,0,1,0,0-1.39H94.82v1.39h8.25Z" transform="translate(-30 -681.56)"/>
      <path class="cls-4" d="M107.23,830.24a0.69,0.69,0,1,0,0-1.39H94.82v1.39h12.41Z" transform="translate(-30 -681.56)"/>
      <path class="cls-4" d="M103.07,836.68a0.69,0.69,0,1,0,0-1.39H94.82v1.39h8.25Z" transform="translate(-30 -681.56)"/>
      <path class="cls-4" d="M103.07,843.12a0.69,0.69,0,1,0,0-1.39H94.82v1.39h8.25Z" transform="translate(-30 -681.56)"/>
      <path class="cls-4" d="M103.07,849.56a0.69,0.69,0,1,0,0-1.39H94.82v1.39h8.25Z" transform="translate(-30 -681.56)"/>
      <path class="cls-4" d="M107.23,856a0.69,0.69,0,1,0,0-1.39H94.82V856h12.41Z" transform="translate(-30 -681.56)"/>
    </g>
  </g>
  <g>
    <polygon class="cls-5" points="199.27 95.29 211.67 79.07 206.54 64.66 184.4 64.66 154.21 147.6 159.27 147.6 184.35 114.8 184.28 114.8 194.93 81.69 199.27 95.29"/>
    <polygon class="cls-6" points="211.67 79.07 199.27 95.29 205.5 114.8 184.35 114.8 159.27 147.6 174.45 147.6 180.29 129.15 209.78 129.15 215.68 147.6 236.04 147.6 211.67 79.07"/>
  </g>
  <g>
    <path class="cls-2" d="M58.07,769.79a17.61,17.61,0,0,0-.42,3.7,14.33,14.33,0,0,0,6.14,11.76h0V788h0v0.52h0A25.12,25.12,0,0,0,61,796a60,60,0,0,0-1.41,13.63c0,13,7.12,54.11,9.23,65.8A3.14,3.14,0,0,0,71.94,878h0.18a3.14,3.14,0,0,0,3.09-2.58c2.11-11.7,9.23-52.76,9.23-65.8A60,60,0,0,0,83,796H83v0H83c-0.09-.37-0.18-0.7-0.27-1-0.24-.91-0.48-1.74-0.72-2.45-0.13-.37-0.25-0.72-0.37-1A20.59,20.59,0,0,0,80.58,789c-0.18-.33-0.29-0.51-0.3-0.52v-3.27H80.22a14.33,14.33,0,0,0,6.14-11.76,16.8,16.8,0,0,0-.21-2.56h0C84.4,759.62,72,748,72,748s-11.58,10.82-13.93,21.76" transform="translate(-30 -681.56)"/>
    <g>
      <g>
        <path class="cls-7" d="M57.91,794a60,60,0,0,0-1.41,13.63c0,13,7.12,54.11,9.23,65.8A3.14,3.14,0,0,0,68.82,876h0.12A3.14,3.14,0,0,0,72,873.45c2.11-11.7,9.23-52.76,9.23-65.8A60,60,0,0,0,79.84,794H57.91Z" transform="translate(-30 -681.56)"/>
        <path class="cls-8" d="M77.1,786.53H60.65A25.07,25.07,0,0,0,57.91,794H79.84A25.07,25.07,0,0,0,77.1,786.53Z" transform="translate(-30 -681.56)"/>
      </g>
      <path class="cls-9" d="M79.91,794H75.3a37.48,37.48,0,0,1,1.87,13.37C75.93,833.83,68.88,876,68.88,876H69a3.14,3.14,0,0,0,3.09-2.58c2.11-11.7,9.23-52.76,9.23-65.8A60,60,0,0,0,79.91,794Z" transform="translate(-30 -681.56)"/>
      <g>
        <path class="cls-5" d="M80.37,770.72a2.87,2.87,0,0,1-2.87-2.87v-7.06h0a2.87,2.87,0,0,0-5.74,0h0v3h0a2.87,2.87,0,0,1-5.74,0h0V763h0a2.87,2.87,0,0,0-5.74,0h0v3.36h0a2.86,2.86,0,0,1-5.32,1.48,17.61,17.61,0,0,0-.42,3.7,14.36,14.36,0,0,0,28.71,0,16.81,16.81,0,0,0-.21-2.57A2.87,2.87,0,0,1,80.37,770.72Z" transform="translate(-30 -681.56)"/>
        <path class="cls-6" d="M80.37,770.72a2.87,2.87,0,0,1-2.87-2.87s0.22,11.84-8.61,18A14.36,14.36,0,0,0,83.24,771.5a16.81,16.81,0,0,0-.21-2.57A2.87,2.87,0,0,1,80.37,770.72Z" transform="translate(-30 -681.56)"/>
        <path class="cls-10" d="M68.9,746S57.32,756.86,55,767.79a2.86,2.86,0,0,0,5.32-1.48h0V763h0A2.87,2.87,0,0,1,66,763h0v0.87h0a2.87,2.87,0,1,0,5.74,0h0v-3h0a2.87,2.87,0,0,1,5.74,0h0v7.06A2.87,2.87,0,0,0,83,768.92C81.29,757.62,68.9,746,68.9,746Z" transform="translate(-30 -681.56)"/>
      </g>
      <rect class="cls-8" x="30.65" y="101.7" width="16.45" height="3.27"/>
      <g>
        <path class="cls-11" d="M59.19,812.42a0.69,0.69,0,0,0,1.39,0V794H59.19v18.4Z" transform="translate(-30 -681.56)"/>
        <path class="cls-11" d="M59.88,821.3a0.69,0.69,0,0,0-.69.69v11.38c0.44,3.06.91,6.18,1.39,9.27V822A0.69,0.69,0,0,0,59.88,821.3Z" transform="translate(-30 -681.56)"/>
        <path class="cls-11" d="M64.38,805.7a0.69,0.69,0,0,0-.69.69v41.68a0.69,0.69,0,1,0,1.39,0V806.4A0.69,0.69,0,0,0,64.38,805.7Z" transform="translate(-30 -681.56)"/>
        <path class="cls-11" d="M64.38,853.47a0.69,0.69,0,0,0-.69.69v7.61c0.52,3,1,5.74,1.39,8v-15.6A0.69,0.69,0,0,0,64.38,853.47Z" transform="translate(-30 -681.56)"/>
        <path class="cls-11" d="M63.69,800.73a0.69,0.69,0,1,0,1.39,0V794H63.69v6.7Z" transform="translate(-30 -681.56)"/>
        <path class="cls-11" d="M71.82,826.35a0.69,0.69,0,0,0,1.39,0V794H71.82v32.33Z" transform="translate(-30 -681.56)"/>
        <path class="cls-12" d="M72.51,860.27a0.69,0.69,0,0,0-.69.69v13.19a3.11,3.11,0,0,0,.22-0.7c0.3-1.65.7-3.91,1.16-6.57V861A0.69,0.69,0,0,0,72.51,860.27Z" transform="translate(-30 -681.56)"/>
        <path class="cls-12" d="M77.86,804.79a0.69,0.69,0,1,0,1.39,0V794H77.86v10.77Z" transform="translate(-30 -681.56)"/>
        <path class="cls-11" d="M68.31,839.59a0.69,0.69,0,0,0-.69.69v22.06a0.69,0.69,0,1,0,1.39,0V840.28A0.69,0.69,0,0,0,68.31,839.59Z" transform="translate(-30 -681.56)"/>
        <path class="cls-11" d="M68.31,822.08a0.69,0.69,0,0,0-.69.69v7.15a0.69,0.69,0,1,0,1.39,0v-7.15A0.69,0.69,0,0,0,68.31,822.08Z" transform="translate(-30 -681.56)"/>
        <path class="cls-11" d="M67.62,817.51a0.69,0.69,0,0,0,1.39,0V794H67.62v23.49Z" transform="translate(-30 -681.56)"/>
        <path class="cls-11" d="M68.31,866.62a0.69,0.69,0,0,0-.69.69v8.47a3.13,3.13,0,0,0,1.21.25H69v-8.72A0.69,0.69,0,0,0,68.31,866.62Z" transform="translate(-30 -681.56)"/>
        <path class="cls-11" d="M72.51,832.61a0.69,0.69,0,0,0-.69.69v7.8a0.69,0.69,0,1,0,1.39,0v-7.8A0.69,0.69,0,0,0,72.51,832.61Z" transform="translate(-30 -681.56)"/>
        <path class="cls-12" d="M79.24,813.8a0.69,0.69,0,1,0-1.39,0v24.5c0.49-3.28,1-6.54,1.39-9.67V813.8Z" transform="translate(-30 -681.56)"/>
      </g>
      <g>
        <path class="cls-13" d="M79.57,793H58.18c-0.09.34-.18,0.67-0.27,1H79.84C79.75,793.63,79.66,793.3,79.57,793Z" transform="translate(-30 -681.56)"/>
        <path class="cls-13" d="M78.85,790.51c-0.13-.37-0.25-0.72-0.37-1H59.28c-0.12.32-.24,0.67-0.37,1H78.85Z" transform="translate(-30 -681.56)"/>
        <path class="cls-13" d="M77.4,787c-0.18-.33-0.29-0.51-0.3-0.52V786H60.65v0.52s-0.11.18-.3,0.52h17Zm-5.57-.52h0Z" transform="translate(-30 -681.56)"/>
      </g>
      <path class="cls-13" d="M77.46,787H72.21c0.29,0.48.74,1.31,1.27,2.42h5.06A20.6,20.6,0,0,0,77.46,787Z" transform="translate(-30 -681.56)"/>
      <path class="cls-13" d="M78.91,790.51H74c0.32,0.73.65,1.55,1,2.45h4.71C79.4,792,79.15,791.22,78.91,790.51Z" transform="translate(-30 -681.56)"/>
      <rect class="cls-13" x="41.89" y="101.7" width="5.27" height="2.75"/>
      <path class="cls-14" d="M79.63,793H74.93c0.12,0.34.24,0.68,0.36,1H79.9C79.81,793.63,79.72,793.3,79.63,793Z" transform="translate(-30 -681.56)"/>
      <path class="cls-14" d="M78.54,789.47H73.49q0.23,0.48.47,1h5C78.79,790.14,78.66,789.79,78.54,789.47Z" transform="translate(-30 -681.56)"/>
      <path class="cls-14" d="M77.17,786.53V786H71.89v0.52h0s0.12,0.19.32,0.52h5.25C77.28,786.71,77.17,786.54,77.17,786.53Z" transform="translate(-30 -681.56)"/>
    </g>
    <path class="cls-15" d="M68.9,746l0,0a37.9,37.9,0,0,1,7,12.12,2.86,2.86,0,0,1,1.64,2.59h0v7.06A2.87,2.87,0,0,0,83,768.92C81.29,757.62,68.9,746,68.9,746Z" transform="translate(-30 -681.56)"/>
  </g>
  <rect class="cls-10" x="107.5" y="64.48" width="37" height="37"/>
  <rect class="cls-16" x="107.5" y="90.29" width="37" height="11.18"/>
  <rect class="cls-17" x="110.76" y="94.21" width="15.04" height="3.34"/>
  <rect class="cls-3" x="107.5" y="110.6" width="37" height="37"/>
  <rect class="cls-16" x="107.5" y="136.41" width="37" height="11.18"/>
  <rect class="cls-17" x="110.76" y="140.33" width="15.04" height="3.34"/>
  <rect class="cls-18" x="107.28" y="156.72" width="37" height="37"/>
  <rect class="cls-16" x="107.28" y="182.53" width="37" height="11.18"/>
  <rect class="cls-17" x="110.55" y="186.45" width="15.04" height="3.34"/>
  <path class="cls-16" d="M206.28,849.26a8.41,8.41,0,0,0-1.57-.73,8.31,8.31,0,0,1,.63,1,10.63,10.63,0,0,1,.5,1.13c0.08,0.2.13,0.41,0.2,0.62l1.11-1.45A9.12,9.12,0,0,0,206.28,849.26Z" transform="translate(-30 -681.56)"/>
  <path class="cls-16" d="M205.1,852.54l-0.38.5h0.5C205.18,852.9,205.14,852.73,205.1,852.54Z" transform="translate(-30 -681.56)"/>
  <path class="cls-8" d="M199.06,862.52a11.36,11.36,0,0,0,.49,1.1,5.48,5.48,0,0,0,.63,1,3.24,3.24,0,0,0,.77.69,1.65,1.65,0,0,0,1.79,0,3.24,3.24,0,0,0,.77-0.69,5.48,5.48,0,0,0,.63-1,11.36,11.36,0,0,0,.49-1.1q0.21-.56.36-1.07t0.22-.9H199l-0.38.5,0.11,0.4Q198.85,862,199.06,862.52Z" transform="translate(-30 -681.56)"/>
  <path class="cls-8" d="M205.55,858.05q0-.62,0-1.25t0-1.25q0-.62-0.12-1.25h-1.67l-3.82,5h5.5Q205.51,858.67,205.55,858.05Z" transform="translate(-30 -681.56)"/>
  <path class="cls-16" d="M197.47,861.73q-0.16-.6-0.27-1.18h-3.25a8.34,8.34,0,0,0,.9,1.49,8.89,8.89,0,0,0,1.17,1.27c0.17,0.15.35,0.29,0.52,0.43l1.11-1.45C197.59,862.1,197.52,861.92,197.47,861.73Z" transform="translate(-30 -681.56)"/>
  <path class="cls-16" d="M198.48,860.55c0,0.15.07,0.32,0.12,0.5l0.38-.5h-0.5Z" transform="translate(-30 -681.56)"/>
  <path class="cls-8" d="M199,865.07a8.3,8.3,0,0,1-.63-1,10.62,10.62,0,0,1-.5-1.13c-0.08-.2-0.13-0.41-0.2-0.62l-1.11,1.45a9.11,9.11,0,0,0,.87.6A8.41,8.41,0,0,0,199,865.07Z" transform="translate(-30 -681.56)"/>
  <path class="cls-16" d="M205,852.15q-0.15-.52-0.36-1.07a11.36,11.36,0,0,0-.49-1.1,5.48,5.48,0,0,0-.63-1,3.24,3.24,0,0,0-.77-0.69,1.65,1.65,0,0,0-1.79,0,3.24,3.24,0,0,0-.77.69,5.48,5.48,0,0,0-.63,1,11.36,11.36,0,0,0-.49,1.1q-0.21.56-.36,1.07t-0.22.9h6.24l0.38-.5Z" transform="translate(-30 -681.56)"/>
  <path class="cls-16" d="M198.26,854.3q-0.08.63-.12,1.25t0,1.25q0,0.63,0,1.25t0.12,1.25h1.67l3.82-5h-5.5Z" transform="translate(-30 -681.56)"/>
  <path class="cls-8" d="M206.49,853h3.25a8.35,8.35,0,0,0-.9-1.49,8.9,8.9,0,0,0-1.17-1.27c-0.17-.15-0.35-0.29-0.52-0.43L206,851.31c0.06,0.19.13,0.37,0.18,0.56Q206.38,852.46,206.49,853Z" transform="translate(-30 -681.56)"/>
  <path class="cls-16" d="M194.77,863.87a9.93,9.93,0,0,1-1.56-2,10.13,10.13,0,0,1-1-2.39,10.09,10.09,0,0,1,0-5.32,10.11,10.11,0,0,1,1-2.39,10,10,0,0,1,3.59-3.59,10.14,10.14,0,0,1,2.39-1,10.09,10.09,0,0,1,5.32,0,10.12,10.12,0,0,1,2.39,1,9.94,9.94,0,0,1,1,.69l4.24-5.54a17,17,0,1,0-20.63,27l4.24-5.54A10,10,0,0,1,194.77,863.87Z" transform="translate(-30 -681.56)"/>
  <path class="cls-16" d="M196,850.28a8.9,8.9,0,0,0-1.17,1.27,8.35,8.35,0,0,0-.9,1.49h3.25q0.12-.59.27-1.18a11.77,11.77,0,0,1,.38-1.18,10.63,10.63,0,0,1,.5-1.13,8.31,8.31,0,0,1,.63-1,8.41,8.41,0,0,0-1.57.73A9.07,9.07,0,0,0,196,850.28Z" transform="translate(-30 -681.56)"/>
  <path class="cls-8" d="M212.16,843.31l-4.24,5.54a9.89,9.89,0,0,1,2.56,2.9,10.11,10.11,0,0,1,1,2.39,10.08,10.08,0,0,1,0,5.31,10.11,10.11,0,0,1-1,2.39,10,10,0,0,1-3.59,3.59,10.11,10.11,0,0,1-2.39,1,10.08,10.08,0,0,1-5.31,0,10.11,10.11,0,0,1-2.39-1,9.94,9.94,0,0,1-1-.69l-4.24,5.54A17,17,0,1,0,212.16,843.31Z" transform="translate(-30 -681.56)"/>
  <path class="cls-16" d="M197,854.3h-3.54a8.83,8.83,0,0,0,0,5H197q-0.08-.62-0.12-1.25t0-1.25q0-.63,0-1.25T197,854.3Z" transform="translate(-30 -681.56)"/>
  <path class="cls-8" d="M206.81,855.54q0,0.62,0,1.25t0,1.25q0,0.62-.12,1.25h3.54a8.83,8.83,0,0,0,0-5h-3.54Q206.77,854.92,206.81,855.54Z" transform="translate(-30 -681.56)"/>
  <path class="cls-8" d="M206.22,861.73a11.76,11.76,0,0,1-.38,1.18,10.62,10.62,0,0,1-.5,1.13,8.3,8.3,0,0,1-.63,1,8.41,8.41,0,0,0,1.57-.73,9.06,9.06,0,0,0,1.4-1,8.89,8.89,0,0,0,1.17-1.27,8.34,8.34,0,0,0,.9-1.49h-3.25Q206.38,861.13,206.22,861.73Z" transform="translate(-30 -681.56)"/>
  <path class="cls-6" d="M207.67,850.28a8.9,8.9,0,0,1,1.17,1.27,8.35,8.35,0,0,1,.9,1.49h-3.25q-0.12-.59-0.27-1.18c0-.19-0.12-0.37-0.18-0.56l-0.95,1.24c0,0.18.09,0.35,0.12,0.5h-0.5l-1,1.25h1.67q0.08,0.63.12,1.25t0,1.25q0,0.63,0,1.25t-0.12,1.25h-5.5l-1,1.25h6.24q-0.08.38-.22,0.9t-0.36,1.07a11.36,11.36,0,0,1-.49,1.1,5.48,5.48,0,0,1-.63,1,3.24,3.24,0,0,1-.77.69,1.65,1.65,0,0,1-1.79,0,3.24,3.24,0,0,1-.77-0.69,5.48,5.48,0,0,1-.63-1,11.36,11.36,0,0,1-.49-1.1q-0.21-.56-0.36-1.07l-0.11-.4-0.95,1.24c0.07,0.21.12,0.42,0.2,0.62a10.62,10.62,0,0,0,.5,1.13,8.3,8.3,0,0,0,.63,1,8.41,8.41,0,0,1-1.57-.73,9.11,9.11,0,0,1-.87-0.6l-0.77,1a9.94,9.94,0,0,0,1,.69,10.11,10.11,0,0,0,2.39,1,10.08,10.08,0,0,0,5.31,0,10.11,10.11,0,0,0,2.39-1,10,10,0,0,0,3.59-3.59,10.11,10.11,0,0,0,1-2.39,10.08,10.08,0,0,0,0-5.31,10.11,10.11,0,0,0-1-2.39,9.89,9.89,0,0,0-2.56-2.9l-0.77,1C207.33,850,207.51,850.13,207.67,850.28ZM208.85,862a8.89,8.89,0,0,1-1.17,1.27,9.06,9.06,0,0,1-1.4,1,8.41,8.41,0,0,1-1.57.73,8.3,8.3,0,0,0,.63-1,10.62,10.62,0,0,0,.5-1.13,11.76,11.76,0,0,0,.38-1.18q0.16-.6.27-1.18h3.25A8.34,8.34,0,0,1,208.85,862Zm1.75-5.24a8.63,8.63,0,0,1-.36,2.5h-3.54q0.08-.62.12-1.25t0-1.25q0-.63,0-1.25t-0.12-1.25h3.54A8.63,8.63,0,0,1,210.59,856.8Z" transform="translate(-30 -681.56)"/>
  <path class="cls-19" d="M204.5,847.15a10.09,10.09,0,0,0-5.32,0,10.14,10.14,0,0,0-2.39,1,10,10,0,0,0-3.59,3.59,10.11,10.11,0,0,0-1,2.39,10.09,10.09,0,0,0,0,5.32,10.13,10.13,0,0,0,1,2.39,9.89,9.89,0,0,0,2.56,2.9l0.77-1c-0.18-.14-0.36-0.28-0.52-0.43a8.89,8.89,0,0,1-1.17-1.27,8.34,8.34,0,0,1-.9-1.49h3.25q0.12,0.59.27,1.18c0,0.19.12,0.37,0.18,0.56l0.95-1.24c0-.18-0.09-0.35-0.12-0.5H199l1-1.25h-1.67q-0.08-.62-0.12-1.25t0-1.25q0-.63,0-1.25t0.12-1.25h5.5l1-1.25h-6.24q0.08-.38.22-0.9t0.36-1.07a11.36,11.36,0,0,1,.49-1.1,5.48,5.48,0,0,1,.63-1,3.24,3.24,0,0,1,.77-0.69,1.65,1.65,0,0,1,1.79,0,3.24,3.24,0,0,1,.77.69,5.48,5.48,0,0,1,.63,1,11.36,11.36,0,0,1,.49,1.1q0.21,0.56.36,1.07l0.11,0.4,0.95-1.24c-0.07-.21-0.12-0.42-0.2-0.62a10.63,10.63,0,0,0-.5-1.13,8.31,8.31,0,0,0-.63-1,8.41,8.41,0,0,1,1.57.73,9.12,9.12,0,0,1,.87.6l0.77-1a9.94,9.94,0,0,0-1-.69A10.12,10.12,0,0,0,204.5,847.15Zm-7.62,10.9q0,0.62.12,1.25h-3.54a8.83,8.83,0,0,1,0-5H197q-0.08.63-.12,1.25t0,1.25Q196.84,857.43,196.88,858.05Zm1.46-8.49a10.63,10.63,0,0,0-.5,1.13,11.77,11.77,0,0,0-.38,1.18q-0.16.6-.27,1.18h-3.25a8.35,8.35,0,0,1,.9-1.49,8.9,8.9,0,0,1,1.17-1.27,9.07,9.07,0,0,1,1.4-1,8.41,8.41,0,0,1,1.57-.73A8.31,8.31,0,0,0,198.35,849.56Z" transform="translate(-30 -681.56)"/>
  <path class="cls-16" d="M242.47,858.33l-3.11-6.22,6,3,4-5.19a8.65,8.65,0,0,0-.72-0.51,8.8,8.8,0,0,0-1.84-.86,8.49,8.49,0,0,0-2-.41v1.31h-1.33v-1.31a8.49,8.49,0,0,0-2,.41,8.8,8.8,0,0,0-1.84.86,8.73,8.73,0,0,0-2.83,2.83,8.8,8.8,0,0,0-.86,1.84,8.49,8.49,0,0,0-.41,2h1.31v1.33h-1.31a8.49,8.49,0,0,0,.41,2,8.8,8.8,0,0,0,.86,1.84,8.45,8.45,0,0,0,2.13,2.34l4-5.19Z" transform="translate(-30 -681.56)"/>
  <polygon class="cls-8" points="214.76 174.48 214.65 174.42 213.42 176.03 216.23 177.42 214.76 174.48"/>
  <path class="cls-8" d="M241.31,865a8.49,8.49,0,0,0,2,.41v-1.31h1.33v1.31a8.49,8.49,0,0,0,2-.41,8.8,8.8,0,0,0,1.84-.86,8.73,8.73,0,0,0,2.83-2.83,8.8,8.8,0,0,0,.86-1.84,8.49,8.49,0,0,0,.41-2h-1.31v-1.33h1.31a8.49,8.49,0,0,0-.41-2,8.8,8.8,0,0,0-.86-1.84,8.49,8.49,0,0,0-2.11-2.32l-4,5.19,0.25,0.13,3.11,6.22-5.94-3-4,5.19c0.23,0.17.46,0.34,0.7,0.49A8.8,8.8,0,0,0,241.31,865Z" transform="translate(-30 -681.56)"/>
  <polygon class="cls-16" points="211.81 173.01 213.28 175.96 213.42 176.03 214.65 174.42 211.81 173.01"/>
  <path class="cls-16" d="M236.94,863.85a10,10,0,0,1,13.17-15l4.23-5.53a17,17,0,1,0-20.63,27l4.25-5.56A10,10,0,0,1,236.94,863.85Z" transform="translate(-30 -681.56)"/>
  <path class="cls-8" d="M254.33,843.31l-4.23,5.53A10,10,0,1,1,238,864.73l-4.25,5.56A17,17,0,1,0,254.33,843.31Z" transform="translate(-30 -681.56)"/>
  <polygon points="214.76 174.48 216.23 177.42 213.42 176.03 212.74 176.91 218.69 179.88 215.57 173.66 215.32 173.54 214.65 174.42 214.76 174.48"/>
  <polygon class="cls-19" points="212.47 176.77 212.74 176.91 213.42 176.03 213.28 175.96 211.81 173.01 214.65 174.42 215.32 173.54 209.35 170.55 212.47 176.77"/>
  <path class="cls-6" d="M250.14,850.65a8.67,8.67,0,0,1,1.25,1.58,8.8,8.8,0,0,1,.86,1.84,8.49,8.49,0,0,1,.41,2h-1.31v1.33h1.31a8.49,8.49,0,0,1-.41,2,8.8,8.8,0,0,1-.86,1.84,8.73,8.73,0,0,1-2.83,2.83,8.8,8.8,0,0,1-1.84.86,8.49,8.49,0,0,1-2,.41v-1.31h-1.33v1.31a8.49,8.49,0,0,1-2-.41,8.8,8.8,0,0,1-1.84-.86c-0.24-.15-0.47-0.32-0.7-0.49L238,864.73a9.83,9.83,0,0,0,3.41,1.69,10.18,10.18,0,0,0,5.32,0,10,10,0,0,0,7-7,10.18,10.18,0,0,0,0-5.32,9.94,9.94,0,0,0-3.56-5.28l-0.82,1.07A8.72,8.72,0,0,1,250.14,850.65Z" transform="translate(-30 -681.56)"/>
  <path class="cls-19" d="M246.68,847.13a10.18,10.18,0,0,0-5.32,0,10,10,0,0,0-7,7,10.18,10.18,0,0,0,0,5.32,9.91,9.91,0,0,0,3.58,5.3l0.82-1.07a8.45,8.45,0,0,1-2.13-2.34,8.8,8.8,0,0,1-.86-1.84,8.49,8.49,0,0,1-.41-2h1.31v-1.33h-1.31a8.49,8.49,0,0,1,.41-2,8.8,8.8,0,0,1,.86-1.84,8.73,8.73,0,0,1,2.83-2.83,8.8,8.8,0,0,1,1.84-.86,8.49,8.49,0,0,1,2-.41v1.31h1.33v-1.31a8.49,8.49,0,0,1,2,.41,8.8,8.8,0,0,1,1.84.86,8.65,8.65,0,0,1,.72.51l0.82-1.07A9.91,9.91,0,0,0,246.68,847.13Z" transform="translate(-30 -681.56)"/>
  <g>
    <polygon class="cls-15" points="125.03 90.29 144.5 90.29 144.5 64.84 125.03 90.29"/>
    <polygon class="cls-8" points="122.03 94.21 125.8 94.21 125.8 97.56 119.48 97.56 116.48 101.48 144.5 101.48 144.5 90.29 125.03 90.29 122.03 94.21"/>
    <polygon class="cls-20" points="125.8 97.56 125.8 94.21 122.03 94.21 119.48 97.56 125.8 97.56"/>
  </g>
  <g>
    <polygon class="cls-4" points="125.03 136.41 144.5 136.41 144.5 110.96 125.03 136.41"/>
    <polygon class="cls-8" points="122.03 140.33 125.8 140.33 125.8 143.68 119.48 143.68 116.48 147.6 144.5 147.6 144.5 136.41 125.03 136.41 122.03 140.33"/>
    <polygon class="cls-20" points="125.8 143.68 125.8 140.33 122.03 140.33 119.48 143.68 125.8 143.68"/>
  </g>
  <g>
    <polygon class="cls-21" points="125.03 182.53 144.5 182.53 144.5 157.08 125.03 182.53"/>
    <polygon class="cls-8" points="122.03 186.45 125.8 186.45 125.8 189.79 119.48 189.79 116.48 193.72 144.5 193.72 144.5 182.53 125.03 182.53 122.03 186.45"/>
    <polygon class="cls-20" points="125.8 189.79 125.8 186.45 122.03 186.45 119.48 189.79 125.8 189.79"/>
  </g>
</svg>
