<svg id="Layer_4" data-name="Layer 4" xmlns="http://www.w3.org/2000/svg" width="240" height="124" viewBox="0 0 240 124">
  <defs>
    <style>
      .cls-1 {
        fill: #231f20;
        opacity: 0;
      }

      .cls-2 {
        fill: #41286b;
      }

      .cls-3 {
        fill: none;
      }

      .cls-4 {
        fill: #eaeaea;
      }

      .cls-5 {
        fill: #fff;
      }

      .cls-6 {
        fill: #c8c8c8;
      }

      .cls-7 {
        fill: #a7a6a6;
      }

      .cls-8 {
        fill: #e0dedc;
      }

      .cls-9 {
        fill: #3ec1c8;
      }

      .cls-10 {
        fill: #269599;
      }

      .cls-11 {
        fill: #f4f4f4;
      }

      .cls-12 {
        fill: #3dc1c8;
      }
    </style>
  </defs>
  <title>get-started-components</title>
  <rect class="cls-1" width="240" height="124"/>
  <g>
    <polygon class="cls-2" points="231.5 35.86 172.21 35.86 172.21 3.44 171.29 3.44 10.5 3.44 10.5 90.14 70.79 90.14 70.79 122.56 165.21 122.56 232.5 122.56 232.5 35.86 231.5 35.86"/>
    <g>
      <g>
        <rect class="cls-3" x="76.93" y="72.69" width="12.66"/>
        <rect class="cls-3" x="211.55" y="56.02" width="13.56"/>
        <rect class="cls-3" x="184.83" y="90.97" width="35.54"/>
        <rect class="cls-3" x="76.93" y="94.36" width="12.66"/>
        <polygon class="cls-3" points="72.18 56.02 72.18 56.02 191.37 56.02 211.55 56.02 211.55 56.02 72.18 56.02"/>
        <rect class="cls-3" x="76.93" y="116.3" width="12.66"/>
        <rect class="cls-3" x="143.41" y="90.97" width="41.42"/>
        <polygon class="cls-4" points="220.37 44.49 220.37 47.38 218.16 47.38 212.3 55.05 225.12 55.05 225.12 56.02 225.12 56.02 211.55 56.02 205.88 63.45 220.37 63.45 220.37 69.3 204.64 69.3 201.4 69.3 195.73 76.72 225.12 76.72 225.12 76.72 225.12 77.69 213.04 77.69 194.98 77.69 189.3 85.12 220.37 85.12 220.37 90.97 220.37 90.97 184.83 90.97 179.15 98.39 225.12 98.39 225.12 98.39 225.12 99.37 178.41 99.37 172.54 107.04 220.37 107.04 220.37 112.89 168.07 112.89 162.21 120.56 229.5 120.56 229.5 33.86 228.5 33.86 220.37 44.49"/>
        <path class="cls-5" d="M143.41,112.89V107h29.13l5.86-7.67H72.18v-1h107L184.83,91H143.41V85.12H189.3L195,77.69H72.18v-1H195.73l5.68-7.43h-58V63.45h62.47L211.55,56H72.18V55H212.3l5.86-7.67H143.41V41.53h77v3l8.13-10.64H67.79v86.7h94.41l5.86-7.67H143.41ZM76.93,94.36V81.7H89.59V94.36H76.93Zm0-21.67V60H89.59V72.69H76.93Zm0-34.57H89.59V50.78H76.93V38.12ZM89.59,116.3H76.93V103.63H89.59V116.3Z"/>
        <rect class="cls-5" x="78.87" y="40.07" width="8.77" height="8.77"/>
        <rect class="cls-5" x="78.87" y="61.97" width="8.77" height="8.77"/>
        <polygon class="cls-6" points="176.88 41.53 143.41 41.53 143.41 47.38 182.72 47.38 218.16 47.38 220.37 44.49 220.37 41.53 176.88 41.53"/>
        <polygon class="cls-7" points="220.37 47.38 220.37 44.49 218.16 47.38 220.37 47.38"/>
        <polygon class="cls-8" points="220.37 41.53 220.37 41.53 143.41 41.53 143.41 41.53 176.88 41.53 220.37 41.53"/>
        <polygon class="cls-6" points="225.12 56.02 225.12 55.05 212.3 55.05 211.55 56.02 225.12 56.02"/>
        <polygon class="cls-4" points="72.18 55.05 72.18 56.02 211.55 56.02 212.3 55.05 190.4 55.05 72.18 55.05"/>
        <polygon class="cls-6" points="195.73 76.72 194.98 77.69 213.04 77.69 225.12 77.69 225.12 76.72 212.07 76.72 195.73 76.72"/>
        <polygon class="cls-4" points="72.18 76.72 72.18 77.69 194.98 77.69 195.73 76.72 72.18 76.72"/>
        <polygon class="cls-8" points="212.07 76.72 225.12 76.72 225.12 76.72 195.73 76.72 195.73 76.72 212.07 76.72"/>
        <rect class="cls-8" x="72.18" y="76.72" width="123.55"/>
        <polygon class="cls-4" points="72.18 98.39 72.18 99.37 178.41 99.37 179.15 98.39 72.18 98.39"/>
        <polygon class="cls-6" points="178.41 99.37 225.12 99.37 225.12 98.39 179.15 98.39 178.41 99.37"/>
        <rect class="cls-8" x="72.18" y="98.4" width="106.98"/>
        <rect class="cls-6" x="179.15" y="98.4" width="45.96"/>
        <polygon class="cls-6" points="143.41 63.45 143.41 69.3 201.4 69.3 205.88 63.45 198.79 63.45 143.41 63.45"/>
        <polygon class="cls-7" points="204.64 69.3 220.37 69.3 220.37 63.45 205.88 63.45 201.4 69.3 204.64 69.3"/>
        <polygon class="cls-7" points="220.37 90.97 220.37 85.12 189.3 85.12 184.83 90.97 220.37 90.97"/>
        <polygon class="cls-6" points="143.41 90.97 184.83 90.97 189.3 85.12 143.41 85.12 143.41 90.97"/>
        <polygon class="cls-6" points="143.41 112.89 168.07 112.89 172.54 107.04 143.41 107.04 143.41 112.89"/>
        <polygon class="cls-7" points="220.37 112.89 220.37 107.04 172.54 107.04 168.07 112.89 220.37 112.89"/>
        <path class="cls-6" d="M89.59,38.12H76.93V50.78H89.59V38.12ZM87.64,48.84H78.87V40.07h8.77v8.77Z"/>
        <path class="cls-9" d="M76.93,116.3H89.59V103.63H76.93V116.3Zm2.78-6.84L82,111.75l4.81-4.81,0.61,0.61L82,113l-2.91-2.91Z"/>
        <path class="cls-6" d="M89.59,60H76.93V72.69H89.59V60ZM87.64,70.74H78.87V62h8.77v8.77Z"/>
        <path class="cls-9" d="M89.59,81.7H76.93V94.36H89.59V81.7ZM82,91.05l-2.91-2.91,0.61-.61L82,89.81,86.81,85l0.61,0.61Z"/>
        <rect class="cls-9" x="76.93" y="81.7" width="12.66"/>
        <polygon class="cls-5" points="87.42 107.56 86.81 106.94 82 111.75 79.7 109.46 79.09 110.07 82 112.99 87.42 107.56"/>
        <polygon class="cls-5" points="82 89.81 79.7 87.52 79.09 88.14 82 91.05 87.42 85.62 86.81 85.01 82 89.81"/>
      </g>
      <g>
        <g>
          <polygon class="cls-4" points="153.13 21.26 153.13 25.79 149.67 25.79 145.2 31.64 153.13 31.64 153.13 37.49 140.73 37.49 136.25 43.34 153.13 43.34 153.13 49.19 131.78 49.19 122.85 60.87 153.13 60.87 153.13 76.45 110.93 76.45 101.99 88.14 169.21 88.14 169.21 1.44 168.29 1.44 153.13 21.26"/>
          <polygon class="cls-5" points="94.68 76.45 94.68 60.87 122.85 60.87 131.78 49.19 76.17 49.19 76.17 43.34 136.25 43.34 140.73 37.49 76.17 37.49 76.17 31.64 145.2 31.64 149.67 25.79 76.17 25.79 76.17 19.94 153.13 19.94 153.13 21.26 168.29 1.44 7.5 1.44 7.5 88.14 101.99 88.14 110.93 76.45 94.68 76.45"/>
          <polygon class="cls-7" points="153.13 25.79 153.13 21.26 149.67 25.79 153.13 25.79"/>
          <polygon class="cls-6" points="76.17 19.94 76.17 25.79 149.67 25.79 153.13 21.26 153.13 19.94 76.17 19.94"/>
          <polygon class="cls-6" points="76.17 37.49 140.73 37.49 145.2 31.64 76.17 31.64 76.17 37.49"/>
          <polygon class="cls-7" points="153.13 37.49 153.13 31.64 145.2 31.64 140.73 37.49 153.13 37.49"/>
          <polygon class="cls-6" points="76.17 49.19 131.78 49.19 136.25 43.34 76.17 43.34 76.17 49.19"/>
          <polygon class="cls-7" points="153.13 49.19 153.13 43.34 136.25 43.34 131.78 49.19 153.13 49.19"/>
          <polygon class="cls-9" points="94.68 76.45 110.93 76.45 115.4 70.61 108.32 70.61 108.32 66.71 118.38 66.71 122.85 60.87 94.68 60.87 94.68 76.45"/>
          <polygon class="cls-10" points="139.49 66.71 139.49 70.61 115.4 70.61 110.93 76.45 153.13 76.45 153.13 60.87 122.85 60.87 118.38 66.71 139.49 66.71"/>
          <polygon class="cls-11" points="108.32 66.71 108.32 70.61 115.4 70.61 118.38 66.71 108.32 66.71"/>
          <polygon class="cls-11" points="139.49 66.71 118.38 66.71 115.4 70.61 139.49 70.61 139.49 66.71"/>
        </g>
        <path class="cls-12" d="M38.67,17A17.53,17.53,0,1,1,21.14,34.56,17.55,17.55,0,0,1,38.67,17m0-3.9A21.43,21.43,0,1,0,60.1,34.56,21.43,21.43,0,0,0,38.67,13.13h0Z"/>
      </g>
    </g>
  </g>
</svg>
