<svg id="Layer_4" data-name="Layer 4" xmlns="http://www.w3.org/2000/svg" width="240" height="124" viewBox="0 0 240 124">
  <defs>
    <style>
      .cls-1 {
        fill: #231f20;
        opacity: 0;
      }

      .cls-2 {
        fill: #41286b;
      }

      .cls-3 {
        fill: #fff;
      }

      .cls-4 {
        fill: #e7e7e7;
      }

      .cls-5 {
        fill: #eaeaea;
      }

      .cls-6 {
        fill: #333;
      }

      .cls-7 {
        fill: #3c544e;
      }

      .cls-8 {
        fill: #010101;
      }

      .cls-9 {
        fill: #f4f4f4;
      }

      .cls-10 {
        fill: #1d427c;
      }

      .cls-11 {
        fill: #0556a5;
      }
    </style>
  </defs>
  <title>get-started-icons</title>
  <rect class="cls-1" width="240" height="124"/>
  <g>
    <g>
      <path class="cls-2" d="M58.7,39.19A30,30,0,1,0,70.5,63,29.83,29.83,0,0,0,58.7,39.19Z"/>
      <g>
        <path class="cls-3" d="M45.32,47.7a14.85,14.85,0,0,0-2.77-1.29,14.66,14.66,0,0,1,1.12,1.83,18.75,18.75,0,0,1,.89,2c0.14,0.36.23,0.73,0.35,1.09l2-2.56A16.1,16.1,0,0,0,45.32,47.7Z"/>
        <path class="cls-3" d="M43.24,53.5l-0.68.88h0.89C43.39,54.12,43.32,53.82,43.24,53.5Z"/>
        <path class="cls-4" d="M32.59,71.1A20,20,0,0,0,33.46,73a9.68,9.68,0,0,0,1.11,1.71A5.72,5.72,0,0,0,35.92,76a2.9,2.9,0,0,0,3.15,0,5.72,5.72,0,0,0,1.35-1.22A9.68,9.68,0,0,0,41.54,73a20,20,0,0,0,.87-1.94q0.38-1,.64-1.9t0.4-1.59h-11l-0.68.88c0.06,0.22.12,0.45,0.19,0.7Q32.21,70.12,32.59,71.1Z"/>
        <path class="cls-4" d="M44,63.21q0.08-1.09.08-2.21T44,58.79q-0.08-1.09-.22-2.2h-3l-6.75,8.82h9.7Q44,64.31,44,63.21Z"/>
        <path class="cls-3" d="M29.78,69.7q-0.28-1.05-.48-2.09H23.56a14.72,14.72,0,0,0,1.59,2.63,15.69,15.69,0,0,0,2.07,2.25c0.3,0.26.61,0.51,0.93,0.75l2-2.56C30,70.36,29.87,70,29.78,69.7Z"/>
        <path class="cls-3" d="M31.55,67.62c0.05,0.26.13,0.57,0.21,0.88l0.68-.88H31.55Z"/>
        <path class="cls-4" d="M32.45,75.6a14.64,14.64,0,0,1-1.12-1.83,18.73,18.73,0,0,1-.89-2c-0.14-.36-0.23-0.73-0.35-1.09l-2,2.56a16.08,16.08,0,0,0,1.54,1.06A14.83,14.83,0,0,0,32.45,75.6Z"/>
        <path class="cls-3" d="M43,52.8q-0.26-.91-0.64-1.9A20,20,0,0,0,41.54,49a9.68,9.68,0,0,0-1.11-1.71A5.72,5.72,0,0,0,39.08,46a2.9,2.9,0,0,0-3.15,0,5.72,5.72,0,0,0-1.35,1.22A9.68,9.68,0,0,0,33.46,49a20,20,0,0,0-.87,1.94q-0.38,1-.64,1.9t-0.4,1.59h11l0.68-.88C43.18,53.27,43.12,53,43,52.8Z"/>
        <path class="cls-3" d="M31.18,56.59Q31,57.69,31,58.79T30.88,61q0,1.12.08,2.21t0.22,2.2h3l6.75-8.82h-9.7Z"/>
        <path class="cls-4" d="M45.7,54.38h5.74a14.73,14.73,0,0,0-1.59-2.63,15.7,15.7,0,0,0-2.07-2.25c-0.3-.26-0.61-0.51-0.93-0.75l-2,2.56c0.1,0.33.23,0.65,0.31,1Q45.5,53.35,45.7,54.38Z"/>
        <path class="cls-3" d="M25,73.49a17.52,17.52,0,0,1-2.76-3.58,17.88,17.88,0,0,1-1.78-4.21,17.81,17.81,0,0,1,0-9.38,17.85,17.85,0,0,1,1.78-4.22,17.61,17.61,0,0,1,6.33-6.33A17.89,17.89,0,0,1,32.8,44a17.81,17.81,0,0,1,9.38,0,17.85,17.85,0,0,1,4.22,1.78A17.55,17.55,0,0,1,48.22,47l7.48-9.78A30,30,0,1,0,19.3,84.81L26.78,75A17.6,17.6,0,0,1,25,73.49Z"/>
        <path class="cls-3" d="M27.21,49.51a15.7,15.7,0,0,0-2.07,2.25,14.73,14.73,0,0,0-1.59,2.63H29.3q0.21-1,.48-2.09a20.77,20.77,0,0,1,.66-2.08,18.75,18.75,0,0,1,.89-2,14.66,14.66,0,0,1,1.12-1.83,14.85,14.85,0,0,0-2.77,1.29A16,16,0,0,0,27.21,49.51Z"/>
        <path class="cls-5" d="M55.7,37.19L48.22,47a17.46,17.46,0,0,1,4.52,5.11,17.85,17.85,0,0,1,1.78,4.22,17.78,17.78,0,0,1,0,9.38,17.85,17.85,0,0,1-1.78,4.22,17.61,17.61,0,0,1-6.33,6.33A17.84,17.84,0,0,1,42.19,78a17.78,17.78,0,0,1-9.37,0,17.84,17.84,0,0,1-4.22-1.78A17.55,17.55,0,0,1,26.78,75L19.3,84.81A30,30,0,1,0,55.7,37.19Z"/>
        <path class="cls-3" d="M29,56.59H22.7a15.58,15.58,0,0,0,0,8.82H29q-0.14-1.1-.21-2.2T28.68,61q0-1.12.07-2.21T29,56.59Z"/>
        <path class="cls-4" d="M46.25,58.79q0.07,1.09.07,2.21t-0.07,2.21q-0.07,1.09-.21,2.2H52.3a15.58,15.58,0,0,0,0-8.82H46Q46.19,57.69,46.25,58.79Z"/>
        <path class="cls-4" d="M45.22,69.7a20.76,20.76,0,0,1-.66,2.08,18.73,18.73,0,0,1-.89,2,14.64,14.64,0,0,1-1.12,1.83,14.83,14.83,0,0,0,2.77-1.29,16,16,0,0,0,2.46-1.81,15.69,15.69,0,0,0,2.07-2.25,14.72,14.72,0,0,0,1.59-2.63H45.7Q45.5,68.65,45.22,69.7Z"/>
        <path class="cls-6" d="M47.79,49.51a15.7,15.7,0,0,1,2.07,2.25,14.73,14.73,0,0,1,1.59,2.63H45.7q-0.21-1-.48-2.09c-0.09-.33-0.21-0.66-0.31-1L43.24,53.5c0.08,0.32.15,0.62,0.21,0.88H42.56l-1.69,2.21h3q0.14,1.1.22,2.2T44.12,61q0,1.12-.08,2.21t-0.22,2.2h-9.7l-1.69,2.21h11q-0.14.67-.4,1.59t-0.64,1.9A20,20,0,0,1,41.54,73a9.68,9.68,0,0,1-1.11,1.71A5.72,5.72,0,0,1,39.08,76a2.9,2.9,0,0,1-3.15,0,5.72,5.72,0,0,1-1.35-1.22A9.68,9.68,0,0,1,33.46,73a20,20,0,0,1-.87-1.94q-0.38-1-.64-1.9c-0.07-.25-0.13-0.48-0.19-0.7l-1.67,2.18c0.12,0.36.21,0.73,0.35,1.09a18.73,18.73,0,0,0,.89,2,14.64,14.64,0,0,0,1.12,1.83,14.83,14.83,0,0,1-2.77-1.29,16.08,16.08,0,0,1-1.54-1.06L26.78,75a17.55,17.55,0,0,0,1.81,1.22A17.84,17.84,0,0,0,32.81,78a17.78,17.78,0,0,0,9.37,0,17.84,17.84,0,0,0,4.22-1.78,17.61,17.61,0,0,0,6.33-6.33,17.85,17.85,0,0,0,1.78-4.22,17.78,17.78,0,0,0,0-9.37,17.85,17.85,0,0,0-1.78-4.22A17.46,17.46,0,0,0,48.22,47l-1.36,1.78C47.18,49,47.49,49.24,47.79,49.51Zm2.07,20.74a15.69,15.69,0,0,1-2.07,2.25,16,16,0,0,1-2.46,1.81,14.83,14.83,0,0,1-2.77,1.29,14.64,14.64,0,0,0,1.12-1.83,18.73,18.73,0,0,0,.89-2,20.76,20.76,0,0,0,.66-2.08q0.28-1.05.48-2.09h5.74A14.72,14.72,0,0,1,49.86,70.25ZM52.94,61a15.23,15.23,0,0,1-.64,4.41H46q0.14-1.1.21-2.2T46.32,61q0-1.12-.07-2.21T46,56.59H52.3A15.23,15.23,0,0,1,52.94,61Z"/>
        <path class="cls-7" d="M42.19,44a17.81,17.81,0,0,0-9.38,0,17.89,17.89,0,0,0-4.21,1.78,17.61,17.61,0,0,0-6.33,6.33,17.85,17.85,0,0,0-1.78,4.22,17.81,17.81,0,0,0,0,9.38,17.88,17.88,0,0,0,1.78,4.21A17.46,17.46,0,0,0,26.78,75l1.36-1.78c-0.32-.24-0.63-0.49-0.93-0.75a15.69,15.69,0,0,1-2.07-2.25,14.72,14.72,0,0,1-1.59-2.63H29.3q0.21,1,.48,2.09c0.09,0.33.21,0.66,0.31,1l1.67-2.18c-0.08-.32-0.15-0.62-0.21-0.88h0.89l1.69-2.21h-3Q31,64.31,31,63.21T30.88,61q0-1.12.08-2.21t0.22-2.2h9.7l1.69-2.21h-11q0.14-.67.4-1.59t0.64-1.9A20,20,0,0,1,33.46,49a9.68,9.68,0,0,1,1.11-1.71A5.72,5.72,0,0,1,35.92,46a2.9,2.9,0,0,1,3.15,0,5.72,5.72,0,0,1,1.35,1.22A9.68,9.68,0,0,1,41.54,49a20,20,0,0,1,.87,1.94q0.38,1,.64,1.9c0.07,0.25.13,0.48,0.19,0.7l1.67-2.18c-0.12-.36-0.21-0.73-0.35-1.09a18.75,18.75,0,0,0-.89-2,14.66,14.66,0,0,0-1.12-1.83,14.85,14.85,0,0,1,2.77,1.29,16.1,16.1,0,0,1,1.54,1.06L48.22,47a17.55,17.55,0,0,0-1.81-1.22A17.85,17.85,0,0,0,42.19,44ZM28.75,63.21q0.07,1.09.21,2.2H22.7a15.58,15.58,0,0,1,0-8.82H29q-0.14,1.1-.21,2.2T28.68,61Q28.68,62.12,28.75,63.21Zm2.59-15a18.75,18.75,0,0,0-.89,2,20.77,20.77,0,0,0-.66,2.08q-0.28,1.05-.48,2.09H23.56a14.73,14.73,0,0,1,1.59-2.63,15.7,15.7,0,0,1,2.07-2.25,16,16,0,0,1,2.46-1.81,14.85,14.85,0,0,1,2.77-1.29A14.66,14.66,0,0,0,31.33,48.23Z"/>
      </g>
    </g>
    <g>
      <path class="cls-2" d="M220.7,39.19A30,30,0,1,0,232.5,63,29.83,29.83,0,0,0,220.7,39.19Z"/>
      <g>
        <path class="cls-3" d="M196.76,63.7l-5.5-11L201.79,58l7-9.16a15.26,15.26,0,0,0-1.27-.89,15.53,15.53,0,0,0-3.24-1.52,15,15,0,0,0-3.6-.73V48h-2.35V45.7a15,15,0,0,0-3.6.73,15.53,15.53,0,0,0-3.24,1.52,15.41,15.41,0,0,0-5,5A15.53,15.53,0,0,0,185,56.18a15,15,0,0,0-.73,3.6h2.32v2.35h-2.32a15,15,0,0,0,.73,3.6A15.54,15.54,0,0,0,186.49,69a14.91,14.91,0,0,0,3.76,4.12l7-9.17Z"/>
        <polygon class="cls-4" points="200.81 59.66 200.6 59.55 198.44 62.39 203.4 64.86 200.81 59.66"/>
        <path class="cls-4" d="M194.72,75.49a15,15,0,0,0,3.6.73V73.9h2.35v2.32a15,15,0,0,0,3.6-.73A15.53,15.53,0,0,0,207.52,74a15.41,15.41,0,0,0,5-5A15.53,15.53,0,0,0,214,65.74a15,15,0,0,0,.73-3.6h-2.32V59.78h2.32a15,15,0,0,0-.73-3.6,15.53,15.53,0,0,0-1.52-3.24,15,15,0,0,0-3.72-4.1l-7,9.16,0.44,0.22,5.5,11-10.49-5.25-7,9.17c0.4,0.31.81,0.6,1.23,0.87A15.54,15.54,0,0,0,194.72,75.49Z"/>
        <polygon class="cls-3" points="195.6 57.06 198.19 62.27 198.44 62.39 200.6 59.55 195.6 57.06"/>
        <path class="cls-3" d="M187,73.45a17.66,17.66,0,0,1,23.24-26.51l7.46-9.75A30,30,0,1,0,181.3,84.81l7.5-9.8A17.6,17.6,0,0,1,187,73.45Z"/>
        <path class="cls-5" d="M217.7,37.19l-7.46,9.75A17.66,17.66,0,1,1,188.79,75l-7.5,9.8A30,30,0,1,0,217.7,37.19Z"/>
        <polygon class="cls-8" points="200.81 59.66 203.4 64.86 198.44 62.39 197.25 63.94 207.74 69.2 202.24 58.22 201.79 58 200.6 59.55 200.81 59.66"/>
        <polygon class="cls-7" points="196.76 63.7 197.25 63.94 198.44 62.39 198.19 62.27 195.6 57.06 200.6 59.55 201.79 58 191.26 52.73 196.76 63.7"/>
        <path class="cls-6" d="M210.31,50.15a15.31,15.31,0,0,1,2.21,2.78A15.53,15.53,0,0,1,214,56.18a15,15,0,0,1,.73,3.6h-2.32v2.35h2.32a15,15,0,0,1-.73,3.6A15.53,15.53,0,0,1,212.51,69a15.41,15.41,0,0,1-5,5,15.53,15.53,0,0,1-3.24,1.52,15,15,0,0,1-3.6.73V73.9h-2.35v2.32a15,15,0,0,1-3.6-.73A15.54,15.54,0,0,1,191.48,74c-0.43-.27-0.84-0.56-1.23-0.87L188.79,75a17.35,17.35,0,0,0,6,3,18,18,0,0,0,9.39,0,17.61,17.61,0,0,0,12.33-12.33,18,18,0,0,0,0-9.39,17.55,17.55,0,0,0-6.28-9.32l-1.45,1.89A15.39,15.39,0,0,1,210.31,50.15Z"/>
        <path class="cls-7" d="M204.2,43.94a18,18,0,0,0-9.39,0,17.61,17.61,0,0,0-12.33,12.33,18,18,0,0,0,0,9.39A17.48,17.48,0,0,0,188.79,75l1.45-1.89A14.91,14.91,0,0,1,186.49,69,15.54,15.54,0,0,1,185,65.74a15,15,0,0,1-.73-3.6h2.32V59.78h-2.32a15,15,0,0,1,.73-3.6,15.53,15.53,0,0,1,1.52-3.24,15.41,15.41,0,0,1,5-5,15.53,15.53,0,0,1,3.24-1.52,15,15,0,0,1,3.6-.73V48h2.35V45.7a15,15,0,0,1,3.6.73,15.53,15.53,0,0,1,3.24,1.52,15.26,15.26,0,0,1,1.27.89l1.45-1.89A17.48,17.48,0,0,0,204.2,43.94Z"/>
      </g>
    </g>
    <g>
      <g>
        <path class="cls-2" d="M139.7,39.19A30,30,0,1,0,151.5,63,29.83,29.83,0,0,0,139.7,39.19Z"/>
        <path class="cls-5" d="M136.7,37.19L129.22,47l-1.36,1.78-2,2.56-1.67,2.18-0.68.88-1.69,2.21-6.75,8.82-1.69,2.21-0.68.88-1.67,2.18-2,2.56L107.78,75l-7.48,9.78A30,30,0,1,0,136.7,37.19Z"/>
        <path class="cls-3" d="M118.5,31a30,30,0,0,0-18.2,53.81L107.78,75l1.36-1.78,2-2.56,1.67-2.18,0.68-.88,1.69-2.21,6.75-8.82,1.69-2.21,0.68-.88,1.67-2.18,2-2.56L129.22,47l7.48-9.78A29.83,29.83,0,0,0,118.5,31Z"/>
      </g>
      <g>
        <polygon class="cls-9" points="125.45 51.91 130.86 51.91 130.86 53.37 124.34 53.37 124.24 53.5 123.56 54.38 122.95 55.18 130.86 55.18 130.86 56.64 121.84 56.64 121.41 57.2 121.41 58.46 130.86 58.46 130.86 59.91 121.41 59.91 121.41 61.73 130.86 61.73 130.86 63.18 121.41 63.18 121.41 65 130.86 65 130.86 66.46 121.41 66.46 121.41 68.27 130.86 68.27 130.86 69.73 121.41 69.73 121.41 72.64 133.41 72.64 133.41 49.37 127.4 49.37 125.91 51.31 125.45 51.91"/>
        <polygon class="cls-3" points="121.41 51.91 125.45 51.91 125.91 51.31 127.4 49.37 121.41 49.37 121.41 51.91"/>
        <polygon class="cls-3" points="121.41 56.64 121.41 57.2 121.84 56.64 121.41 56.64"/>
        <polygon class="cls-3" points="123.56 54.38 124.24 53.5 124.34 53.37 121.41 53.37 121.41 55.18 122.95 55.18 123.56 54.38"/>
        <g>
          <path class="cls-10" d="M133.41,48.27h-5.18l-0.37.48-0.22.28-0.25.33h6V72.64h-12V69.73h9.45V68.27h-9.45V66.46h9.45V65h-9.45V63.18h9.45V61.73h-9.45V59.91h9.45V58.46h-9.45V57.2l-0.33.43-6,7.79-1.69,2.21-0.68.88-1.67,2.18-2,2.56L108,74.69,121.41,77V73.73h12a1.09,1.09,0,0,0,1.09-1.09V49.37A1.09,1.09,0,0,0,133.41,48.27Z"/>
          <polygon class="cls-10" points="130.86 51.91 125.45 51.91 124.34 53.37 130.86 53.37 130.86 51.91"/>
          <polygon class="cls-10" points="130.86 55.18 122.95 55.18 121.87 56.59 121.84 56.64 130.86 56.64 130.86 55.18"/>
        </g>
        <path class="cls-11" d="M121.41,48.27V45L102.5,48.27V73.73l5.54,1,1.1-1.44,2-2.56,1.67-2.18,0.68-.88,1.69-2.21,6-7.79,0.33-.43V56.64h0.43l0,0,1.08-1.41h-1.54V53.37h2.93l1.11-1.46h-4V49.37h6l0.25-.33,0.22-.28,0.37-.48h-6.82Zm-6.88,17.79-2.13-.13L111,59.4c0-.08,0-0.16,0-0.25s0-.18,0-0.27,0-.19,0-0.29,0-.2,0-0.31h0c0,0.11,0,.22,0,0.32s0,0.2,0,.3l0,0.27,0,0.24-1.34,6.35-2-.12-1.89-9.5,1.77-.11,1,6.42c0,0.07,0,.14,0,0.22s0,0.17,0,.26,0,0.19,0,.3,0,0.22,0,.34h0c0-.09,0-0.18,0-0.27s0-.18,0-0.28,0-.19,0-0.29l0.06-.3,1.4-6.56,1.94-.12,1.37,6.86c0,0.06,0,.13,0,0.21s0,0.16,0,.25,0,0.19,0,.3,0,0.23,0,.35h0c0-.1,0-0.2,0-0.3s0-.19,0-0.29,0-.19,0-0.29,0-.19,0-0.28l1.2-7,2.05-.13Z"/>
        <path class="cls-3" d="M113.66,62.56c0,0.09,0,.19,0,0.28s0,0.19,0,.29,0,0.19,0,.29,0,0.2,0,.3h0c0-.12,0-0.24,0-0.35s0-.21,0-0.3,0-.18,0-0.25,0-.15,0-0.21L112,55.73l-1.94.12-1.4,6.56-0.06.3c0,0.1,0,.19,0,0.29s0,0.19,0,.28,0,0.18,0,.27h0c0-.12,0-0.23,0-0.34s0-.21,0-0.3,0-.18,0-0.26,0-.15,0-0.22l-1-6.42-1.77.11,1.89,9.5,2,0.12,1.34-6.35,0-.24,0-.27c0-.09,0-0.19,0-0.3s0-.21,0-0.32h0c0,0.11,0,.21,0,0.31s0,0.2,0,.29,0,0.18,0,.27,0,0.17,0,.25l1.36,6.54,2.13,0.13,2.38-10.64-2.05.13Z"/>
      </g>
    </g>
  </g>
</svg>
