<svg id="Layer_4" data-name="Layer 4" xmlns="http://www.w3.org/2000/svg" width="240" height="124" viewBox="0 0 240 124">
  <defs>
    <style>
      .cls-1 {
        fill: #231f20;
        opacity: 0;
      }

      .cls-2 {
        fill: #41286b;
      }

      .cls-3 {
        fill: #feef6f;
      }

      .cls-4 {
        fill: #eecc47;
      }

      .cls-5 {
        fill: #e7e7e7;
      }

      .cls-6 {
        fill: #fff;
      }

      .cls-7 {
        fill: #b2adac;
      }

      .cls-8 {
        fill: #858280;
      }

      .cls-9 {
        fill: #d8b094;
      }

      .cls-10 {
        fill: #ba9167;
      }

      .cls-11 {
        fill: #3ec1c8;
      }

      .cls-12 {
        fill: #269599;
      }

      .cls-13 {
        fill: #f26869;
      }

      .cls-14 {
        fill: #f04848;
      }
    </style>
  </defs>
  <title>get-started-styles</title>
  <rect class="cls-1" width="240" height="124"/>
  <g>
    <polygon class="cls-2" points="142.8 20.76 142.8 48.2 142.8 60.04 157.42 60.04 186.8 60.04 186.8 48.2 186.8 20.87 186.8 20.76 142.8 20.76"/>
    <polygon class="cls-2" points="193.14 20.76 193.14 48.2 193.14 60.04 207.76 60.04 237.14 60.04 237.14 48.2 237.14 20.87 237.14 20.76 193.14 20.76"/>
    <polygon class="cls-2" points="142.8 66.07 142.8 93.51 142.8 105.36 157.42 105.36 186.8 105.36 186.8 93.51 186.8 66.19 186.8 66.07 142.8 66.07"/>
    <polygon class="cls-2" points="193.14 66.07 193.14 93.51 193.14 105.36 207.76 105.36 237.14 105.36 237.14 93.51 237.14 66.19 237.14 66.07 193.14 66.07"/>
    <g>
      <polygon class="cls-3" points="183.8 64.19 183.8 64.07 139.8 64.07 139.8 91.51 163.3 91.51 183.8 64.19"/>
      <polygon class="cls-4" points="183.8 91.51 183.8 64.19 163.3 91.51 183.8 91.51"/>
      <polygon class="cls-5" points="159.66 96.37 159.66 99.05 157.65 99.05 154.42 103.36 183.8 103.36 183.8 91.51 163.3 91.51 159.66 96.37"/>
      <polygon class="cls-6" points="154.42 103.36 157.65 99.05 142.47 99.05 142.47 95.58 159.66 95.58 159.66 96.37 163.3 91.51 139.8 91.51 139.8 103.36 154.42 103.36"/>
      <polygon class="cls-7" points="159.66 95.58 142.47 95.58 142.47 99.05 157.65 99.05 159.66 96.37 159.66 95.58"/>
      <polygon class="cls-8" points="159.66 96.37 157.65 99.05 159.66 99.05 159.66 96.37"/>
    </g>
    <g>
      <polygon class="cls-9" points="234.14 64.19 234.14 64.07 190.14 64.07 190.14 91.51 213.64 91.51 234.14 64.19"/>
      <polygon class="cls-10" points="234.14 91.51 234.14 64.19 213.64 91.51 234.14 91.51"/>
      <polygon class="cls-5" points="209.99 96.37 209.99 99.05 207.99 99.05 204.76 103.36 234.14 103.36 234.14 91.51 213.64 91.51 209.99 96.37"/>
      <polygon class="cls-6" points="204.76 103.36 207.99 99.05 192.81 99.05 192.81 95.58 209.99 95.58 209.99 96.37 213.64 91.51 190.14 91.51 190.14 103.36 204.76 103.36"/>
      <polygon class="cls-7" points="209.99 95.58 192.81 95.58 192.81 99.05 207.99 99.05 209.99 96.37 209.99 95.58"/>
      <polygon class="cls-8" points="209.99 96.37 207.99 99.05 209.99 99.05 209.99 96.37"/>
    </g>
    <g>
      <polygon class="cls-11" points="183.8 18.76 183.8 18.64 139.8 18.64 139.8 46.08 163.3 46.08 183.8 18.76"/>
      <polygon class="cls-12" points="183.8 46.08 183.8 18.76 163.3 46.08 183.8 46.08"/>
      <polygon class="cls-5" points="159.66 50.94 159.66 53.62 157.65 53.62 154.42 57.93 183.8 57.93 183.8 46.08 163.3 46.08 159.66 50.94"/>
      <polygon class="cls-6" points="154.42 57.93 157.65 53.62 142.47 53.62 142.47 50.15 159.66 50.15 159.66 50.94 163.3 46.08 139.8 46.08 139.8 57.93 154.42 57.93"/>
      <polygon class="cls-7" points="159.66 50.15 142.47 50.15 142.47 53.62 157.65 53.62 159.66 50.94 159.66 50.15"/>
      <polygon class="cls-8" points="159.66 50.94 157.65 53.62 159.66 53.62 159.66 50.94"/>
    </g>
    <g>
      <polygon class="cls-13" points="234.14 18.76 234.14 18.64 190.14 18.64 190.14 46.08 213.64 46.08 234.14 18.76"/>
      <polygon class="cls-14" points="234.14 46.08 234.14 18.76 213.64 46.08 234.14 46.08"/>
      <polygon class="cls-5" points="209.99 50.94 209.99 53.62 207.99 53.62 204.76 57.93 234.14 57.93 234.14 46.08 213.64 46.08 209.99 50.94"/>
      <polygon class="cls-6" points="204.76 57.93 207.99 53.62 192.81 53.62 192.81 50.15 209.99 50.15 209.99 50.94 213.64 46.08 190.14 46.08 190.14 57.93 204.76 57.93"/>
      <polygon class="cls-7" points="209.99 50.15 192.81 50.15 192.81 53.62 207.99 53.62 209.99 50.94 209.99 50.15"/>
      <polygon class="cls-8" points="209.99 50.94 207.99 53.62 209.99 53.62 209.99 50.94"/>
    </g>
    <g>
      <path class="cls-6" d="M65.43,103.37L55.74,77H19L9.3,103.37H2.86l32-84.72h5.55L72,103.37H65.43Zm-26-70.9A31.42,31.42,0,0,1,38.37,29q-0.41-1.48-.89-3H37.25a57.48,57.48,0,0,1-1.95,6.32L21.06,71.64H53.73Z"/>
      <path class="cls-6" d="M116.84,103.37V91.25h-0.24a23.71,23.71,0,0,1-8.42,9.9,21.59,21.59,0,0,1-12.26,3.69q-8.63,0-13.65-4.84a16.27,16.27,0,0,1-5-12.23q0-15.83,21-19.14l18.61-2.78q0-19.5-14.65-19.5-10,0-19.44,8V47.83a29.65,29.65,0,0,1,9.13-4.55,34.83,34.83,0,0,1,10.84-1.89q9.33,0,14.45,5.79T122.28,64v39.35h-5.44ZM100.18,73.23q-9.51,1.36-13.35,4.4T83,87.53a11.85,11.85,0,0,0,3.57,8.86q3.57,3.49,10,3.49a18.69,18.69,0,0,0,14.53-6.47q5.79-6.47,5.79-16.69V70.81Z"/>
    </g>
  </g>
</svg>
