<svg id="Layer_1" data-name="Layer 1" xmlns="http://www.w3.org/2000/svg" width="240" height="112" viewBox="0 0 240 112">
  <defs>
    <style>
      .cls-1 {
        fill: #fff;
      }

      .cls-2 {
        fill: #eaeaea;
      }

      .cls-3 {
        fill: #0054a6;
      }

      .cls-4 {
        fill: #008641;
      }

      .cls-5 {
        fill: #662d91;
      }

      .cls-6 {
        fill: #4d226d;
      }

      .cls-7 {
        fill: #e64419;
      }
    </style>
  </defs>
  <title>home-highlights-brand</title>
  <g>
    <path class="cls-1" d="M815.76,2167.61l-3.41.21-2.07,4.85-0.14.43-0.11.38-0.09.32-0.07.26h0l-0.08-.37-0.09-.34-0.1-.32-0.11-.3-1.79-4.63-3.29.2,3.51,7.6-3.83,7.58,3.21,0.2,2.15-5,0.1-.34,0.08-.3,0.06-.25,0-.21h0c0,0.13,0,.25.07,0.36l0.07,0.3,0.06,0.23a1.67,1.67,0,0,0,.06.17l2.24,5.31,3.63,0.22-4.17-8.36Z" transform="translate(-726.75 -2120.11)"/>
    <polygon class="cls-1" points="134.67 63.48 134.66 63.49 134.67 63.49 134.67 63.48"/>
    <path class="cls-1" d="M861.42,2175.06q0-.41,0-0.78c0-.24,0-0.47,0-0.68s0-.4,0-0.58,0-.34,0-0.48h0l0.11,0.25,0.14,0.3,0.17,0.34,0.21,0.39,2.84,5.27,1.74-2.28-4.8-8.79-3.1.18v15.23l2.72,0.15h0v-8.54Z" transform="translate(-726.75 -2120.11)"/>
    <path class="cls-1" d="M758.09,2178.26c0,0.13,0,.26-0.07.39s0,0.26,0,.39,0,0.27,0,.4,0,0.27,0,.41h0l0-.48c0-.15,0-0.29,0-0.42s0-.24,0-0.35,0-.2-0.05-0.29l-1.89-9.44-2.67.16-1.92,9c0,0.14-.06.28-0.08,0.41s0,0.27-.06.4,0,0.26,0,.39,0,0.25,0,.37h0c0-.17,0-0.32,0-0.47s0-.28,0-0.41,0-.24,0-0.35,0-.21,0-0.3l-1.44-8.83-2.43.15,2.6,13.07,2.7,0.17,1.84-8.73c0-.11,0-0.22.06-0.34l0.05-.37c0-.13,0-0.26,0-0.41s0-.29,0-0.44h0c0,0.15,0,.29,0,0.43s0,0.27,0,.4,0,0.25,0,.37,0,0.23.06,0.34l1.87,9,2.93,0.18,3.27-14.62-2.82.17Z" transform="translate(-726.75 -2120.11)"/>
    <polygon class="cls-1" points="42 43.5 55 43.5 55 45.5 42 45.5 42 48 55 48 55 50 42 50 42 52.5 55 52.5 55 54.5 42 54.5 42 57 55 57 55 59 42 59 42 61.5 55 61.5 55 63.5 42 63.5 42 66 55 66 55 68 42 68 42 72 58.5 72 58.5 40 42 40 42 43.5"/>
    <path class="cls-2" d="M894.19,2181.11h-1.63v8h1.63a0.41,0.41,0,0,0,.38-0.5v-7a0.41,0.41,0,0,0-.37-0.5" transform="translate(-726.75 -2120.11)"/>
    <polygon class="cls-1" points="143.93 47.4 140.94 47.57 140.94 55.28 143.93 51.38 143.93 47.4"/>
    <path class="cls-2" d="M867.47,2184l3.2,0.16v-12.62l-3,3.91v1.22c0,0.27,0,.77,0,1s0,0.27,0,.46,0,0.35,0,.49,0,0.26,0,.36h0l-0.2-.4-0.18-.36-0.16-.31-0.15-.27-0.42-.77-1.74,2.28Z" transform="translate(-726.75 -2120.11)"/>
    <polygon class="cls-1" points="143.93 47.4 143.93 47.4 143.96 47.4 143.93 47.4"/>
    <path class="cls-2" d="M887.56,2163.61v2h-9.37v2.5h9.38v2h-9.37v2.5h9.38v2h-9.37v2.5h9.38v2h-9.37v2.5h9.38v2h-9.37v2.5h9.38v2h-9.37v4h12.88v-22h3.13a0.41,0.41,0,0,0,.38-0.5v-7a0.41,0.41,0,0,0-.37-0.5h-3.12v-2H879.37l-1.18,1.55v1.95h9.38Z" transform="translate(-726.75 -2120.11)"/>
    <polygon class="cls-1" points="151.44 40 151.44 41.55 152.62 40 151.44 40"/>
    <path class="cls-2" d="M894.06,2171.61h-1.5v8h1.63a0.41,0.41,0,0,0,.38-0.5v-7a0.5,0.5,0,0,0-.5-0.5" transform="translate(-726.75 -2120.11)"/>
    <path class="cls-2" d="M923.09,2168.71a3.73,3.73,0,0,0-1.6-.91,7,7,0,0,0-2.11-.19l-4.5.27v16l3,0.27v-5.91l1.17,0.1a6.37,6.37,0,0,0,1.15-.08,5.12,5.12,0,0,0,1-.28,4.55,4.55,0,0,0,.93-0.49,4.73,4.73,0,0,0,.81-0.7,5.29,5.29,0,0,0,.63-0.83,5.41,5.41,0,0,0,.45-1,6.15,6.15,0,0,0,.27-1.07,8.28,8.28,0,0,0-.24-3.54,4,4,0,0,0-1-1.63M921,2174a2.1,2.1,0,0,1-.45.82,1.86,1.86,0,0,1-.74.49,3,3,0,0,1-1,.16l-0.91-.11v-4.78l0.92-.17a3,3,0,0,1,1,.12,1.74,1.74,0,0,1,.74.45,1.93,1.93,0,0,1,.45.78,3.67,3.67,0,0,1,.15,1.11A3.89,3.89,0,0,1,921,2174" transform="translate(-726.75 -2120.11)"/>
    <path class="cls-1" d="M852.19,2193.61v-35l26-4.5v4.5h2.33l29.44-38.5H726.75v112h97.57l29.26-38.26Zm-65.44-1.5a1.5,1.5,0,0,1-1.5,1.5h-16.5v4.5l-26-4.5v-35l26-4.5v4.5h16.5a1.5,1.5,0,0,1,1.5,1.5v32Zm54.63-.5a1.4,1.4,0,0,1-1.37,1.5H823.5v5l-26-4.5v-35l26-4.5v4.5h16.44a1.45,1.45,0,0,1,1.44,1.5v31.5Z" transform="translate(-726.75 -2120.11)"/>
    <path class="cls-2" d="M932.88,2165.58a6.27,6.27,0,0,1,2.38-.47v6.5h6.62a6.53,6.53,0,0,1-9,6v3h11.88v2H932.88v2.5h11.88v2H932.88v4h16.38v-30.5H932.88v5Zm3.38-1.47a6.67,6.67,0,0,1,6.62,6.5h-6.62v-6.5Z" transform="translate(-726.75 -2120.11)"/>
    <path class="cls-1" d="M823.5,2163.11h3.88v3.5H823.5v2h3.88v3.5H823.5v2h3.88v3.5H823.5v2h3.88v3.5H823.5v2h3.88v3.5H823.5v3h16.38v-31.5H823.5v3Zm5.88,0h7v3.5h-7v-3.5Zm0,5.5h7v3.5h-7v-3.5Zm0,5.5h7v3.5h-7v-3.5Zm0,5.5h7v3.5h-7v-3.5Zm0,5.5h7v3.5h-7v-3.5Z" transform="translate(-726.75 -2120.11)"/>
    <path class="cls-2" d="M966.75,2120.11H910l-29.44,38.5h10.61a1.45,1.45,0,0,1,1.44,1.5v0.5h1.63a1.9,1.9,0,0,1,1.88,2v7a2.1,2.1,0,0,1-.41,1.27,2,2,0,0,1,.41,1.23v7a2,2,0,0,0,0,2.5v7a1.9,1.9,0,0,1-1.87,2h-1.62v1.5a1.4,1.4,0,0,1-1.38,1.5h-13v4.5l-24.61-4.26-29.26,38.26H966.75v-112Zm-16,71a1.4,1.4,0,0,1-1.37,1.5h-16.5v5.5l-26-4.5v-35l26-4.5v5h16.44a1.45,1.45,0,0,1,1.44,1.5v30.5Z" transform="translate(-726.75 -2120.11)"/>
    <path class="cls-3" d="M785.25,2158.61h-16.5v-4.5l-26,4.5v35l26,4.5v-4.5h16.5a1.5,1.5,0,0,0,1.5-1.5v-32a1.5,1.5,0,0,0-1.5-1.5m-26,24.47-2.93-.18-1.87-9q0-.17-0.06-0.35c0-.12,0-0.24,0-0.37s0-.26,0-0.4,0-.28,0-0.43h0c0,0.15,0,.3,0,0.44s0,0.28,0,.41l-0.05.37c0,0.12,0,.23-0.06.34l-1.84,8.73-2.7-.17-2.6-13.07,2.43-.15,1.44,8.83c0,0.09,0,.19,0,0.3s0,0.23,0,.35,0,0.27,0,.41,0,0.3,0,.47h0c0-.12,0-0.25,0-0.37s0-.25,0-0.39,0-.26.06-0.4,0.05-.27.08-0.41l1.92-9,2.67-.16,1.89,9.44c0,0.08,0,.18.05,0.29s0,0.22,0,.35,0,0.27,0,.42l0,0.48h0c0-.14,0-0.27,0-0.41s0-.27,0-0.4,0-.26,0-0.39,0-.26.07-0.39l1.65-9.63,2.82-.17Zm26,9h-16.5v-4h13v-2h-13v-2.5h13v-2h-13v-2.5h13v-2h-13v-2.5h13v-2h-13v-2.5h13v-2h-13v-2.5h13v-2h-13v-3.5h16.5v32Z" transform="translate(-726.75 -2120.11)"/>
    <path class="cls-4" d="M839.94,2158.61H823.5v-4.5l-26,4.5v35l26,4.5v-5H840a1.4,1.4,0,0,0,1.38-1.5v-31.5a1.45,1.45,0,0,0-1.44-1.5M812.25,2184l-2.24-5.31-0.06-.17c0-.07,0-0.15-0.06-0.23l-0.07-.3c0-.11,0-0.23-0.07-0.36h0l0,0.21-0.06.25-0.08.3-0.1.34-2.15,5-3.21-.2,3.82-7.58-3.51-7.6,3.29-.2,1.79,4.63,0.11,0.3,0.1,0.32c0,0.11.06,0.23,0.09,0.34l0.08,0.37h0l0.07-.26,0.09-.32,0.11-.38,0.14-.43,2.07-4.85,3.41-.21-4.05,8.22,4.17,8.36Zm27.63,7.63H823.5v-3h3.88v-3.5H823.5v-2h3.88v-3.5H823.5v-2h3.88v-3.5H823.5v-2h3.88v-3.5H823.5v-2h3.88v-3.5H823.5v-3h16.38v31.5Z" transform="translate(-726.75 -2120.11)"/>
    <rect class="cls-4" x="102.63" y="43" width="7" height="3.5"/>
    <rect class="cls-4" x="102.63" y="48.5" width="7" height="3.5"/>
    <rect class="cls-4" x="102.63" y="65" width="7" height="3.5"/>
    <rect class="cls-4" x="102.63" y="54" width="7" height="3.5"/>
    <rect class="cls-4" x="102.63" y="59.5" width="7" height="3.5"/>
    <path class="cls-5" d="M867.17,2177.85l0.16,0.31,0.18,0.36,0.2,0.4h0c0-.1,0-0.22,0-0.36s0-.31,0-0.49,0-.23,0-0.46,0-.73,0-1v-1.22l-1.09,1.42,0.42,0.77,0.15,0.27" transform="translate(-726.75 -2120.11)"/>
    <path class="cls-6" d="M891.06,2160.11v2h3.13a0.41,0.41,0,0,1,.38.5v7a0.41,0.41,0,0,1-.37.5h-3.12v22H878.19v-4h9.38v-2h-9.37v-2.5h9.38v-2h-9.37v-2.5h9.38v-2h-9.37v-2.5h9.38v-2h-9.37v-2.5h9.38v-2h-9.37v-2.5h9.38v-2h-9.37v-1.95l-7.51,9.82v12.63l-3.21-.16-2.61-4.86-3.44,4.5h0l-7.84,10.25,24.61,4.26v-4.5h13a1.4,1.4,0,0,0,1.38-1.5v-1.5h1.63a1.9,1.9,0,0,0,1.88-2v-7a2,2,0,0,1,0-2.5v-7a2,2,0,0,0-.41-1.23,2.1,2.1,0,0,0,.41-1.27v-7a1.9,1.9,0,0,0-1.87-2h-1.62v-0.5a1.45,1.45,0,0,0-1.44-1.5h-10.6l-1.15,1.5h11.69Zm3.5,28.5a0.41,0.41,0,0,1-.37.5h-1.62v-8h1.63a0.41,0.41,0,0,1,.38.5v7Zm0-9.5a0.41,0.41,0,0,1-.37.5h-1.62v-8h1.5a0.5,0.5,0,0,1,.5.5v7Z" transform="translate(-726.75 -2120.11)"/>
    <polygon class="cls-5" points="151.44 34 125.44 38.5 125.44 73.5 126.83 73.74 134.66 63.49 131.95 63.33 131.95 48.1 135.05 47.92 139.85 56.71 140.94 55.28 140.94 47.57 143.93 47.4 143.93 47.4 143.96 47.4 143.93 47.4 143.93 51.38 151.44 41.55 151.44 40 152.62 40 153.77 38.5 151.44 38.5 151.44 34"/>
    <path class="cls-5" d="M861.81,2173.43l-0.17-.34-0.14-.3-0.11-.25h0c0,0.14,0,.3,0,0.48s0,0.37,0,.58,0,0.44,0,.68,0,0.5,0,.78v8.54l3.44-4.5-2.84-5.27-0.2-.39" transform="translate(-726.75 -2120.11)"/>
    <path class="cls-7" d="M920.57,2171a1.76,1.76,0,0,0-.74-0.45,3,3,0,0,0-1-.12l-0.93.18v4.78l0.91,0.11a3,3,0,0,0,1-.16,1.86,1.86,0,0,0,.74-0.49A2.11,2.11,0,0,0,921,2174a3.92,3.92,0,0,0,.15-1.14,3.7,3.7,0,0,0-.15-1.11,1.94,1.94,0,0,0-.45-0.78" transform="translate(-726.75 -2120.11)"/>
    <path class="cls-7" d="M949.31,2159.11H932.88v-5l-26,4.5v35l26,4.5v-5.5h16.5a1.4,1.4,0,0,0,1.38-1.5v-30.5a1.45,1.45,0,0,0-1.44-1.5m-25,14.77A6.25,6.25,0,0,1,924,2175a5.43,5.43,0,0,1-.45,1,5.23,5.23,0,0,1-.63.83,4.69,4.69,0,0,1-.81.7,4.55,4.55,0,0,1-.92.49,5.12,5.12,0,0,1-1,.28,6.47,6.47,0,0,1-1.15.08l-1.17-.1v5.91l-3-.27v-16l4.5-.27a7,7,0,0,1,2.11.19,3.73,3.73,0,0,1,1.6.91,4,4,0,0,1,1,1.63,8.32,8.32,0,0,1,.24,3.54m24.94,17.23H932.88v-4h11.88v-2H932.88v-2.5h11.88v-2H932.88v-3a6.53,6.53,0,0,0,9-6h-6.62v-6.5a6.29,6.29,0,0,0-2.38.47v-5h16.38v30.5Z" transform="translate(-726.75 -2120.11)"/>
    <path class="cls-7" d="M936.25,2164.11v6.5h6.62a6.67,6.67,0,0,0-6.62-6.5" transform="translate(-726.75 -2120.11)"/>
  </g>
</svg>
