<svg id="Layer_1" data-name="Layer 1" xmlns="http://www.w3.org/2000/svg" width="497" height="300.13" viewBox="0 0 497 300.13">
  <defs>
    <style>
      .cls-1 {
        fill: #38619e;
      }

      .cls-2 {
        fill: #f6f6f6;
      }

      .cls-3 {
        fill: #eaeaea;
      }

      .cls-4 {
        fill: #fff;
      }

      .cls-5 {
        fill: #c8c8c8;
      }

      .cls-6, .cls-7 {
        fill: none;
        stroke-miterlimit: 10;
      }

      .cls-6 {
        stroke: #a6a6a6;
      }

      .cls-7 {
        stroke: #4d98e4;
      }

      .cls-8 {
        fill: #ff6767;
      }

      .cls-9 {
        fill: #a6a6a6;
      }

      .cls-10 {
        fill: #bf4d4d;
      }
    </style>
  </defs>
  <title>home-addins</title>
  <rect class="cls-1" width="497" height="22.68"/>
  <rect class="cls-2" y="22.68" width="497" height="277.32"/>
  <rect class="cls-3" x="0.93" y="55.1" width="496" height="1"/>
  <rect class="cls-3" x="321.65" y="56.11" width="1.01" height="244.02"/>
  <rect class="cls-3" x="52.41" y="26.8" width="1.01" height="24.17"/>
  <rect class="cls-3" x="212.49" y="26.8" width="1.01" height="24.17"/>
  <rect class="cls-3" x="264.87" y="26.8" width="1.01" height="24.17"/>
  <rect class="cls-3" x="389.25" y="26.81" width="1.01" height="24.17"/>
  <rect class="cls-4" x="0.72" y="75.4" width="301.13" height="224.6"/>
  <rect class="cls-5" x="335.43" y="77.4" width="150.76" height="209.3"/>
  <circle class="cls-5" cx="482.17" cy="65.75" r="5"/>
  <path class="cls-2" d="M482.43,65.75l2,2-0.26.26-2-2-2,2-0.26-.26,2-2-2-2,0.26-.26,2,2,2-2,0.26,0.26Z"/>
  <rect class="cls-3" x="163.93" y="97.31" width="126.28" height="202.81"/>
  <rect class="cls-3" x="0.64" y="120.82" width="56.47" height="6"/>
  <rect class="cls-3" x="0.57" y="135.82" width="56.47" height="6"/>
  <rect class="cls-3" x="0.5" y="150.82" width="114.38" height="6"/>
  <rect class="cls-3" x="0.43" y="165.82" width="98.78" height="6"/>
  <rect class="cls-3" x="0.36" y="240.82" width="114.38" height="6"/>
  <rect class="cls-3" x="0.29" y="255.82" width="98.78" height="6"/>
  <rect class="cls-3" x="0.21" y="270.82" width="114.38" height="6"/>
  <rect class="cls-3" x="0.14" y="180.82" width="114.38" height="6"/>
  <rect class="cls-3" x="0.07" y="195.82" width="114.38" height="6"/>
  <rect class="cls-3" y="210.82" width="71.82" height="6"/>
  <rect class="cls-4" x="176.16" y="120.82" width="50.03" height="6"/>
  <rect class="cls-4" x="176.16" y="135.82" width="50.03" height="6"/>
  <rect class="cls-4" x="176.16" y="150.82" width="101.33" height="6"/>
  <rect class="cls-4" x="176.16" y="180.82" width="101.33" height="6"/>
  <rect class="cls-4" x="176.16" y="195.82" width="101.33" height="6"/>
  <rect class="cls-4" x="176.16" y="210.82" width="63.63" height="6"/>
  <rect class="cls-4" x="176.16" y="240.25" width="101.33" height="6"/>
  <rect class="cls-4" x="176.16" y="255.25" width="101.33" height="6"/>
  <rect class="cls-4" x="176.16" y="270.25" width="100.12" height="6"/>
  <rect class="cls-5" x="204.21" y="146.6" width="150.74" height="118.78"/>
  <rect class="cls-6" x="21" y="30.28" width="11.35" height="11.35"/>
  <rect class="cls-5" x="16.6" y="46.44" width="20.15" height="3.02"/>
  <rect class="cls-7" x="73.61" y="30.28" width="11.35" height="11.35" rx="5.64" ry="5.64"/>
  <rect class="cls-5" x="69.22" y="46.44" width="20.15" height="3.02"/>
  <rect class="cls-6" x="109.42" y="30.28" width="11.35" height="11.35"/>
  <rect class="cls-5" x="105.03" y="46.44" width="20.15" height="3.02"/>
  <rect class="cls-6" x="145.23" y="30.28" width="11.35" height="11.35"/>
  <rect class="cls-5" x="140.84" y="46.44" width="20.15" height="3.02"/>
  <rect class="cls-6" x="181.04" y="30.28" width="11.35" height="11.35"/>
  <rect class="cls-5" x="176.65" y="46.44" width="20.15" height="3.02"/>
  <rect class="cls-6" x="233.35" y="30.28" width="11.35" height="11.35"/>
  <rect class="cls-5" x="228.95" y="46.44" width="20.15" height="3.02"/>
  <rect class="cls-6" x="285.93" y="30.28" width="11.35" height="11.35"/>
  <rect class="cls-5" x="281.54" y="46.44" width="20.15" height="3.02"/>
  <rect class="cls-6" x="321.58" y="30.28" width="11.35" height="11.35"/>
  <rect class="cls-5" x="317.19" y="46.44" width="20.15" height="3.02"/>
  <rect class="cls-6" x="357.19" y="30.28" width="11.35" height="11.35"/>
  <rect class="cls-5" x="352.79" y="46.44" width="20.15" height="3.02"/>
  <rect class="cls-7" x="446.47" y="30.28" width="11.35" height="11.35" rx="5.64" ry="5.64"/>
  <rect class="cls-5" x="442.07" y="46.44" width="20.15" height="3.02"/>
  <rect class="cls-7" x="410.82" y="30.28" width="11.35" height="11.35" rx="5.64" ry="5.64"/>
  <rect class="cls-5" x="406.42" y="46.44" width="20.15" height="3.02"/>
  <g>
    <rect class="cls-4" x="347.43" y="156.82" width="10.66" height="10.66"/>
    <rect class="cls-4" x="347.43" y="179.34" width="10.66" height="10.66"/>
    <path class="cls-4" d="M468.18,110.81V95H347.42v15.85H468.18Zm-12.53-12,0.53-.53,4,4,4-4,0.53,0.53-4,4,4,4-0.53.53-4-4-4,4-0.53-.53,4-4Zm-103.72,9.66h-1V97.31h1v11.16Z"/>
    <path class="cls-4" d="M368.54,268.26v-16h22.69l14.94-19.54h-2.38v-6h7l6-7.8h-70.3v-1h71.06l5.91-7.73h-19.6v-6h24.07l6-7.8H346.42v-1H434.7l5.91-7.73H403.79v-6H445.2l6-7.8H346.42v-1H451.93l5.91-7.73h-54v-6h58.59L483.18,132V75.39H332.42v209.3h34L379,268.25H368.54Zm-22.11-67.39h12.66v12.66H346.42V200.87h0Zm0-22.52h12.66V191H346.42V178.35h0Zm0-84.37H469.18v17.85H346.42V94h0Zm0,26.85H453.1v6H346.42v-6h0Zm0,12H425.3v6.08H346.42v-6.08h0Zm0,23h12.66v12.66H346.42V155.83h0Zm12.66,80.24H346.42V223.41h12.66v12.66h0Z"/>
    <path class="cls-3" d="M483.18,132l-20.75,27.17h6.75v6H457.84l-5.91,7.7h17.25v1h-18l-6,7.8h24v6H440.61l-5.91,7.73h34.47v1H433.93l-6,7.8h41.2v6H423.39l-5.91,7.73h51.7v1H416.72l-6,7.8h58.42v6h-63L391.2,252.27h25.31v16H379l-12.57,16.44H483.18V132h0Zm-14,136.26h-48v-16h48v16Z"/>
    <rect class="cls-3" x="350.96" y="97.31" width="1" height="11.16"/>
    <path class="cls-8" d="M359.09,200.86H346.42v12.66h12.66V200.86h0Zm-7.59,9.35-2.91-2.91,0.61-.61,2.29,2.29,4.81-4.81,0.61,0.61Z"/>
    <polygon class="cls-4" points="351.5 208.98 349.21 206.69 348.59 207.31 351.5 210.22 356.93 204.79 356.31 204.18 351.5 208.98"/>
    <path class="cls-5" d="M359.09,178.34H346.42V191h12.66V178.34h0Zm-1,11.66H347.42V179.34h10.66V190h0Z"/>
    <path class="cls-5" d="M359.09,155.81H346.42v12.66h12.66V155.81h0Zm-1,11.66H347.42V156.81h10.66v10.66h0Z"/>
    <path class="cls-5" d="M469.18,111.81V94H346.42v17.85H469.18ZM347.42,95H468.18v15.85H347.42V95Z"/>
    <polygon class="cls-9" points="469.19 165.15 469.19 159.15 462.43 159.15 457.84 165.15 469.19 165.15"/>
    <polygon class="cls-5" points="403.8 165.15 457.84 165.15 462.43 159.15 403.8 159.15 403.8 165.15"/>
    <rect class="cls-3" x="346.43" y="120.82" width="106.67" height="6"/>
    <rect class="cls-3" x="346.43" y="132.82" width="78.87" height="6.08"/>
    <polygon class="cls-5" points="403.8 187.67 440.62 187.67 445.21 181.67 403.8 181.67 403.8 187.67"/>
    <polygon class="cls-9" points="469.19 187.67 469.19 181.67 445.21 181.67 440.62 187.67 469.19 187.67"/>
    <polygon class="cls-9" points="469.19 210.2 469.19 204.2 427.98 204.2 423.4 210.2 469.19 210.2"/>
    <polygon class="cls-5" points="403.8 210.2 423.4 210.2 427.98 204.2 403.8 204.2 403.8 210.2"/>
    <path class="cls-8" d="M346.42,236.05h12.66V223.39H346.42v12.66Zm2.78-6.84,2.29,2.29,4.81-4.81,0.61,0.61-5.43,5.43-2.91-2.91Z"/>
    <polygon class="cls-4" points="356.93 227.31 356.31 226.7 351.5 231.51 349.21 229.22 348.59 229.83 351.5 232.74 356.93 227.31"/>
    <polygon class="cls-9" points="469.19 232.72 469.19 226.72 410.76 226.72 406.17 232.72 469.19 232.72"/>
    <polygon class="cls-5" points="403.8 232.72 406.17 232.72 410.76 226.72 403.8 226.72 403.8 232.72"/>
    <polygon class="cls-5" points="469.19 173.88 469.19 172.88 451.94 172.88 451.17 173.88 469.19 173.88"/>
    <polygon class="cls-3" points="346.43 173.88 451.17 173.88 451.94 172.88 346.43 172.88 346.43 173.88"/>
    <polygon class="cls-3" points="346.43 196.4 433.95 196.4 434.71 195.4 346.43 195.4 346.43 196.4"/>
    <polygon class="cls-5" points="469.19 196.4 469.19 195.4 434.71 195.4 433.95 196.4 469.19 196.4"/>
    <polygon class="cls-5" points="469.19 218.92 469.19 217.92 417.49 217.92 416.72 218.92 469.19 218.92"/>
    <polygon class="cls-3" points="346.43 218.92 416.72 218.92 417.49 217.92 346.43 217.92 346.43 218.92"/>
    <polygon class="cls-8" points="456.18 107.47 460.23 103.43 464.28 107.47 464.81 106.94 460.76 102.89 464.81 98.84 464.28 98.32 460.23 102.36 456.18 98.32 455.65 98.84 459.7 102.89 455.65 106.94 456.18 107.47"/>
    <polygon class="cls-10" points="404.54 258.25 404.54 262.27 383.58 262.27 379 268.26 416.54 268.26 416.54 252.26 391.23 252.26 386.66 258.25 404.54 258.25"/>
    <polygon class="cls-8" points="368.54 268.26 379 268.26 383.58 262.27 380.54 262.27 380.54 258.25 386.66 258.25 391.23 252.26 368.54 252.26 368.54 268.26"/>
    <path class="cls-5" d="M421.15,268.26h48v-16h-48v16Zm12-10h24v4h-24v-4Z"/>
    <polygon class="cls-4" points="380.54 258.25 380.54 262.27 383.58 262.27 386.66 258.25 380.54 258.25"/>
    <polygon class="cls-3" points="404.54 258.25 386.66 258.25 383.58 262.27 404.54 262.27 404.54 258.25"/>
    <rect class="cls-9" x="433.15" y="258.25" width="24" height="4.03"/>
  </g>
  <g>
    <path class="cls-4" d="M237.93,252V236h23l15.29-20H263v-6.08h17.91L294.59,192H263.08v-6.08h36.16l13.45-17.59H263.08v-6.08h54.26l13.52-17.68H201.21V263.37H240L248.76,252H237.93Zm-14.24-95.65h17a9,9,0,0,1,0,18h-17a9,9,0,1,1,0-18h0Zm0,23.67h17a9,9,0,0,1,0,18h-17a9,9,0,0,1,0-18h0Zm-8.5,32.95a8.5,8.5,0,0,1,8.5-8.5h17a8.5,8.5,0,0,1,0,17h-17a8.5,8.5,0,0,1-8.48-8.5h0Z"/>
    <path class="cls-3" d="M351.93,144.6H330.86l-13.52,17.68h20.59v6.08H312.69L299.24,186h38.69V192H294.59L280.93,209.9h57V216H276.28L261,236h25v16H248.76L240,263.39H351.93V144.6ZM337.93,252h-48V236h48v16Z"/>
    <path class="cls-4" d="M223.71,173.32h17a8,8,0,0,0,0-16h-17A8,8,0,0,0,223.71,173.32Zm0-14.33a6.33,6.33,0,1,1-6.33,6.33h0a6.33,6.33,0,0,1,6.33-6.33h0Z"/>
    <path class="cls-4" d="M223.71,197h17a8,8,0,0,0,0-16h-17A8,8,0,0,0,223.71,197Zm0-14.33a6.33,6.33,0,1,1-6.33,6.33h0A6.33,6.33,0,0,1,223.71,182.66Z"/>
    <circle class="cls-8" cx="223.71" cy="165.32" r="6.33"/>
    <path class="cls-8" d="M223.71,174.32h17a9,9,0,0,0,0-18h-17A9,9,0,0,0,223.71,174.32Zm0-17h17a8,8,0,0,1,0,16h-17A8,8,0,0,1,223.71,157.32Z"/>
    <circle class="cls-8" cx="223.71" cy="188.99" r="6.33"/>
    <path class="cls-8" d="M223.71,198h17a9,9,0,0,0,0-18h-17A9,9,0,0,0,223.71,198Zm0-17h17a8,8,0,0,1,0,16h-17A8,8,0,0,1,223.71,181Z"/>
    <path class="cls-8" d="M249.21,212.94a8.5,8.5,0,0,0-8.5-8.5h-17a8.5,8.5,0,0,0,0,17h17a8.5,8.5,0,0,0,8.5-8.5h0Zm-14.83,0a6.33,6.33,0,1,1,6.33,6.33h0A6.33,6.33,0,0,1,234.38,212.94Z"/>
    <circle class="cls-4" cx="240.71" cy="212.94" r="6.33"/>
    <polygon class="cls-3" points="263.08 168.36 312.69 168.36 317.34 162.28 263.08 162.28 263.08 168.36"/>
    <polygon class="cls-9" points="337.96 168.36 337.96 162.28 317.34 162.28 312.69 168.36 337.96 168.36"/>
    <polygon class="cls-3" points="263.08 192.03 294.6 192.03 299.24 185.95 263.08 185.95 263.08 192.03"/>
    <polygon class="cls-9" points="337.96 192.03 337.96 185.95 299.24 185.95 294.6 192.03 337.96 192.03"/>
    <polygon class="cls-9" points="337.96 215.98 337.96 209.9 280.93 209.9 276.29 215.98 337.96 215.98"/>
    <polygon class="cls-3" points="263.08 215.98 276.29 215.98 280.93 209.9 263.08 209.9 263.08 215.98"/>
    <path class="cls-5" d="M289.93,252h48V236h-48v16Zm12-10h24v4h-24v-4Z"/>
    <rect class="cls-9" x="301.96" y="241.96" width="24" height="4.03"/>
    <polygon class="cls-10" points="273.96 241.96 273.96 245.99 253.34 245.99 248.76 251.97 285.96 251.97 285.96 235.97 261 235.97 256.42 241.96 273.96 241.96"/>
    <polygon class="cls-8" points="237.96 251.97 248.76 251.97 253.34 245.99 249.96 245.99 249.96 241.96 256.42 241.96 261 235.97 237.96 235.97 237.96 251.97"/>
    <polygon class="cls-3" points="273.96 241.96 256.42 241.96 253.34 245.99 273.96 245.99 273.96 241.96"/>
    <polygon class="cls-4" points="249.96 241.96 249.96 245.99 253.34 245.99 256.42 241.96 249.96 241.96"/>
  </g>
</svg>
