<svg id="Layer_1" data-name="Layer 1" xmlns="http://www.w3.org/2000/svg" width="240" height="112" viewBox="0 0 240 112">
  <defs>
    <style>
      .cls-1 {
        fill: #fff;
      }

      .cls-2 {
        fill: #eaeaea;
      }

      .cls-3 {
        fill: #3b534d;
      }

      .cls-4 {
        fill: #333;
      }
    </style>
  </defs>
  <title>home-highlights-icons</title>
  <g>
    <path class="cls-1" d="M288.37,2171.05a5.39,5.39,0,0,0-4.27,0,5.58,5.58,0,0,0-2.92,2.93,5.39,5.39,0,0,0,0,4.26,5.6,5.6,0,0,0,2.92,2.92,5.38,5.38,0,0,0,4.27,0,5.62,5.62,0,0,0,1.75-1.18,5.69,5.69,0,0,0,1.18-1.74,5.39,5.39,0,0,0,0-4.26,5.55,5.55,0,0,0-2.93-2.93" transform="translate(-193.57 -2120.11)"/>
    <path class="cls-1" d="M286.07,2156.86a19.22,19.22,0,0,0-13.36,5.59L278,2173Z" transform="translate(-193.57 -2120.11)"/>
    <path class="cls-1" d="M284.79,2168a7.6,7.6,0,0,1,1.45-.14H303.6a19.35,19.35,0,0,0-2.55-4,19.6,19.6,0,0,0-3.39-3.22,19.15,19.15,0,0,0-4.07-2.31,18.84,18.84,0,0,0-4.55-1.26l-5.65,11.28a10.65,10.65,0,0,1,1.41-.38" transform="translate(-193.57 -2120.11)"/>
    <path class="cls-1" d="M270.75,2164.72a19.18,19.18,0,0,0-3.76,11.39,18.93,18.93,0,0,0,.82,5.5h11.41Z" transform="translate(-193.57 -2120.11)"/>
    <path class="cls-1" d="M286.41,2195.36a19.21,19.21,0,0,0,13.36-5.59l-5.29-10.59Z" transform="translate(-193.57 -2120.11)"/>
    <path class="cls-1" d="M293.26,2170.61l8.46,16.89a19.06,19.06,0,0,0,2.94-16.89H293.26Z" transform="translate(-193.57 -2120.11)"/>
    <path class="cls-1" d="M287.69,2184.22a7.52,7.52,0,0,1-1.45.14H268.88a18.8,18.8,0,0,0,2.55,4,19.69,19.69,0,0,0,3.39,3.21,19.07,19.07,0,0,0,4.07,2.31,18.74,18.74,0,0,0,4.55,1.26l5.65-11.28a10.37,10.37,0,0,1-1.41.38" transform="translate(-193.57 -2120.11)"/>
    <polygon class="cls-2" points="152.19 60.86 148.96 54.37 143.66 51.73 143.12 52.43 145.71 57.63 152.19 60.86"/>
    <path class="cls-1" d="M330.64,2165.84l8.08,4,8.87-11.6c-0.24-.09-0.48-0.21-0.73-0.29a18.72,18.72,0,0,0-4.49-.9V2160h-2.93v-2.89a18.73,18.73,0,0,0-4.49.9,19.35,19.35,0,0,0-4,1.89,19.21,19.21,0,0,0-6.22,6.22,19.37,19.37,0,0,0-1.89,4,18.69,18.69,0,0,0-.9,4.49h2.89v2.93h-2.89a18.66,18.66,0,0,0,.9,4.49,19.38,19.38,0,0,0,1.89,4c0.24,0.39.51,0.75,0.78,1.11l9.6-12.55Z" transform="translate(-193.57 -2120.11)"/>
    <polygon class="cls-1" points="142.48 51.14 143.12 52.43 143.65 51.73 142.48 51.14"/>
    <path class="cls-2" d="M330.9,2192.33a19.38,19.38,0,0,0,4,1.89,18.68,18.68,0,0,0,4.49.9v-2.89h2.93v2.89a18.68,18.68,0,0,0,4.49-.9,19.4,19.4,0,0,0,4-1.89,19.21,19.21,0,0,0,6.22-6.22,19.33,19.33,0,0,0,1.89-4,18.67,18.67,0,0,0,.9-4.49H357v-2.93h2.89a18.68,18.68,0,0,0-.9-4.49,19.36,19.36,0,0,0-1.89-4,18.71,18.71,0,0,0-9.54-7.82l-8.87,11.6,5.6,2.81,6.85,13.68-13.68-6.85-2.43-4.85-9.6,12.55a18.3,18.3,0,0,0,5.44,5.11" transform="translate(-193.57 -2120.11)"/>
    <path class="cls-1" d="M248.69,2166.39l-5.86,1.36a18.8,18.8,0,0,0-1.37-1.51q-0.7-.69-1.52-1.38l1.36-5.86-4.5-1.86-3.2,5.1-1-.09c-0.35,0-.69,0-1,0s-0.69,0-1,0l-1,.09-3.18-5.1-4.5,1.86,1.36,5.86a18.78,18.78,0,0,0-1.51,1.37q-0.69.7-1.38,1.52l-5.86-1.36-1.86,4.49,5.1,3.2-0.09,1q0,0.51,0,1t0,1l0.09,1-5.1,3.18,1.86,4.49,5.86-1.36a18.45,18.45,0,0,0,1.37,1.51q0.7,0.69,1.52,1.38l-1.36,5.86,4.5,1.86,3.2-5.1,1,0.09c0.35,0,.68,0,1,0s0.69,0,1,0l1-.09,3.18,5.1,4.5-1.86-1.36-5.86a18.59,18.59,0,0,0,1.51-1.37q0.69-.7,1.38-1.52l5.86,1.36,1.86-4.49-5.1-3.2,0.09-1c0-.34,0-0.68,0-1s0-.67,0-1-0.06-.68-0.09-1l5.1-3.18Zm-9.63,12.89a8.13,8.13,0,0,1-4.32,4.32,8.17,8.17,0,0,1-6.33,0,8.12,8.12,0,0,1-4.32-4.32,8.17,8.17,0,0,1,0-6.33,8.12,8.12,0,0,1,4.32-4.32,8.17,8.17,0,0,1,6.33,0,8.13,8.13,0,0,1,4.32,4.32,8.17,8.17,0,0,1,0,6.33" transform="translate(-193.57 -2120.11)"/>
    <path class="cls-1" d="M235.61,2172.07a5.73,5.73,0,0,0-1.82-1.22,5.81,5.81,0,0,0-4.45,0,5.69,5.69,0,0,0-3,3,5.81,5.81,0,0,0,0,4.45,5.69,5.69,0,0,0,3,3,5.81,5.81,0,0,0,4.45,0,5.69,5.69,0,0,0,3-3,5.81,5.81,0,0,0,0-4.45,5.73,5.73,0,0,0-1.22-1.82" transform="translate(-193.57 -2120.11)"/>
    <path class="cls-2" d="M387.69,2170.61q-0.17,1.38-.27,2.74t-0.1,2.76q0,1.4.1,2.76t0.27,2.74h15.77q0.17-1.37.27-2.74t0.1-2.76q0-1.4-.1-2.76t-0.27-2.74H387.69Z" transform="translate(-193.57 -2120.11)"/>
    <path class="cls-2" d="M406.23,2170.61q0.17,1.38.26,2.74t0.09,2.76q0,1.4-.09,2.76t-0.26,2.74H414a19.42,19.42,0,0,0,0-11h-7.8Z" transform="translate(-193.57 -2120.11)"/>
    <path class="cls-2" d="M433.57,2120.11H376.78l-27.31,35.72a22,22,0,0,1,10.45,9.17,22.08,22.08,0,0,1,2.21,5.26,22.37,22.37,0,0,1,0,11.71,22,22,0,0,1-15.36,15.37,22.4,22.4,0,0,1-11.71,0,21.94,21.94,0,0,1-9.72-5.65,21.76,21.76,0,0,1-1.76-2l-32.43,42.42H433.57v-112ZM416.79,2182a22.27,22.27,0,0,1-2.21,5.26,21.95,21.95,0,0,1-7.89,7.9,22.2,22.2,0,0,1-5.26,2.21,22.17,22.17,0,0,1-11.69,0,22.2,22.2,0,0,1-5.26-2.21,22,22,0,0,1-7.9-7.9,22.33,22.33,0,0,1-2.21-5.25,22.21,22.21,0,0,1,0-11.7,22.3,22.3,0,0,1,2.21-5.26,22,22,0,0,1,7.9-7.9,22.38,22.38,0,0,1,5.25-2.21,22.21,22.21,0,0,1,11.7,0,22.33,22.33,0,0,1,5.26,2.21,22,22,0,0,1,7.89,7.9,22.3,22.3,0,0,1,2.21,5.26,22.17,22.17,0,0,1,0,11.69" transform="translate(-193.57 -2120.11)"/>
    <path class="cls-2" d="M386.77,2189.55a25.85,25.85,0,0,1-.83-2.59q-0.34-1.31-.6-2.6h-7.15a18.31,18.31,0,0,0,2,3.28,19.5,19.5,0,0,0,2.58,2.8,19.86,19.86,0,0,0,3.07,2.26,18.39,18.39,0,0,0,3.46,1.61,18.11,18.11,0,0,1-1.4-2.28,23.19,23.19,0,0,1-1.11-2.48" transform="translate(-193.57 -2120.11)"/>
    <path class="cls-2" d="M403,2184.36H388.16q0.17,0.84.49,2t0.8,2.36a25.06,25.06,0,0,0,1.08,2.42,12,12,0,0,0,1.39,2.14,7.12,7.12,0,0,0,1.69,1.53,3.62,3.62,0,0,0,3.93,0,7.14,7.14,0,0,0,1.69-1.53,12,12,0,0,0,1.39-2.14,25.05,25.05,0,0,0,1.09-2.42q0.47-1.23.79-2.36t0.49-2" transform="translate(-193.57 -2120.11)"/>
    <path class="cls-2" d="M405.2,2187a25.85,25.85,0,0,1-.83,2.59,23.29,23.29,0,0,1-1.11,2.48,18.11,18.11,0,0,1-1.4,2.28,18.41,18.41,0,0,0,3.46-1.61,19.86,19.86,0,0,0,3.07-2.26,19.5,19.5,0,0,0,2.58-2.8,18.35,18.35,0,0,0,2-3.28H405.8q-0.26,1.29-.6,2.6" transform="translate(-193.57 -2120.11)"/>
    <path class="cls-2" d="M384.66,2178.87q-0.09-1.36-.09-2.76t0.09-2.76q0.09-1.36.26-2.74h-7.8a19.42,19.42,0,0,0,0,11h7.8q-0.17-1.37-.26-2.74" transform="translate(-193.57 -2120.11)"/>
    <path class="cls-2" d="M385.95,2165.26a26,26,0,0,1,.83-2.59,23.27,23.27,0,0,1,1.11-2.48,18.25,18.25,0,0,1,1.4-2.28,18.54,18.54,0,0,0-3.46,1.61,19.94,19.94,0,0,0-3.07,2.26,19.61,19.61,0,0,0-2.58,2.8,18.32,18.32,0,0,0-2,3.28h7.15q0.26-1.29.6-2.6" transform="translate(-193.57 -2120.11)"/>
    <path class="cls-1" d="M321.9,2187.23a22.07,22.07,0,0,1-2.21-5.26,22.39,22.39,0,0,1,0-11.71,22,22,0,0,1,15.37-15.37,22.39,22.39,0,0,1,11.71,0,22.66,22.66,0,0,1,2.71.94l27.31-35.72H193.57v112h97.57l32.43-42.42a22.13,22.13,0,0,1-1.68-2.47M248,2175.72c0,0.13,0,.26,0,0.39s0,0.26,0,.39,0,0.26,0,.39l5.6,3.48-3.44,8.28-6.42-1.47q-0.52.56-1.08,1.08l1.47,6.42-8.28,3.44-3.48-5.6h-1.56l-3.48,5.6-8.28-3.44,1.47-6.42q-0.56-.52-1.08-1.08l-6.42,1.47-3.44-8.28,5.6-3.48c0-.13,0-0.26,0-0.39s0-.26,0-0.39,0-.26,0-0.39,0-.26,0-0.39l-5.6-3.48,3.44-8.28,6.42,1.47q0.52-.56,1.08-1.08l-1.47-6.42,8.28-3.44,3.48,5.6h1.56l3.48-5.6,8.28,3.44-1.47,6.42q0.56,0.52,1.08,1.08l6.42-1.47,3.44,8.28-5.6,3.48c0,0.13,0,.26,0,0.39m59.47,6.22a22.11,22.11,0,0,1-15.38,15.38,22.09,22.09,0,0,1-11.67,0A22.11,22.11,0,0,1,265,2181.94a22.09,22.09,0,0,1,0-11.67,22.11,22.11,0,0,1,15.38-15.38,22.09,22.09,0,0,1,11.67,0,22.11,22.11,0,0,1,15.38,15.38,22.09,22.09,0,0,1,0,11.67" transform="translate(-193.57 -2120.11)"/>
    <path class="cls-2" d="M404.37,2162.67a26,26,0,0,1,.83,2.59q0.34,1.31.6,2.6H413a18.35,18.35,0,0,0-2-3.28,19.61,19.61,0,0,0-2.58-2.8,20,20,0,0,0-3.07-2.26,18.54,18.54,0,0,0-3.46-1.61,18.38,18.38,0,0,1,1.4,2.28,23.38,23.38,0,0,1,1.11,2.48" transform="translate(-193.57 -2120.11)"/>
    <path class="cls-2" d="M388.16,2167.86H403q-0.17-.84-0.49-2t-0.8-2.36a25.06,25.06,0,0,0-1.08-2.42,12.06,12.06,0,0,0-1.39-2.14,7.16,7.16,0,0,0-1.69-1.53,3.62,3.62,0,0,0-3.93,0,7.14,7.14,0,0,0-1.69,1.53,12.06,12.06,0,0,0-1.39,2.14,25.05,25.05,0,0,0-1.09,2.42q-0.47,1.23-.79,2.36t-0.49,2" transform="translate(-193.57 -2120.11)"/>
    <path class="cls-3" d="M250.14,2163.58l-6.42,1.47q-0.52-.56-1.08-1.08l1.47-6.42-8.28-3.44-3.48,5.6h-1.56l-3.48-5.6-8.28,3.44,1.47,6.42q-0.56.52-1.08,1.08l-6.42-1.47-3.44,8.28,5.6,3.48c0,0.13,0,.26,0,0.39s0,0.26,0,.39,0,0.26,0,.39,0,0.26,0,.39l-5.6,3.48,3.44,8.28,6.42-1.47q0.52,0.56,1.08,1.08l-1.47,6.42,8.28,3.44,3.48-5.6h1.56l3.48,5.6,8.28-3.44-1.47-6.42q0.56-.52,1.08-1.08l6.42,1.47,3.44-8.28-5.6-3.48c0-.13,0-0.26,0-0.39s0-.26,0-0.39,0-.26,0-0.39,0-.26,0-0.39l5.6-3.48Zm-4.69,10.48c0,0.33.06,0.67,0.09,1s0,0.68,0,1,0,0.69,0,1l-0.09,1,5.1,3.2-1.86,4.49-5.86-1.36q-0.69.82-1.38,1.52a18.79,18.79,0,0,1-1.51,1.37l1.36,5.86-4.5,1.86-3.18-5.1-1,.09q-0.51,0-1,0c-0.33,0-.67,0-1,0l-1-.09-3.2,5.1-4.5-1.86,1.36-5.86q-0.82-.69-1.52-1.38a18.43,18.43,0,0,1-1.37-1.51l-5.86,1.36-1.86-4.49,5.1-3.18c0-.33-0.06-0.67-0.09-1s0-.68,0-1,0-.69,0-1l0.09-1-5.1-3.2,1.86-4.5,5.86,1.36q0.69-.82,1.38-1.52a18.79,18.79,0,0,1,1.51-1.37l-1.36-5.86,4.5-1.86,3.18,5.1,1-.09c0.34,0,.68,0,1,0s0.67,0,1,0l1,0.09,3.2-5.1,4.5,1.86-1.36,5.86q0.82,0.69,1.52,1.38a19,19,0,0,1,1.37,1.51l5.86-1.36,1.86,4.5Z" transform="translate(-193.57 -2120.11)"/>
    <path class="cls-3" d="M237.32,2170.36a8.18,8.18,0,0,0-2.58-1.74,8.17,8.17,0,0,0-6.33,0,8.13,8.13,0,0,0-4.32,4.32,8.17,8.17,0,0,0,0,6.33,8.12,8.12,0,0,0,4.32,4.32,8.17,8.17,0,0,0,6.33,0,8.13,8.13,0,0,0,4.32-4.32,8.19,8.19,0,0,0,0-6.33,8.2,8.2,0,0,0-1.74-2.58m-0.49,8a5.7,5.7,0,0,1-3,3,5.81,5.81,0,0,1-4.45,0,5.69,5.69,0,0,1-3-3,5.81,5.81,0,0,1,0-4.45,5.69,5.69,0,0,1,3-3,5.81,5.81,0,0,1,4.45,0,5.7,5.7,0,0,1,3,3,5.81,5.81,0,0,1,0,4.45" transform="translate(-193.57 -2120.11)"/>
    <path class="cls-3" d="M305.23,2165a22.11,22.11,0,0,0-13.16-10.13,22.09,22.09,0,0,0-11.67,0A22.11,22.11,0,0,0,265,2170.28a22.09,22.09,0,0,0,0,11.67,22.11,22.11,0,0,0,15.38,15.38,22.09,22.09,0,0,0,11.67,0,22.11,22.11,0,0,0,15.38-15.38,22.09,22.09,0,0,0,0-11.67,22.07,22.07,0,0,0-2.22-5.25M289,2157.1a18.91,18.91,0,0,1,4.55,1.26,19.19,19.19,0,0,1,4.07,2.31,19.52,19.52,0,0,1,3.39,3.22,19.25,19.25,0,0,1,2.55,4H286.24a7.59,7.59,0,0,0-1.45.14,10.48,10.48,0,0,0-1.41.38Zm2.71,19a5.23,5.23,0,0,1-.44,2.14,5.56,5.56,0,0,1-2.93,2.92,5.38,5.38,0,0,1-4.27,0,5.6,5.6,0,0,1-2.92-2.92,5.39,5.39,0,0,1,0-4.27,5.58,5.58,0,0,1,2.92-2.93,5.39,5.39,0,0,1,4.27,0,5.54,5.54,0,0,1,2.93,2.93,5.26,5.26,0,0,1,.44,2.13m-12.89-17.77a19.21,19.21,0,0,1,7.22-1.48L278,2173l-5.29-10.59a19,19,0,0,1,6.14-4.1M267,2176.11a19.18,19.18,0,0,1,3.76-11.39l8.46,16.89H267.81a19,19,0,0,1-.82-5.5m16.46,19a18.83,18.83,0,0,1-4.55-1.26,19.11,19.11,0,0,1-4.07-2.31,19.69,19.69,0,0,1-3.39-3.21,18.8,18.8,0,0,1-2.55-4h17.36a7.52,7.52,0,0,0,1.45-.14,10.38,10.38,0,0,0,1.41-.38Zm10.18-1.25a19.17,19.17,0,0,1-7.22,1.48l8.08-16.18,5.29,10.59a19,19,0,0,1-6.14,4.1m10.89-11.77a19.14,19.14,0,0,1-2.79,5.39l-8.46-16.89h11.41a19,19,0,0,1-.15,11.49" transform="translate(-193.57 -2120.11)"/>
    <polygon class="cls-4" points="148.96 54.37 152.19 60.86 145.71 57.63 143.12 52.43 141.49 54.56 143.92 59.41 157.6 66.27 150.75 52.59 145.15 49.78 143.66 51.73 148.96 54.37"/>
    <polygon class="cls-3" points="141.49 54.56 143.12 52.43 142.48 51.14 143.66 51.73 145.15 49.78 137.07 45.73 141.49 54.56"/>
    <path class="cls-4" d="M350.91,2159.89a19.21,19.21,0,0,1,6.22,6.22,19.35,19.35,0,0,1,1.89,4,18.67,18.67,0,0,1,.91,4.49H357v2.93h2.89a18.67,18.67,0,0,1-.91,4.49,19.33,19.33,0,0,1-1.89,4,19.21,19.21,0,0,1-6.22,6.22,19.41,19.41,0,0,1-4,1.89,18.67,18.67,0,0,1-4.49.91v-2.89h-2.93v2.89a18.66,18.66,0,0,1-4.49-.91,19.38,19.38,0,0,1-4-1.89,18.3,18.3,0,0,1-5.44-5.11l-1.89,2.47a21.93,21.93,0,0,0,11.48,7.64,22.39,22.39,0,0,0,11.71,0A22,22,0,0,0,362.13,2182a22.39,22.39,0,0,0,0-11.71A22,22,0,0,0,352,2157.1a21.81,21.81,0,0,0-2.55-1.27l-1.88,2.46a19.22,19.22,0,0,1,3.32,1.6" transform="translate(-193.57 -2120.11)"/>
    <path class="cls-3" d="M340.91,2154.11a21.8,21.8,0,0,0-5.86.78,22,22,0,0,0-15.37,15.37,22.39,22.39,0,0,0,0,11.71,21.83,21.83,0,0,0,3.89,7.73l1.89-2.47c-0.27-.37-0.54-0.73-0.78-1.11a19.38,19.38,0,0,1-1.89-4,18.67,18.67,0,0,1-.9-4.49h2.89v-2.93h-2.89a18.68,18.68,0,0,1,.9-4.49,19.41,19.41,0,0,1,1.89-4,19.21,19.21,0,0,1,6.22-6.22,19.38,19.38,0,0,1,4-1.89,18.72,18.72,0,0,1,4.49-.91V2160h2.93v-2.89a18.72,18.72,0,0,1,4.49.91c0.25,0.08.48,0.2,0.73,0.29l1.88-2.46a22.66,22.66,0,0,0-2.71-.94,21.81,21.81,0,0,0-5.85-.78" transform="translate(-193.57 -2120.11)"/>
    <path class="cls-4" d="M414.58,2165a22,22,0,0,0-7.9-7.9,22.31,22.31,0,0,0-5.26-2.21,22.21,22.21,0,0,0-11.7,0,22.35,22.35,0,0,0-5.25,2.21,22,22,0,0,0-7.9,7.9,22.22,22.22,0,0,0-2.21,5.26,22.21,22.21,0,0,0,0,11.7,22.25,22.25,0,0,0,2.21,5.25,22,22,0,0,0,7.9,7.9,22.22,22.22,0,0,0,5.26,2.21,22.17,22.17,0,0,0,11.69,0,22.22,22.22,0,0,0,5.26-2.21,22,22,0,0,0,7.9-7.9,22.25,22.25,0,0,0,2.21-5.26,22.17,22.17,0,0,0,0-11.69,22.26,22.26,0,0,0-2.21-5.26m-9.25-5.48a20,20,0,0,1,3.07,2.26,19.62,19.62,0,0,1,2.58,2.8,18.37,18.37,0,0,1,2,3.28H405.8q-0.26-1.29-.6-2.6a26.19,26.19,0,0,0-.83-2.59,23.5,23.5,0,0,0-1.11-2.48,18.36,18.36,0,0,0-1.4-2.28,18.61,18.61,0,0,1,3.46,1.61m-1.5,16.59q0,1.4-.1,2.76t-0.27,2.74H387.69q-0.17-1.37-.27-2.74t-0.1-2.76q0-1.4.1-2.76t0.27-2.74h15.77q0.17,1.38.27,2.74t0.1,2.76m-13.29-15a12.06,12.06,0,0,1,1.39-2.14,7.14,7.14,0,0,1,1.69-1.53,3.62,3.62,0,0,1,3.93,0,7.16,7.16,0,0,1,1.69,1.53,12.06,12.06,0,0,1,1.39,2.14,25.05,25.05,0,0,1,1.09,2.42q0.47,1.23.79,2.36t0.49,2H388.16q0.17-.84.49-2t0.8-2.36a25.06,25.06,0,0,1,1.08-2.42m-10.37,3.48a19.56,19.56,0,0,1,2.58-2.8,19.94,19.94,0,0,1,3.07-2.26,18.61,18.61,0,0,1,3.46-1.61,18.24,18.24,0,0,0-1.4,2.28,23.3,23.3,0,0,0-1.11,2.48,25.93,25.93,0,0,0-.83,2.59q-0.35,1.31-.6,2.6h-7.15a18.31,18.31,0,0,1,2-3.28m-3.85,11.53a19,19,0,0,1,.8-5.5h7.8q-0.17,1.38-.26,2.74t-0.09,2.76q0,1.4.09,2.76t0.26,2.74h-7.8a19,19,0,0,1-.8-5.5m9.5,16.59a19.81,19.81,0,0,1-3.07-2.26,19.45,19.45,0,0,1-2.58-2.8,18.27,18.27,0,0,1-2-3.28h7.15q0.26,1.29.6,2.6a25.76,25.76,0,0,0,.83,2.59,23.12,23.12,0,0,0,1.11,2.48,18.1,18.1,0,0,0,1.4,2.28,18.47,18.47,0,0,1-3.46-1.61m14.79-1.58a12,12,0,0,1-1.39,2.14,7.14,7.14,0,0,1-1.69,1.53,3.62,3.62,0,0,1-3.93,0,7.12,7.12,0,0,1-1.69-1.53,12,12,0,0,1-1.39-2.14,25.06,25.06,0,0,1-1.08-2.42q-0.47-1.23-.8-2.36t-0.49-2H403q-0.17.84-.49,2t-0.79,2.36a25.05,25.05,0,0,1-1.09,2.42m10.37-3.48a19.51,19.51,0,0,1-2.58,2.8,19.85,19.85,0,0,1-3.07,2.26,18.47,18.47,0,0,1-3.46,1.61,18.22,18.22,0,0,0,1.4-2.28,23.32,23.32,0,0,0,1.11-2.48,26,26,0,0,0,.83-2.59q0.34-1.31.6-2.6H413a18.34,18.34,0,0,1-2,3.28m3.05-6h-7.8q0.17-1.37.26-2.74t0.09-2.76q0-1.4-.09-2.76t-0.26-2.74H414a19.42,19.42,0,0,1,0,11" transform="translate(-193.57 -2120.11)"/>
  </g>
</svg>
