<svg id="Layer_1" data-name="Layer 1" xmlns="http://www.w3.org/2000/svg" width="240" height="112" viewBox="0 0 240 112">
  <defs>
    <style>
      .cls-1 {
        fill: #fff;
      }

      .cls-2 {
        fill: #eaeaea;
      }

      .cls-3 {
        fill: #3b534d;
      }

      .cls-4 {
        fill: #333;
      }
    </style>
  </defs>
  <title>home-highlights-typography</title>
  <g>
    <path class="cls-1" d="M603.68,2163.12a21.09,21.09,0,0,1-.6-2.82H603a18.34,18.34,0,0,1-.63,2.82l-6.18,18h0.61l9-11.83Z" transform="translate(-460.16 -2120.11)"/>
    <path class="cls-1" d="M495,2159.1q-0.22-.78-0.47-1.57h-0.13a30.58,30.58,0,0,1-1,3.36l-7.56,20.87h17.35l-7.59-20.8a17.12,17.12,0,0,1-.56-1.85" transform="translate(-460.16 -2120.11)"/>
    <polygon class="cls-2" points="145.65 49.12 136.6 60.96 149.76 60.96 145.65 49.12"/>
    <path class="cls-1" d="M548.27,2159.07h-0.13a16.82,16.82,0,0,1-.72,3l-7,19.17H556L549,2162.08a18.34,18.34,0,0,1-.69-3" transform="translate(-460.16 -2120.11)"/>
    <path class="cls-2" d="M700.16,2120.11H643.37l-32.57,42.6,13.34,35.9h-8.19l-4-11.45H594.2l-3.89,11.45h-7l-25.62,33.5H700.16v-112Zm-27,78.5-3.2-10h-16l-3.17,10h-11l16.38-45h12l16,45h-11Z" transform="translate(-460.16 -2120.11)"/>
    <path class="cls-2" d="M662,2161.64h-0.25a17.19,17.19,0,0,1-.78,3.92l-4.9,15.25h11.52l-4.83-15.13a19.66,19.66,0,0,1-.75-4" transform="translate(-460.16 -2120.11)"/>
    <path class="cls-1" d="M582.15,2198.61l16.85-45h8.41l3.38,9.1,32.57-42.6H460.16v112h97.57l25.61-33.5h-1.19Zm-72.76,0-5.15-14H484.73l-5.15,14h-3.42l17-45h2.95l16.79,45h-3.48Zm53.12,0L557.75,2186H538.67l-4.49,12.61h-5.87l17.26-45H551l17.32,45h-5.84Z" transform="translate(-460.16 -2120.11)"/>
    <path class="cls-3" d="M493.14,2153.61l-17,45h3.42l5.15-14h19.52l5.15,14h3.48l-16.79-45h-2.95Zm-7.31,28.15,7.56-20.87a30.58,30.58,0,0,0,1-3.36h0.13q0.25,0.78.47,1.57a17.12,17.12,0,0,0,.56,1.85l7.59,20.8H485.83Z" transform="translate(-460.16 -2120.11)"/>
    <path class="cls-3" d="M545.57,2153.61l-17.26,45h5.87l4.49-12.61h19.08l4.77,12.61h5.84l-17.32-45h-5.46Zm-5.15,27.65,7-19.17a16.91,16.91,0,0,0,.72-3h0.13a18.13,18.13,0,0,0,.69,3l7.06,19.17h-15.6Z" transform="translate(-460.16 -2120.11)"/>
    <polygon class="cls-4" points="149.76 60.96 136.6 60.96 123.18 78.5 130.15 78.5 134.04 67.05 151.74 67.05 155.79 78.5 163.98 78.5 150.63 42.6 145.65 49.12 149.76 60.96"/>
    <path class="cls-3" d="M599,2153.61l-16.85,45h1.19l13.41-17.54h-0.61l6.18-17.95a18.22,18.22,0,0,0,.63-2.83h0.13a21.08,21.08,0,0,0,.6,2.83l2.13,6.11,5-6.52-3.38-9.1H599Z" transform="translate(-460.16 -2120.11)"/>
    <path class="cls-4" d="M656.14,2153.61l-16.38,45h11l3.17-10h16l3.2,10h11l-16-45h-12Zm-0.06,27.21,4.89-15.25a17.16,17.16,0,0,0,.79-3.92H662a19.6,19.6,0,0,0,.75,4l4.83,15.13H656.08Z" transform="translate(-460.16 -2120.11)"/>
  </g>
</svg>
