<svg id="Layer_1" data-name="Layer 1" xmlns="http://www.w3.org/2000/svg" width="1136" height="480" viewBox="0 0 1136 480">
  <defs>
    <style>
      .cls-1 {
        opacity: 0.08;
      }

      .cls-2 {
        fill: #005385;
      }

      .cls-3 {
        fill: #cce2f0;
      }

      .cls-4 {
        fill: #9ac5e0;
      }

      .cls-5 {
        fill: #0a3859;
      }

      .cls-6 {
        fill: #348bc2;
      }

      .cls-7 {
        fill: #0464a9;
      }

      .cls-8 {
        fill: none;
      }

      .cls-9 {
        fill: #fff;
      }
    </style>
  </defs>
  <title>home-background</title>
  <g class="cls-1">
    <circle class="cls-2" cx="1100.46" cy="341.17" r="45.98"/>
    <g>
      <path class="cls-3" d="M1103,311.31a22.76,22.76,0,0,0-4.25-2,22.46,22.46,0,0,1,1.72,2.8,28.73,28.73,0,0,1,1.36,3.05c0.21,0.55.36,1.12,0.54,1.68l3-3.92A24.68,24.68,0,0,0,1103,311.31Z"/>
      <path class="cls-4" d="M1099.82,320.2l-1,1.36h1.36A5.74,5.74,0,0,1,1099.82,320.2Z"/>
      <path class="cls-4" d="M1083.45,347.18a30.73,30.73,0,0,0,1.33,3,14.83,14.83,0,0,0,1.7,2.63,8.77,8.77,0,0,0,2.07,1.88,4.45,4.45,0,0,0,4.83,0,8.77,8.77,0,0,0,2.07-1.88,14.84,14.84,0,0,0,1.7-2.63,30.71,30.71,0,0,0,1.33-3q0.58-1.51,1-2.91a23.46,23.46,0,0,0,.61-2.43h-16.87l-1,1.36c0.09,0.34.18,0.69,0.29,1.07A15.54,15.54,0,0,0,1083.45,347.18Z"/>
      <path class="cls-4" d="M1101,335.09q0.12-1.68.12-3.39t-0.12-3.39q-0.12-1.68-.33-3.37h-4.52l-10.33,13.52h14.86Q1100.88,336.77,1101,335.09Z"/>
      <path class="cls-3" d="M1079.14,345q-0.42-1.61-.74-3.2h-8.8a22.57,22.57,0,0,0,2.43,4,24,24,0,0,0,3.17,3.45c0.45,0.41.93,0.78,1.42,1.15l3-3.92C1079.47,346,1079.28,345.55,1079.14,345Z"/>
      <path class="cls-3" d="M1081.82,341.84c0.08,0.4.19,0.87,0.32,1.36l1-1.36h-1.32Z"/>
      <path class="cls-4" d="M1083.24,354.07a22.44,22.44,0,0,1-1.72-2.8,28.72,28.72,0,0,1-1.36-3c-0.21-.55-0.36-1.12-0.54-1.68l-3,3.92a24.65,24.65,0,0,0,2.36,1.62A22.74,22.74,0,0,0,1083.24,354.07Z"/>
      <path class="cls-3" d="M1099.48,319.13q-0.4-1.4-1-2.91a30.71,30.71,0,0,0-1.33-3,14.84,14.84,0,0,0-1.7-2.63,8.77,8.77,0,0,0-2.07-1.88,4.45,4.45,0,0,0-4.83,0,8.77,8.77,0,0,0-2.07,1.88,14.84,14.84,0,0,0-1.7,2.63,30.73,30.73,0,0,0-1.33,3q-0.58,1.51-1,2.91a23.44,23.44,0,0,0-.61,2.43h16.87l1-1.36A5.74,5.74,0,0,0,1099.48,319.13Z"/>
      <path class="cls-3" d="M1081.28,324.94q-0.21,1.69-.33,3.37t-0.13,3.41q0,1.72.12,3.39t0.33,3.37h4.55L1096.16,325H1081.3Z"/>
      <path class="cls-4" d="M1103.55,321.56h8.8a22.57,22.57,0,0,0-2.43-4,24.07,24.07,0,0,0-3.17-3.45c-0.45-.41-0.93-0.78-1.42-1.15l-3,3.92c0.16,0.5.35,1,.48,1.51Q1103.23,320,1103.55,321.56Z"/>
      <path class="cls-3" d="M1071.82,350.84a26.86,26.86,0,0,1-4.23-5.48,27.12,27.12,0,0,1,0-27.31,27,27,0,0,1,9.71-9.71,27.11,27.11,0,0,1,27.31,0,26.91,26.91,0,0,1,2.78,1.87l11.47-15a45.94,45.94,0,1,0-55.8,73l11.47-15A27,27,0,0,1,1071.82,350.84Z"/>
      <path class="cls-3" d="M1075.21,314.08a24.07,24.07,0,0,0-3.17,3.45,22.57,22.57,0,0,0-2.43,4h8.8q0.32-1.58.74-3.2a31.85,31.85,0,0,1,1-3.18,28.76,28.76,0,0,1,1.36-3.05,22.46,22.46,0,0,1,1.72-2.8,22.76,22.76,0,0,0-4.25,2A24.53,24.53,0,0,0,1075.21,314.08Z"/>
      <path class="cls-4" d="M1118.88,295.21l-11.47,15a26.76,26.76,0,0,1,6.93,7.84,27.12,27.12,0,0,1,0,27.31,27,27,0,0,1-9.71,9.71,27.11,27.11,0,0,1-27.31,0,26.9,26.9,0,0,1-2.78-1.87l-11.47,15A45.94,45.94,0,1,0,1118.88,295.21Z"/>
      <path class="cls-3" d="M1077.88,324.94h-9.59a23.88,23.88,0,0,0,0,13.52h9.59q-0.21-1.69-.32-3.37t-0.11-3.39q0-1.72.11-3.39T1077.88,324.94Z"/>
      <path class="cls-4" d="M1104.4,328.31q0.11,1.68.11,3.39t-0.11,3.39q-0.11,1.68-.32,3.37h9.59a23.88,23.88,0,0,0,0-13.52h-9.59Q1104.29,326.63,1104.4,328.31Z"/>
      <path class="cls-4" d="M1102.82,345a31.8,31.8,0,0,1-1,3.18,28.72,28.72,0,0,1-1.36,3,22.44,22.44,0,0,1-1.72,2.8,22.74,22.74,0,0,0,4.25-2,24.51,24.51,0,0,0,3.78-2.77,24,24,0,0,0,3.17-3.45,22.57,22.57,0,0,0,2.43-4h-8.8Q1103.23,343.43,1102.82,345Z"/>
      <path class="cls-5" d="M1106.75,314.08a24.07,24.07,0,0,1,3.17,3.45,22.57,22.57,0,0,1,2.43,4h-8.8q-0.32-1.58-.74-3.2c-0.13-.51-0.32-1-0.48-1.51l-2.56,3.35c0.13,0.49.24,1,.32,1.36h-1.36l-2.59,3.38h4.52q0.21,1.69.33,3.37t0.12,3.39q0,1.72-.12,3.39t-0.33,3.37h-14.84l-2.59,3.38h16.87q-0.21,1-.61,2.43a27.43,27.43,0,0,1-1,2.91,30.71,30.71,0,0,1-1.33,3,14.84,14.84,0,0,1-1.7,2.63,8.77,8.77,0,0,1-2.07,1.88,4.45,4.45,0,0,1-4.83,0,8.77,8.77,0,0,1-2.07-1.88,14.83,14.83,0,0,1-1.7-2.63,30.73,30.73,0,0,1-1.33-3q-0.58-1.51-1-2.91c-0.11-.38-0.2-0.73-0.29-1.07l-2.56,3.35c0.18,0.56.33,1.12,0.54,1.68a28.72,28.72,0,0,0,1.36,3,22.44,22.44,0,0,0,1.72,2.8,22.74,22.74,0,0,1-4.25-2,24.65,24.65,0,0,1-2.36-1.62l-2.08,2.73a26.9,26.9,0,0,0,2.78,1.87,27.11,27.11,0,0,0,27.31,0,27,27,0,0,0,9.71-9.71,27.12,27.12,0,0,0,0-27.31,26.76,26.76,0,0,0-6.93-7.84l-2.08,2.73C1105.82,313.3,1106.29,313.72,1106.75,314.08Zm3.17,31.79a24,24,0,0,1-3.17,3.45,24.51,24.51,0,0,1-3.78,2.77,22.74,22.74,0,0,1-4.25,2,22.44,22.44,0,0,0,1.72-2.8,28.72,28.72,0,0,0,1.36-3,31.8,31.8,0,0,0,1-3.18q0.42-1.61.74-3.2h8.8a22.57,22.57,0,0,1-2.42,4h0Zm4.73-14.17a23.34,23.34,0,0,1-1,6.76h-9.59q0.21-1.69.32-3.37t0.11-3.39q0-1.72-.11-3.39t-0.32-3.37h9.59a23.35,23.35,0,0,1,1,6.78v0Z"/>
      <path class="cls-2" d="M1098.16,305.62a27.08,27.08,0,0,0-20.84,2.72,27,27,0,0,0-9.71,9.71,27.09,27.09,0,0,0,0,27.31,26.76,26.76,0,0,0,6.93,7.84l2.08-2.73a16.18,16.18,0,0,1-1.42-1.15,24,24,0,0,1-3.17-3.45,22.57,22.57,0,0,1-2.43-4h8.8q0.32,1.58.74,3.2c0.13,0.51.32,1,.48,1.51l2.56-3.35c-0.13-.49-0.24-1-0.32-1.36h1.36l2.59-3.38h-4.52q-0.21-1.69-.33-3.37t-0.14-3.4q0-1.72.12-3.39t0.33-3.37h14.86l2.59-3.38h-16.9q0.21-1,.61-2.43a27.39,27.39,0,0,1,1-2.91,30.73,30.73,0,0,1,1.33-3,14.84,14.84,0,0,1,1.7-2.63,8.77,8.77,0,0,1,2.07-1.88,4.45,4.45,0,0,1,4.83,0,8.77,8.77,0,0,1,2.07,1.88,14.84,14.84,0,0,1,1.7,2.63,30.71,30.71,0,0,1,1.33,3q0.58,1.51,1,2.91c0.11,0.38.2,0.73,0.29,1.07l2.56-3.35c-0.18-.56-0.33-1.12-0.54-1.68a28.73,28.73,0,0,0-1.36-3.05,22.46,22.46,0,0,0-1.72-2.8,22.76,22.76,0,0,1,4.25,2,24.67,24.67,0,0,1,2.36,1.62l2.08-2.73a26.91,26.91,0,0,0-2.78-1.87A27.36,27.36,0,0,0,1098.16,305.62Zm-20.6,29.48q0.11,1.68.32,3.37h-9.59a23.88,23.88,0,0,1,0-13.52h9.59q-0.21,1.69-.32,3.37t-0.11,3.39q0,1.71.11,3.38h0Zm4-23a28.76,28.76,0,0,0-1.36,3.05,31.85,31.85,0,0,0-1,3.18q-0.42,1.61-.74,3.2h-8.8a22.57,22.57,0,0,1,2.43-4,24.07,24.07,0,0,1,3.17-3.45,24.53,24.53,0,0,1,3.78-2.77,22.76,22.76,0,0,1,4.25-2,22.46,22.46,0,0,0-1.77,2.82Z"/>
    </g>
  </g>
  <g class="cls-1">
    <rect class="cls-2" x="-134.53" y="313.2" width="376.88" height="202.06"/>
    <g>
      <path class="cls-4" d="M232.88,303.72H106L82,335.16H207.39V352H69l-12.7,16.62H207.39v16.84h-164l-12.92,16.9H207.39V419.2H17.64l-66.2,86.58H232.88V303.72ZM207.39,482.4H100V446.61H207.39V482.4h0Z"/>
      <path class="cls-3" d="M1.72,419.2V402.36h28.8l12.92-16.9H1.72V368.62h54.6L69,352H1.72V335.17H81.9l24-31.44H-144V505.79h95.44l66.2-86.58H1.72ZM-71.14,427a50,50,0,0,1-49.95-50,50,50,0,0,1,49.91-49.94,50,50,0,0,1,50,49.95,50,50,0,0,1-50,49.94h0Z"/>
      <polygon class="cls-6" points="1.73 385.47 43.45 385.47 56.32 368.62 1.73 368.62 1.73 385.47"/>
      <polygon class="cls-7" points="207.39 385.47 207.39 368.62 56.32 368.62 43.45 385.47 207.39 385.47"/>
      <polygon class="cls-6" points="1.73 419.21 17.65 419.21 30.53 402.36 1.73 402.36 1.73 419.21"/>
      <polygon class="cls-7" points="207.39 419.21 207.39 402.36 30.53 402.36 17.65 419.21 207.39 419.21"/>
      <polygon class="cls-7" points="207.39 352.01 207.39 335.17 81.91 335.17 69.03 352.01 207.39 352.01"/>
      <polygon class="cls-6" points="1.73 352.01 69.03 352.01 81.91 335.17 1.73 335.17 1.73 352.01"/>
      <path class="cls-5" d="M100,482.4H207.39V446.61H100V482.4h0ZM126.82,460h53.69v9H126.82v-9Z"/>
      <rect class="cls-3" x="126.86" y="460" width="53.69" height="9.01"/>
    </g>
  </g>
  <g class="cls-1">
    <g>
      <path class="cls-2" d="M389.92,7.47h-49L274.07,191h44.8l12.95-40.84H397.1L410.16,191h45.06L422,97.72Zm-49.28,111,20-62.21a70.14,70.14,0,0,0,3.2-16h1a80.24,80.24,0,0,0,3.06,16.46l19.71,61.7h-47Z"/>
      <path class="cls-2" d="M520.59,56.72a121.46,121.46,0,0,0-26.69,3.33q-14.66,3.36-23.08,7.67v30.5q21.12-14,44.55-14t23.3,21.51l-35.59,4.74q-45.26,5.93-45.26,44.07,0,18,10.94,28.86t30,10.82q25.85,0,39-22h0.51V191h38.27V112.72Q576.65,56.72,520.59,56.72Zm18,81q0,12-7.17,19.9t-18.56,7.87q-8.19,0-13-4.42a14.7,14.7,0,0,1-4.8-11.33q0-15.23,19.71-17.79l23.81-3.07v8.83h0Z"/>
    </g>
    <g>
      <path class="cls-8" d="M485.64,140.33a14.7,14.7,0,0,0,4.8,11.33q4.8,4.42,13,4.42,11.39,0,18.56-7.87t7.17-19.9v-8.84l-23.81,3.07Q485.64,125.1,485.64,140.33Z"/>
      <path class="cls-8" d="M355.36,30.72h-1a70.14,70.14,0,0,1-3.2,16l-20,62.21h47l-19.71-61.7A80.24,80.24,0,0,1,355.36,30.72Z"/>
      <path class="cls-3" d="M380.45-2h-49L264.6,181.55h44.8l12.93-40.83h50.08l40.13-52.48ZM331.17,109l20-62.21a70.14,70.14,0,0,0,3.2-16h1a80.24,80.24,0,0,0,3.07,16.51L378.15,109h-47Z"/>
      <polygon class="cls-4" points="372.41 140.72 387.62 140.72 400.67 181.55 445.73 181.55 412.54 88.24 372.41 140.72"/>
      <path class="cls-4" d="M511.11,47.27a121.46,121.46,0,0,0-26.69,3.33q-14.66,3.33-23.11,7.68V88.72q21.12-14,44.55-14t23.3,21.51L493.57,101q-45.19,5.89-45.19,44,0,18,10.94,28.86t30,10.82q25.85,0,39-22h0.51v18.82H567.1V103.21Q567.18,47.28,511.11,47.27Zm18,81q0,12-7.17,19.9T503.38,156q-8.19,0-13-4.42a14.7,14.7,0,0,1-4.8-11.33q0-15.23,19.71-17.79l23.81-3.07v8.83h0Z"/>
    </g>
  </g>
  <g class="cls-1">
    <path class="cls-2" d="M1017.18,294.92H988v-0.2H983.6v0.2H967.48v-0.2h-4.42v0.2H947v-0.2l-4.62.2H905.68l-4.22-.2v0.2H885.14l-4.22-.2v0.2h-16.1v-0.2H860.4v0.2H622.61a8.83,8.83,0,0,0-8.79,8.8v73.8a8.83,8.83,0,0,0,8.83,8.83h394.53a8.83,8.83,0,0,0,8.83-8.83h0v-73.8A8.83,8.83,0,0,0,1017.18,294.92ZM645.94,326.67a14,14,0,1,1-14,14A14,14,0,0,1,645.94,326.67Z"/>
    <g>
      <circle class="cls-8" cx="636.46" cy="331.08" r="13.99"/>
      <polygon class="cls-3" points="768.58 295.83 768.58 285.35 752.46 285.35 752.46 316.91 768.58 295.83"/>
      <path class="cls-3" d="M748,322.72V285.35H731.92v26.31a2.21,2.21,0,0,1-4.42,0V285.35H711.39v26.31a2.21,2.21,0,0,1-4.42,0V285.35H690.82v26.31a2.21,2.21,0,0,1-4.42,0V285.35H670.32v39.56a2.21,2.21,0,0,1-4.42,0V285.35H613.14a8.83,8.83,0,0,0-8.83,8.83h0v62.39H722.13ZM636.46,345.06a14,14,0,1,1,14-14A14,14,0,0,1,636.46,345.06Z"/>
      <polygon class="cls-3" points="776.6 285.35 773 285.35 773 290.06 776.6 285.35"/>
      <path class="cls-4" d="M1007.71,285.35h-8.83v39.56a2.21,2.21,0,0,1-4.42,0V285.35H978.54v26.11a2.21,2.21,0,1,1-4.42,0h0V285.35H958v26.11a2.21,2.21,0,1,1-4.42,0h0V285.35H937.47v26.11a2.56,2.56,0,0,1-2.41,2.41,2.21,2.21,0,0,1-2.21-2.21h0V285.35H916.74v39.56a2.21,2.21,0,0,1-4.42,0V285.35H896.2v26.31a2.21,2.21,0,0,1-2.21,2.21h0a2,2,0,0,1-2-2.41V285.35H875.67v26.31a2.21,2.21,0,0,1-2.21,2.21h0a2,2,0,0,1-2-2.41V285.35H855.33v26.11a2.21,2.21,0,1,1-4.42,0h0V285.35H834.6v39.56a2.21,2.21,0,0,1-4.42,0V285.35H814.06v26.31a2.21,2.21,0,0,1-4.42,0V285.35H793.53v26.31a2.21,2.21,0,0,1-4.42,0V285.35H776.6l-3.6,4.71v21.6a2.21,2.21,0,0,1-4.42,0V295.83l-16.12,21.08v8a2.21,2.21,0,0,1-4.42,0v-2.19l-25.91,33.89h294.41V294.18A8.83,8.83,0,0,0,1007.71,285.35Z"/>
      <path class="cls-6" d="M706.66,376.81h301a8.83,8.83,0,0,0,8.83-8.83h0V356.57H722.13Z"/>
      <path class="cls-4" d="M604.31,356.57V368a8.83,8.83,0,0,0,8.83,8.83h93.52l15.47-20.24H604.31Z"/>
      <path class="cls-6" d="M996.67,327.11a2.21,2.21,0,0,0,2.21-2.21h0V285.35h-4.42v39.56A2.21,2.21,0,0,0,996.67,327.11Z"/>
      <rect class="cls-4" x="974.13" y="285.15" width="4.42" height="0.2"/>
      <path class="cls-6" d="M976.33,313.66a2.21,2.21,0,0,0,2.21-2.21h0v-26.1h-4.42v26.11A2.21,2.21,0,0,0,976.33,313.66Z"/>
      <rect class="cls-4" x="953.59" y="285.15" width="4.42" height="0.2"/>
      <path class="cls-6" d="M955.82,313.66a2.21,2.21,0,0,0,2.21-2.21h0v-26.1h-4.42v26.11A2.21,2.21,0,0,0,955.82,313.66Z"/>
      <polygon class="cls-4" points="937.48 285.15 932.86 285.35 932.86 285.35 937.48 285.35 937.48 285.15"/>
      <path class="cls-6" d="M935.07,313.86a2.56,2.56,0,0,0,2.41-2.41v-26.1h-4.66v26.31a2.21,2.21,0,0,0,2.22,2.2h0Z"/>
      <path class="cls-6" d="M914.53,327.11a2.21,2.21,0,0,0,2.21-2.21h0V285.35h-4.42v39.56A2.21,2.21,0,0,0,914.53,327.11Z"/>
      <polygon class="cls-4" points="896.21 285.35 891.99 285.15 891.99 285.35 896.21 285.35 896.21 285.35"/>
      <path class="cls-6" d="M894,313.86a2.21,2.21,0,0,0,2.21-2.21h0v-26.3H892v26.11A2,2,0,0,0,894,313.86Z"/>
      <polygon class="cls-4" points="875.67 285.35 871.46 285.15 871.46 285.35 875.67 285.35 875.67 285.35"/>
      <path class="cls-6" d="M873.46,313.86a2.21,2.21,0,0,0,2.21-2.21h0v-26.3h-4.22v26.11A2,2,0,0,0,873.46,313.86Z"/>
      <rect class="cls-4" x="850.92" y="285.15" width="4.42" height="0.2"/>
      <path class="cls-6" d="M853.13,313.66a2.21,2.21,0,0,0,2.21-2.21h0v-26.1h-4.42v26.11A2.21,2.21,0,0,0,853.13,313.66Z"/>
      <path class="cls-6" d="M832.39,327.11a2.21,2.21,0,0,0,2.21-2.21h0V285.35h-4.42v39.56A2.21,2.21,0,0,0,832.39,327.11Z"/>
      <path class="cls-6" d="M811.82,313.86a2.21,2.21,0,0,0,2.21-2.21h0v-26.3h-4.42v26.31A2.21,2.21,0,0,0,811.82,313.86Z"/>
      <path class="cls-6" d="M791.32,313.86a2.21,2.21,0,0,0,2.21-2.21h0v-26.3h-4.42v26.31A2.21,2.21,0,0,0,791.32,313.86Z"/>
      <path class="cls-6" d="M768.58,311.65a2.21,2.21,0,0,0,4.42,0V290l-4.42,5.78v15.82Z"/>
      <polygon class="cls-4" points="773 290.06 773 285.35 768.58 285.35 768.58 295.83 773 290.06"/>
      <path class="cls-6" d="M748,324.9a2.21,2.21,0,0,0,4.42,0v-8L748,322.72v2.18Z"/>
      <polygon class="cls-4" points="752.46 316.91 752.46 285.35 748.05 285.35 748.05 322.69 752.46 316.91"/>
      <path class="cls-4" d="M729.72,313.86a2.21,2.21,0,0,0,2.21-2.21h0v-26.3h-4.42v26.31A2.21,2.21,0,0,0,729.72,313.86Z"/>
      <path class="cls-4" d="M709.18,313.86a2.21,2.21,0,0,0,2.21-2.21h0v-26.3H707v26.31A2.21,2.21,0,0,0,709.18,313.86Z"/>
      <path class="cls-4" d="M688.65,313.86a2.21,2.21,0,0,0,2.21-2.21h0v-26.3h-4.42v26.31A2.21,2.21,0,0,0,688.65,313.86Z"/>
      <path class="cls-4" d="M668.11,327.11a2.21,2.21,0,0,0,2.21-2.21h0V285.35H665.9v39.56A2.21,2.21,0,0,0,668.11,327.11Z"/>
    </g>
  </g>
  <g class="cls-1">
    <rect class="cls-2" x="49.42" y="222.84" width="200.35" height="59.15"/>
    <g>
      <path class="cls-3" d="M112.46,244.52a20,20,0,0,1-39.84,0H57.93a1.58,1.58,0,0,1-1.58-1.58h0a1.58,1.58,0,0,1,1.58-1.58H72.62a20,20,0,0,1,39.84,0h12.78l21.41-28H39.94v59.16h61.47l21.41-28H112.46Z"/>
      <path class="cls-4" d="M240.29,213.37H146.65l-21.41,28H222.3a1.58,1.58,0,0,1,0,3.16H122.82l-21.41,28H240.29V213.37Z"/>
      <path class="cls-6" d="M222.3,244.52a1.58,1.58,0,0,0,0-3.16H125.24l-2.42,3.16H222.3Z"/>
      <path class="cls-4" d="M112.54,242.94a10.39,10.39,0,0,1-.08,1.58h10.36l2.41-3.16H112.46C112.5,241.89,112.54,242.41,112.54,242.94Z"/>
      <path class="cls-4" d="M72.62,241.37H57.93a1.58,1.58,0,0,0-1.58,1.58h0a1.58,1.58,0,0,0,1.58,1.58H72.62c0-.52-0.08-1-0.08-1.58S72.58,241.89,72.62,241.37Z"/>
      <path class="cls-3" d="M107.19,241.37a14.28,14.28,0,1,0,.09,1.58A14.76,14.76,0,0,0,107.19,241.37Z"/>
      <path class="cls-2" d="M112.46,241.37a20,20,0,0,0-39.84,0c0,0.52-.08,1-0.08,1.58a10.07,10.07,0,0,0,.08,1.58,20,20,0,0,0,39.84,0c0-.52.08-1,0.08-1.58S112.5,241.89,112.46,241.37Zm-5.18,1.58a14.76,14.76,0,1,1-.09-1.58,14.76,14.76,0,0,1,.09,1.58h0Z"/>
    </g>
  </g>
  <g class="cls-1">
    <rect class="cls-2" x="615.85" y="417.73" width="333.03" height="57.79"/>
    <g>
      <path class="cls-3" d="M640.45,426.31a8.54,8.54,0,0,0-2.66-1.79,8.35,8.35,0,1,0,4.45,4.45A8.54,8.54,0,0,0,640.45,426.31Z"/>
      <path class="cls-3" d="M672.58,445.57V428.72h45.53l15.65-20.47H606.37V466h83.21l15.65-20.47H672.58Zm-17.17,7.37a1.41,1.41,0,0,1-1.13.52,1.48,1.48,0,0,1-1.07-.45l-11.77-11.76a11.34,11.34,0,0,1-12.64.78,11.61,11.61,0,0,1-4.09-4.09,11.35,11.35,0,0,1,0-11.48,11.61,11.61,0,0,1,4.09-4.09,11.31,11.31,0,0,1,2.72-1.15,11.56,11.56,0,0,1,6,0,11.31,11.31,0,0,1,2.72,1.15,11.61,11.61,0,0,1,4.09,4.09,11.38,11.38,0,0,1,.87,9.62,11.62,11.62,0,0,1-1.66,3l0.55,0.55,1.57,1.54,2,2,2.19,2.18L652,447.5q1,1.05,1.84,1.9a18.5,18.5,0,0,1,1.3,1.43A1.39,1.39,0,0,1,655.41,452.94Z"/>
      <polygon class="cls-4" points="939.4 408.25 733.77 408.25 718.12 428.73 810.4 428.73 810.4 445.57 705.24 445.57 689.58 466.04 939.4 466.04 939.4 408.25"/>
      <path class="cls-2" d="M653.89,449.4q-0.8-.85-1.84-1.9l-2.14-2.15-2.19-2.18-2-2-1.57-1.54-0.55-.55a11.62,11.62,0,0,0,1.66-3,11.34,11.34,0,0,0-.87-9.62,11.61,11.61,0,0,0-4.09-4.09,11.31,11.31,0,0,0-2.72-1.15,11.56,11.56,0,0,0-6,0,11.31,11.31,0,0,0-2.72,1.15,11.61,11.61,0,0,0-4.09,4.09,11.35,11.35,0,0,0,0,11.48,11.61,11.61,0,0,0,4.09,4.09,11.34,11.34,0,0,0,12.64-.78L653.27,453a1.48,1.48,0,0,0,1.07.45,1.41,1.41,0,0,0,1.13-.52,1.39,1.39,0,0,0,0-2l-0.18-.14Zm-11.65-13.94a8.35,8.35,0,1,1,0-6.49A8.4,8.4,0,0,1,642.24,435.46Z"/>
      <polygon class="cls-6" points="672.59 445.57 705.24 445.57 718.12 428.73 672.59 428.73 672.59 445.57"/>
      <polygon class="cls-7" points="810.4 445.57 810.4 428.73 718.12 428.73 705.24 445.57 810.4 445.57"/>
    </g>
  </g>
  <g class="cls-1">
    <rect class="cls-2" x="903.72" y="140.8" width="259.38" height="122.48"/>
    <g>
      <path class="cls-3" d="M932.23,171.42h19a9.47,9.47,0,0,0,0-18.95h-19a9.47,9.47,0,0,0,0,18.95h0Zm0-15.79a6.32,6.32,0,1,1-6.32,6.32,6.32,6.32,0,0,1,6.32-6.32h0Z"/>
      <path class="cls-3" d="M910.13,194.14a1.58,1.58,0,1,1,0-3.16h98.22l15.77-20.62h-5.8V153.53H1037l17-22.2H894.25V253.8h66.07l45.62-59.66H910.13Zm22.11-46.94h19a14.74,14.74,0,0,1,0,29.47h-19a14.74,14.74,0,0,1,0-29.46h0Zm19,90.71h-19a14.74,14.74,0,0,1,0-29.47h19a14.74,14.74,0,0,1,0,29.48h0Z"/>
      <path class="cls-4" d="M1153.62,131.33H1054l-17,22.2h93.17v16.84h-106L1008.36,191h129.4a1.58,1.58,0,0,1,0,3.16H1005.93l-45.62,59.66h193.31V131.33Zm-23.47,100.28H1018.32V214.72h111.83v16.89Z"/>
      <circle class="cls-2" cx="932.24" cy="161.95" r="6.32"/>
      <path class="cls-2" d="M932.23,176.72h19a14.74,14.74,0,0,0,0-29.47h-19A14.74,14.74,0,0,0,932.23,176.72Zm0-24.21h19a9.48,9.48,0,0,1,0,19h-19a9.5,9.5,0,0,1,0-19v0Z"/>
      <path class="cls-2" d="M951.18,208.45h-19a14.74,14.74,0,0,0,0,29.47h19a14.74,14.74,0,0,0,.77-29.47h-0.77Zm0,22.11a7.37,7.37,0,1,1,7.37-7.37h0a7.37,7.37,0,0,1-7.37,7.36h0Z"/>
      <path class="cls-4" d="M908.55,192.57a1.58,1.58,0,0,0,1.58,1.58h95.8l2.41-3.16H910.13a1.58,1.58,0,0,0-1.58,1.58h0Z"/>
      <path class="cls-6" d="M1137.74,194.14a1.58,1.58,0,0,0,0-3.16h-129.4l-2.41,3.16h131.81Z"/>
      <polygon class="cls-7" points="1130.16 170.37 1130.16 153.53 1036.99 153.53 1024.11 170.37 1130.16 170.37"/>
      <polygon class="cls-6" points="1018.33 170.37 1024.11 170.37 1036.99 153.53 1018.33 153.53 1018.33 170.37"/>
      <rect class="cls-7" x="1018.33" y="214.76" width="111.83" height="16.84"/>
      <circle class="cls-3" cx="951.18" cy="223.19" r="7.37"/>
    </g>
  </g>
  <g class="cls-1">
    <rect class="cls-2" x="904.35" y="-74.44" width="376.88" height="183.84"/>
    <g>
      <path class="cls-4" d="M1271.75-83.91h-138.7l-17,22.22h130.33v16.84h-137.8V-51.9l-21.17,27.69h168.47a1.58,1.58,0,0,1,1.58,1.58,1.58,1.58,0,0,1-1.58,1.58H1085l-44.44,58.11h215.32a1.58,1.58,0,0,1,0,3.16H1038.13l-45.65,59.7h279.27V-83.91h0ZM1246.4,16.42H1108.58V-0.42H1246.4V16.42h0Zm0,61.28H1108.58V60.86H1246.4V77.7Z"/>
      <path class="cls-3" d="M910.75,40.22a1.58,1.58,0,0,1-1.58-1.58h0a1.58,1.58,0,0,1,1.58-1.58h129.8L1085-21.06H910.75a1.58,1.58,0,0,1-1.58-1.58h0a1.58,1.58,0,0,1,1.58-1.58H1087.4l21.17-27.69V-61.7h7.49l17-22.22H894.87V99.92h97.61l45.65-59.7H910.75Zm7.37-47h29.51v29.5H918.12V-6.78Zm0-61.28h29.51v29.51H918.12V-68.06Zm0,152.07V54.52h29.51V84H918.12v0Z"/>
      <rect class="cls-3" x="923.39" y="-1.49" width="18.99" height="18.99"/>
      <path class="cls-2" d="M947.64-6.75H918.12V22.72h29.51V-6.75h0ZM942.38,17.5h-19v-19h19v19Z"/>
      <path class="cls-2" d="M918.12,54.52V84h29.51V54.52H918.12Zm11.82,21.8-6.78-6.79,1.43-1.43,5.35,5.34,11.21-11.2,1.44,1.48Z"/>
      <polygon class="cls-3" points="929.95 73.44 924.6 68.1 923.17 69.54 929.95 76.33 942.6 63.67 941.16 62.24 929.95 73.44"/>
      <path class="cls-6" d="M1255.87,40.22a1.58,1.58,0,0,0,0-3.16H1040.55l-2.41,3.16h217.73Z"/>
      <path class="cls-4" d="M909.18,38.64a1.58,1.58,0,0,0,1.58,1.58h127.37l2.41-3.16H910.75A1.58,1.58,0,0,0,909.18,38.64Z"/>
      <rect class="cls-7" x="1108.58" y="-0.42" width="137.82" height="16.84"/>
      <rect class="cls-7" x="1108.58" y="60.86" width="137.82" height="16.84"/>
    </g>
  </g>
  <g class="cls-1">
    <rect class="cls-2" x="-18.71" y="-134.52" width="259.38" height="326.16"/>
    <g>
      <path class="cls-3" d="M68,2.31A11.08,11.08,0,1,0,79.11,13.39,11.09,11.09,0,0,0,68,2.31Zm0,16.93a5.86,5.86,0,0,1-5.86-5.86h0a5.86,5.86,0,0,1,11.72,0h0A5.86,5.86,0,0,1,68,19.24Z"/>
      <path class="cls-4" d="M231.19-61.71l-27.55,36a5.86,5.86,0,0,1,4.12,5.6,5.86,5.86,0,0,1-5.86,5.86h0A5.85,5.85,0,0,1,197-17l-22.7,29.69a5.92,5.92,0,0,1,0,.63,5.85,5.85,0,0,1-4.94,5.78l-67.84,88.8h0a5.86,5.86,0,1,1-5.66,7.37l-51.1,66.87H231.19V-61.71ZM135,119.64a5.86,5.86,0,1,1,5.85-5.87s0,0,0,0A5.86,5.86,0,0,1,135,119.64Zm0-33.47a5.86,5.86,0,1,1,5.85-5.87s0,0,0,0A5.86,5.86,0,0,1,135,86.18h0Zm33.47,33.47a5.86,5.86,0,1,1,5.86-5.86,5.86,5.86,0,0,1-5.86,5.86h0Zm0-33.47a5.86,5.86,0,1,1,5.86-5.86,5.86,5.86,0,0,1-5.86,5.86h0Zm0-33.47a5.86,5.86,0,0,1-5.86-5.86h0A5.86,5.86,0,0,1,168.44,41h0a5.86,5.86,0,0,1,5.86,5.86h0a5.86,5.86,0,0,1-5.84,5.88h0v0Zm33.47,66.93a5.86,5.86,0,1,1,5.86-5.86,5.86,5.86,0,0,1-5.86,5.86h0Zm0-33.47a5.86,5.86,0,1,1,5.86-5.86,5.86,5.86,0,0,1-5.86,5.86h0v0Zm0-33.47a5.86,5.86,0,0,1-5.86-5.86h0A5.86,5.86,0,0,1,201.91,41h0a5.86,5.86,0,0,1,5.86,5.86h0a5.86,5.86,0,0,1-5.83,5.89h0v0Zm0-33.47a5.86,5.86,0,0,1-5.86-5.86h0a5.86,5.86,0,0,1,5.86-5.86h0a5.86,5.86,0,0,1,5.86,5.86h0a5.86,5.86,0,0,1-5.84,5.88h0v0Z"/>
      <path class="cls-3" d="M95.64,113.79a5.86,5.86,0,0,1,5.84-5.86l67.87-88.77a5.82,5.82,0,0,1-6.78-5.78h0a5.86,5.86,0,0,1,5.86-5.86h0a5.86,5.86,0,0,1,5.83,5.2L197-17a5.82,5.82,0,0,1-.92-3.14A5.86,5.86,0,0,1,201.91-26h0a5.85,5.85,0,0,1,1.74.26l27.55-36V-144H-28.18V182.17h72.9l51.1-66.87A5.85,5.85,0,0,1,95.64,113.79ZM197.17-111.14l1-1,8.43,8.44-8.41,8.42-1-1,7.41-7.41ZM101.5,86.18a5.86,5.86,0,1,1,5.86-5.86,5.86,5.86,0,0,1-5.86,5.86h0Zm0-33.47a5.86,5.86,0,0,1-5.86-5.86h0A5.86,5.86,0,0,1,101.5,41h0a5.86,5.86,0,0,1,5.86,5.86h0a5.86,5.86,0,0,1-5.85,5.87h0Zm0-33.47a5.86,5.86,0,0,1-5.86-5.86h0a5.86,5.86,0,0,1,5.86-5.86h0a5.86,5.86,0,0,1,5.86,5.86h0a5.86,5.86,0,0,1-5.86,5.86h0ZM135,52.72a5.86,5.86,0,0,1-5.86-5.86h0A5.86,5.86,0,0,1,135,41h0a5.86,5.86,0,0,1,0,11.72h0Zm0-33.47a5.86,5.86,0,0,1-5.86-5.86h0A5.86,5.86,0,0,1,135,7.53h0a5.86,5.86,0,0,1,0,11.71h0ZM55.11-112.16h92.78v16.88H55.11v-16.88Zm-50.3,0,1,1-7.41,7.41,7.42,7.47-1,1-8.44-8.44ZM1.1,153.11a5.86,5.86,0,0,1-5.86-5.86h0a5.86,5.86,0,0,1,5.86-5.86h0A5.86,5.86,0,0,1,7,147.25H7a5.86,5.86,0,0,1-5.86,5.86h0Zm0-33.47a5.86,5.86,0,0,1-5.86-5.86h0a5.86,5.86,0,0,1,5.86-5.86h0A5.86,5.86,0,0,1,7,113.78H7a5.86,5.86,0,0,1-5.86,5.86h0Zm0-33.47a5.86,5.86,0,0,1-5.86-5.86h0A5.86,5.86,0,0,1,1.1,74.45h0A5.86,5.86,0,0,1,7,80.31H7a5.86,5.86,0,0,1-5.85,5.87h0Zm0-33.47a5.86,5.86,0,0,1-5.86-5.86h0A5.86,5.86,0,0,1,1.1,41h0A5.86,5.86,0,0,1,7,46.84H7a5.86,5.86,0,0,1-5.84,5.88h0v0Zm0-33.47a5.86,5.86,0,0,1-5.86-5.86h0A5.86,5.86,0,0,1,1.1,7.51h0A5.86,5.86,0,0,1,7,13.37H7a5.86,5.86,0,0,1-5.85,5.87h0ZM34.57,153.11a5.86,5.86,0,0,1-5.86-5.86h0a5.86,5.86,0,0,1,5.86-5.86h0a5.86,5.86,0,0,1,5.86,5.86h0a5.86,5.86,0,0,1-5.86,5.86h0Zm0-33.47a5.86,5.86,0,0,1-5.86-5.86h0a5.86,5.86,0,0,1,5.86-5.86h0a5.86,5.86,0,0,1,5.86,5.86h0a5.86,5.86,0,0,1-5.86,5.86h0Zm0-33.47a5.86,5.86,0,0,1-5.86-5.86h0a5.86,5.86,0,0,1,5.86-5.86h0a5.86,5.86,0,0,1,5.85,5.87h0a5.86,5.86,0,0,1-5.85,5.86h0Zm0-33.47a5.86,5.86,0,0,1-5.86-5.86h0A5.86,5.86,0,0,1,34.57,41h0a5.86,5.86,0,0,1,5.86,5.86h0a5.86,5.86,0,0,1-5.84,5.88h0v0Zm0-33.47a5.86,5.86,0,0,1-5.86-5.86h0a5.86,5.86,0,0,1,5.86-5.86h0a5.86,5.86,0,0,1,5.86,5.86h0a5.86,5.86,0,0,1-5.85,5.87h0ZM68,119.64a5.86,5.86,0,1,1,5.86-5.86A5.86,5.86,0,0,1,68,119.64h0Zm0-33.47a5.86,5.86,0,1,1,5.86-5.86h0A5.86,5.86,0,0,1,68,86.18h0Zm0-33.45a5.86,5.86,0,0,1-5.86-5.86h0a5.86,5.86,0,0,1,11.72,0h0A5.86,5.86,0,0,1,68,52.72Zm0-25.09A14.24,14.24,0,1,1,82.27,13.39,14.25,14.25,0,0,1,68,27.63h0Z"/>
      <circle class="cls-9" cx="1.1" cy="13.39" r="5.86"/>
      <circle class="cls-9" cx="34.57" cy="13.39" r="5.86"/>
      <circle class="cls-6" cx="68.04" cy="13.39" r="5.86"/>
      <circle class="cls-9" cx="101.5" cy="13.39" r="5.86"/>
      <circle class="cls-9" cx="134.97" cy="13.39" r="5.86"/>
      <path class="cls-9" d="M168.43,7.53a5.86,5.86,0,0,0-5.86,5.86h0a5.86,5.86,0,0,0,5.86,5.86h0a5.87,5.87,0,0,0,.92-0.08l4.9-6.41A5.86,5.86,0,0,0,168.43,7.53Z"/>
      <path class="cls-3" d="M174.29,13.39a5.92,5.92,0,0,0,0-.63l-4.9,6.41A5.85,5.85,0,0,0,174.29,13.39Z"/>
      <circle class="cls-3" cx="201.9" cy="13.39" r="5.86"/>
      <circle class="cls-9" cx="1.1" cy="46.85" r="5.86"/>
      <circle class="cls-9" cx="34.57" cy="46.85" r="5.86"/>
      <circle class="cls-9" cx="68.04" cy="46.85" r="5.86"/>
      <circle class="cls-9" cx="101.5" cy="46.85" r="5.86"/>
      <circle class="cls-9" cx="134.97" cy="46.85" r="5.86"/>
      <circle class="cls-3" cx="168.44" cy="46.85" r="5.86"/>
      <circle class="cls-3" cx="201.9" cy="46.85" r="5.86"/>
      <circle class="cls-9" cx="1.1" cy="80.32" r="5.86"/>
      <circle class="cls-9" cx="34.57" cy="80.32" r="5.86"/>
      <circle class="cls-9" cx="68.04" cy="80.32" r="5.86"/>
      <circle class="cls-9" cx="101.5" cy="80.32" r="5.86"/>
      <circle class="cls-3" cx="134.97" cy="80.32" r="5.86"/>
      <circle class="cls-3" cx="168.44" cy="80.32" r="5.86"/>
      <circle class="cls-3" cx="201.9" cy="80.32" r="5.86"/>
      <circle class="cls-9" cx="1.1" cy="113.79" r="5.86"/>
      <circle class="cls-9" cx="34.57" cy="113.79" r="5.86"/>
      <circle class="cls-9" cx="68.04" cy="113.79" r="5.86"/>
      <path class="cls-3" d="M101.5,119.64a5.86,5.86,0,0,0,0-11.72h0l-5.68,7.38A5.85,5.85,0,0,0,101.5,119.64Z"/>
      <path class="cls-9" d="M95.64,113.79a5.85,5.85,0,0,0,.2,1.51l5.63-7.37A5.86,5.86,0,0,0,95.64,113.79Z"/>
      <circle class="cls-3" cx="134.97" cy="113.79" r="5.86"/>
      <circle class="cls-3" cx="168.44" cy="113.79" r="5.86"/>
      <circle class="cls-3" cx="201.9" cy="113.79" r="5.86"/>
      <circle class="cls-9" cx="1.1" cy="147.25" r="5.86"/>
      <circle class="cls-9" cx="34.57" cy="147.25" r="5.86"/>
      <path class="cls-2" d="M68-.85A14.24,14.24,0,1,0,82.27,13.39,14.25,14.25,0,0,0,68-.85Zm0,25.31A11.08,11.08,0,1,1,79.11,13.39,11.09,11.09,0,0,1,68,24.46Z"/>
    </g>
  </g>
  <g class="cls-1">
    <rect class="cls-2" x="280.78" y="222.84" width="301.95" height="405.02"/>
    <g>
      <path class="cls-3" d="M287.18,602.5V521.1H417.5l12.14-15.88H287.18v-81.4H491.89L504,407.94H287.18v-81.4H557.37v11.65l15.88-20.77v-104h-302v405h71.87l12.14-15.88H287.18v0Zm0-373.26H557.37v81.4H287.18v-81.4Z"/>
      <polygon class="cls-4" points="573.25 317.41 557.37 338.19 557.37 407.94 504.04 407.94 491.89 423.82 557.37 423.82 557.37 505.22 429.65 505.22 417.51 521.1 557.37 521.1 557.37 602.51 355.26 602.51 343.12 618.39 573.25 618.39 573.25 317.41"/>
      <path class="cls-9" d="M329.31,247a23,23,0,1,0,23,23h0A23,23,0,0,0,329.31,247Z"/>
      <path class="cls-9" d="M557.37,229.25H287.18v81.4H557.37v-81.4ZM371.43,251.09H533.16v8.42H371.43v-8.42Zm-75.34-8.66a4.27,4.27,0,1,1,4.27-4.27,4.27,4.27,0,0,1-4.27,4.27h0Zm33.22,56.83a29.31,29.31,0,1,1,29.31-29.31h0A29.31,29.31,0,0,1,329.31,299.26ZM475,293.72H371.43V285.3H475v8.42Zm59.17-17.09H371.43v-8.42H534.12v8.42Z"/>
      <rect class="cls-6" x="371.44" y="251.09" width="161.73" height="8.42"/>
      <rect class="cls-3" x="371.44" y="268.18" width="162.69" height="8.42"/>
      <rect class="cls-3" x="371.44" y="285.27" width="103.52" height="8.42"/>
      <circle class="cls-6" cx="296.09" cy="238.16" r="4.27"/>
      <polygon class="cls-3" points="534.13 373.88 530.08 373.88 504.04 407.94 557.37 407.94 557.37 338.19 534.13 368.59 534.13 373.88"/>
      <path class="cls-9" d="M329.31,344.24a23,23,0,1,0,23,23h0A23,23,0,0,0,329.31,344.24Z"/>
      <path class="cls-9" d="M287.18,326.53v81.4H504l26-34H371.43v-8.42H534.12v3.13l23.25-30.4V326.53H287.18Zm8.91,13.19a4.27,4.27,0,1,1,4.27-4.27h0A4.27,4.27,0,0,1,296.09,339.72Zm33.22,56.83a29.31,29.31,0,1,1,29.31-29.31h0a29.31,29.31,0,0,1-29.31,29.3h0Zm145.64-14V391H371.43v-8.42H475Zm58.21-25.76H371.43v-8.42H533.16v8.42Z"/>
      <rect class="cls-6" x="371.44" y="348.37" width="161.73" height="8.42"/>
      <polygon class="cls-3" points="534.13 365.46 371.44 365.46 371.44 373.88 530.08 373.88 534.13 368.59 534.13 365.46"/>
      <polygon class="cls-6" points="534.13 368.59 530.08 373.88 534.13 373.88 534.13 368.59"/>
      <rect class="cls-3" x="371.44" y="382.55" width="103.52" height="8.42"/>
      <circle class="cls-6" cx="296.09" cy="335.44" r="4.27"/>
      <path class="cls-9" d="M287.18,505.22H429.65l13-17H371.43V479.8H449l6.63-8.67H371.43v-8.41h90.69l6.63-8.67H371.43v-8.42H475.19l16.7-21.84H287.18v81.43Zm42.13-70A29.31,29.31,0,1,1,300,464.53h0a29.31,29.31,0,0,1,29.3-29.32h0Zm-33.22-6.76a4.27,4.27,0,1,1-4.27,4.27h0a4.27,4.27,0,0,1,4.27-4.27h0Z"/>
      <polygon class="cls-3" points="533.16 445.66 533.16 454.08 468.76 454.08 462.13 462.75 534.13 462.75 534.13 471.17 455.69 471.17 449.06 479.84 474.95 479.84 474.95 488.26 442.62 488.26 429.65 505.22 557.37 505.22 557.37 423.82 491.89 423.82 475.2 445.66 533.16 445.66"/>
      <path class="cls-9" d="M329.31,487.51a23,23,0,1,0-23-23h0A23,23,0,0,0,329.31,487.51Z"/>
      <polygon class="cls-7" points="533.16 445.66 475.2 445.66 468.76 454.08 533.16 454.08 533.16 445.66"/>
      <polygon class="cls-6" points="371.44 445.66 371.44 454.08 468.76 454.08 475.2 445.66 371.44 445.66"/>
      <polygon class="cls-6" points="534.13 462.75 462.13 462.75 455.69 471.17 534.13 471.17 534.13 462.75"/>
      <polygon class="cls-3" points="371.44 462.75 371.44 471.17 455.69 471.17 462.13 462.75 371.44 462.75"/>
      <polygon class="cls-3" points="371.44 479.84 371.44 488.26 442.62 488.26 449.06 479.84 371.44 479.84"/>
      <polygon class="cls-6" points="474.95 479.84 449.06 479.84 442.62 488.26 474.95 488.26 474.95 479.84"/>
      <circle class="cls-6" cx="296.09" cy="432.73" r="4.27"/>
      <path class="cls-2" d="M329.31,240.64a29.31,29.31,0,1,0,29.31,29.31h0A29.31,29.31,0,0,0,329.31,240.64Zm0,52.3a23,23,0,1,1,23-23h0A23,23,0,0,1,329.31,292.94Z"/>
      <path class="cls-2" d="M329.31,337.93a29.31,29.31,0,1,0,29.31,29.31h0A29.31,29.31,0,0,0,329.31,337.93Zm0,52.3a23,23,0,1,1,23-23h0a23,23,0,0,1-23,23h0Z"/>
      <path class="cls-2" d="M329.31,493.83A29.31,29.31,0,1,0,300,464.52h0A29.31,29.31,0,0,0,329.31,493.83Zm0-52.3a23,23,0,1,1-23,23h0A23,23,0,0,1,329.31,441.53Z"/>
    </g>
  </g>
  <g class="cls-1">
    <rect class="cls-2" x="613.78" y="-38.64" width="259.38" height="302.56"/>
    <g>
      <path class="cls-3" d="M734.39,16.56A17.81,17.81,0,0,0,752.18-1.27h0a17.81,17.81,0,0,0-17.79-17.79A17.81,17.81,0,0,0,716.6-1.28a17.81,17.81,0,0,0,17.78,17.84h0Z"/>
      <path class="cls-3" d="M752.18,73.05a17.79,17.79,0,1,0-17.79,17.79h0A17.81,17.81,0,0,0,752.18,73.05Z"/>
      <path class="cls-3" d="M651.19,90.85a17.79,17.79,0,1,0-17.8-17.8A17.79,17.79,0,0,0,651.19,90.85Z"/>
      <path class="cls-3" d="M817.59,55.26a17.78,17.78,0,0,0-2.7,35.36l18.93-24.78A17.81,17.81,0,0,0,817.59,55.26Z"/>
      <path class="cls-4" d="M835.39,73.05a17.67,17.67,0,0,0-1.57-7.21L814.9,90.62A17.67,17.67,0,0,0,835.39,73.05Z"/>
      <path class="cls-4" d="M863.68,26.81l-26.3,34.4a23.06,23.06,0,0,1-26,34l-39.75,52h34.84v8.42H765.16l-38.08,49.8v25.48H707.6l-17.92,23.43h174V26.81h0Zm-23,204.13h-99V195.15h99v35.79Z"/>
      <path class="cls-3" d="M628.13,230.94V195.15h99v10.31l38.08-49.8H662.34v-8.42H771.6l39.75-52a23.06,23.06,0,1,1,26-34l26.31-34.4V-48.08H604.31V254.37h85.38l17.92-23.43H628.13Zm149.49-98.43H691.16v-8.42h86.46v8.42ZM711.33,73.05a23.06,23.06,0,1,1,23.06,23.06h0A23.06,23.06,0,0,1,711.33,73.05Zm23.06-97.33a23.06,23.06,0,0,1,23.06,23,23.06,23.06,0,0,1-23.06,23.06A23.06,23.06,0,0,1,711.33-1.28,23.06,23.06,0,0,1,734.39-24.28ZM649.61,34.33h83.21V25.67H736v8.66h83.2V46.15H816V37.49H736v8.66h-3.2V37.49h-80v8.66h-3.16V34.33h-0.05ZM651.19,50a23.06,23.06,0,1,1-23.06,23.06h0A23.06,23.06,0,0,1,651.19,50Z"/>
      <rect class="cls-6" x="691.16" y="124.09" width="86.47" height="8.42"/>
      <polygon class="cls-6" points="662.34 155.66 765.17 155.66 771.61 147.24 662.34 147.24 662.34 155.66"/>
      <polygon class="cls-7" points="806.45 155.66 806.45 147.24 771.61 147.24 765.17 155.66 806.45 155.66"/>
      <polygon class="cls-4" points="652.77 37.49 732.81 37.49 732.81 46.15 735.97 46.15 735.97 37.49 816.01 37.49 816.01 46.15 819.17 46.15 819.17 34.33 735.97 34.33 735.97 25.67 732.81 25.67 732.81 34.33 649.61 34.33 649.61 46.15 652.77 46.15 652.77 37.49"/>
      <path class="cls-2" d="M734.39,21.83A23.06,23.06,0,0,0,757.45-1.23V-1.28a23.06,23.06,0,0,0-23.06-23,23.06,23.06,0,0,0-23.06,23,23.06,23.06,0,0,0,23,23.11h0.05Zm0-40.85A17.81,17.81,0,0,1,752.18-1.28a17.81,17.81,0,0,1-17.79,17.79A17.81,17.81,0,0,1,716.6-1.28,17.81,17.81,0,0,1,734.39-19h0Z"/>
      <path class="cls-2" d="M757.45,73.05a23.06,23.06,0,1,0-23.06,23.06h0A23.06,23.06,0,0,0,757.45,73.05Zm-40.85,0a17.79,17.79,0,1,1,17.79,17.79h0A17.81,17.81,0,0,1,716.6,73.05Z"/>
      <path class="cls-2" d="M651.19,96.11a23.06,23.06,0,1,0-23.06-23.06h0A23.06,23.06,0,0,0,651.19,96.11Zm0-40.85a17.79,17.79,0,1,1-17.8,17.79A17.79,17.79,0,0,1,651.19,55.26Z"/>
      <path class="cls-5" d="M835.39,73.05A17.67,17.67,0,0,1,814.9,90.62l-3.54,4.63a23.06,23.06,0,0,0,26-34l-3.54,4.59A17.67,17.67,0,0,1,835.39,73.05Z"/>
      <path class="cls-2" d="M817.59,50a23.06,23.06,0,0,0-6.24,45.25l3.54-4.63a17.78,17.78,0,1,1,18.93-24.77l3.54-4.62A23,23,0,0,0,817.59,50Z"/>
      <path class="cls-2" d="M628.13,195.15v35.79H707.6l19.48-25.48V195.15h-99ZM655,217.55v-9h45.26v9H655Z"/>
      <polygon class="cls-5" points="727.09 230.94 727.09 205.46 707.6 230.94 727.09 230.94"/>
      <rect class="cls-9" x="654.98" y="208.54" width="45.26" height="9.01"/>
      <path class="cls-3" d="M741.7,230.94h99V195.15h-99v35.79Zm26.84-22.4h45.28v9H768.54v-9h0Z"/>
      <rect class="cls-4" x="768.54" y="208.54" width="45.26" height="9.01"/>
    </g>
  </g>
  <g class="cls-1">
    <rect class="cls-2" x="979.42" y="417.03" width="259.38" height="302.49"/>
    <path class="cls-3" d="M1016.43,476.59a17.79,17.79,0,1,0,17.79,17.79h0A17.81,17.81,0,0,0,1016.43,476.59Z"/>
    <path class="cls-3" d="M1051.53,675.5v-8.42h56.73l6.44-8.42h-63.17v-8.42h69.61l36.42-47.64h-106v-8.42h109.75v3.54l40.19-52.56-1.68-1.64-5,5-1.21-1.21,5-5-5-5,1.21-1.21,5,5,5-5,1.21,1.21-5,5,1.51,1.51,26.78-35.1V407.55H969.94V710h105.47l26.41-34.54h-50.29Zm64.7-64.48v8.42h-64.7V611h64.7Zm0-47.67h-64.7v-8.42h64.7v8.42Zm45.06-16.84H1051.53v-8.42h109.75v8.42h0ZM1051.53,507V498.6h64.7V507h-64.7Zm109.75-16.84H1051.53v-8.46h109.75v8.46ZM1206,491l-1.21,1.21-5-5-5,5-1.21-1.21,5-5-5-5,1.25-1.24,5,5,5-5,1.21,1.21-5,5ZM993.06,430.64l212.83-.43V456.4l-212.83.43V430.64h0Zm23.37,255.29a23.06,23.06,0,1,1,23.06-23.06h0A23.06,23.06,0,0,1,1016.43,685.93Zm0-56.06a23.06,23.06,0,1,1,23.06-23.06h0A23.06,23.06,0,0,1,1016.43,629.87Zm0-56.09a23.06,23.06,0,1,1,23.06-23.06,23.06,23.06,0,0,1-23.06,23.06h0Zm0-56.34a23.06,23.06,0,1,1,23.06-23.06h0a23.06,23.06,0,0,1-23.06,23.06h0Z"/>
    <path class="cls-2" d="M1016.43,471.33a23.06,23.06,0,1,0,23.06,23.06h0A23.06,23.06,0,0,0,1016.43,471.33Zm0,40.85a17.79,17.79,0,1,1,17.79-17.79h0A17.81,17.81,0,0,1,1016.43,512.18Z"/>
    <path class="cls-9" d="M1205.89,430.21l-212.83.43v26.18l212.83-.43V430.21ZM1003.51,452.6h-1.89V434.86h1.89V452.6Zm194.36-.3a0.75,0.75,0,0,1-.61.28,0.8,0.8,0,0,1-.57-0.24l-6.58-6.57a6.44,6.44,0,0,1-1.7.94,6.37,6.37,0,0,1-3.83.15,6.29,6.29,0,0,1-1.51-.64,6.47,6.47,0,0,1-2.27-2.27,6.32,6.32,0,0,1,3.78-9.28,6.41,6.41,0,0,1,3.36,0,6.29,6.29,0,0,1,1.51.64,6.47,6.47,0,0,1,2.27,2.27,6.32,6.32,0,0,1,.48,5.33,6.44,6.44,0,0,1-.94,1.7l0.33,0.32,0.88,0.86,1.12,1.1,1.22,1.21,1.19,1.2,1,1.06c0.3,0.32.54,0.58,0.72,0.8a1,1,0,0,1,.33.55,0.92,0.92,0,0,1-.23.59h0.05Z"/>
    <rect class="cls-4" x="1001.62" y="434.86" width="1.89" height="17.74"/>
  </g>
</svg>
