<svg id="Layer_1" data-name="Layer 1" xmlns="http://www.w3.org/2000/svg" width="240" height="112" viewBox="0 0 240 112">
  <defs>
    <style>
      .cls-1 {
        fill: #fff;
      }

      .cls-2 {
        fill: #eaeaea;
      }

      .cls-3 {
        fill: #0054a6;
      }

      .cls-4 {
        fill: #c8c8c8;
      }

      .cls-5 {
        fill: #a6a6a6;
      }

      .cls-6 {
        fill: #333;
      }
    </style>
  </defs>
  <title>home-highlights-buttons</title>
  <g>
    <path class="cls-1" d="M1117.87,2192.76v-33.31h28.59l30.08-39.35H993.34v112h97.57l30.09-39.35h-3.12Zm-8.61,0h-99.92v-33.31h99.92v33.31Z" transform="translate(-993.34 -2120.11)"/>
    <polygon class="cls-2" points="240 0 183.21 0 153.12 39.35 224.45 39.35 224.45 72.65 206.36 72.65 223.98 90.27 213.74 90.27 217.26 97.92 209.81 101.36 206.19 93.5 199.47 100.12 199.47 72.65 127.66 72.65 97.57 112 240 112 240 0"/>
    <path class="cls-3" d="M1009.34,2192.76h99.92v-33.31h-99.92v33.31Zm25-20.85h50v8.39h-50v-8.39Z" transform="translate(-993.34 -2120.11)"/>
    <rect class="cls-1" x="40.98" y="51.81" width="49.96" height="8.39"/>
    <path class="cls-4" d="M1192.81,2192.76v-6.89l6.75,6.75,0.14,0.14h18.09v-33.31h-71.33L1121,2192.76h71.82Zm0-12.46h-50v-8.39h50v8.39Z" transform="translate(-993.34 -2120.11)"/>
    <polygon class="cls-2" points="124.53 72.65 127.66 72.65 153.12 39.35 124.53 39.35 124.53 72.65"/>
    <rect class="cls-5" x="149.51" y="51.81" width="49.96" height="8.39"/>
    <polygon class="cls-6" points="199.47 100.12 206.19 93.5 209.81 101.36 217.26 97.92 213.74 90.27 223.98 90.27 206.36 72.65 199.47 72.65 199.47 100.12"/>
    <polygon class="cls-6" points="199.47 65.77 199.47 72.52 199.47 72.65 206.36 72.65 206.22 72.52 199.47 65.77"/>
  </g>
</svg>
