<svg id="Layer_1" data-name="Layer 1" xmlns="http://www.w3.org/2000/svg" width="186.2" height="200" viewBox="0 0 186.2 200">
  <defs>
    <style>
      .cls-1 {
        opacity: 0.9;
      }
    </style>
  </defs>
  <title>logo-angular-black</title>
  <g>
    <g>
      <polygon points="93.1 123.4 68.4 123.4 56.7 152.6 56.7 152.6 35 152.6 34.9 152.6 93.1 22.1 93.1 22.2 93.1 22.2 93.1 0 93.1 0 0 33.2 14.2 156.3 93.1 200 93.1 200 93.1 123.4"/>
      <polygon points="76.1 105.4 93.1 105.4 93.1 105.4 93.1 64.5 76.1 105.4"/>
    </g>
    <g class="cls-1">
      <polygon points="93.1 123.4 117.8 123.4 129.5 152.6 129.5 152.6 151.2 152.6 151.3 152.6 93.1 22.1 93.1 22.2 93.1 22.2 93.1 0 93.1 0 186.2 33.2 172 156.3 93.1 200 93.1 200 93.1 123.4"/>
      <polygon points="110.1 105.4 93.1 105.4 93.1 105.4 93.1 64.5 110.1 105.4"/>
    </g>
  </g>
</svg>
