<svg id="Layer_2" data-name="Layer 2" xmlns="http://www.w3.org/2000/svg" width="561.8" height="499.8" viewBox="0 0 561.8 499.8">
  <defs>
    <style>
      .cls-1 {
        fill: #fff;
      }

      .cls-2 {
        fill: none;
        stroke: #fff;
        stroke-miterlimit: 10;
        stroke-width: 24px;
      }

      @media screen and (-ms-high-contrast: active) {
        .cls-1 {
          fill: #fff;
        }
      }
      
      @media screen and (-ms-high-contrast: black-on-white) {
        .cls-1 {
          fill: #000000;
        }

        .cls-2 {
          fill: none;
          stroke: #000000;
          stroke-miterlimit: 10;
          stroke-width: 24px;
        }
      }
    </style>
  </defs>
  <title>logo-react</title>
  <circle class="cls-1" cx="280.9" cy="249.43" r="50.17"/>
  <path class="cls-2" d="M299.53,197.63c67.36,0,129.93,9.66,177.11,25.91,56.84,19.57,91.79,49.23,91.79,76.09,0,28-37,59.5-98.08,79.73-46.15,15.29-106.88,23.27-170.82,23.27-65.55,0-127.63-7.49-174.29-23.44-59-20.18-94.61-52.1-94.61-79.56C30.63,273,64,243.55,120,224,167.4,207.5,231.51,197.63,299.53,197.63Z" transform="translate(-18.63 -50.2)"/>
  <path class="cls-2" d="M210.74,248.92C244.38,190.57,284,141.2,321.66,108.44,367,69,410.16,53.52,433.43,66.94c24.25,14,33,61.81,20.07,124.8-9.81,47.62-33.23,104.21-65.18,159.6-32.75,56.79-70.25,106.82-107.38,139.27-47,41.07-92.4,55.93-116.18,42.21-23.08-13.31-31.91-56.92-20.83-115.23C153.28,368.32,176.76,307.84,210.74,248.92Z" transform="translate(-18.63 -50.2)"/>
  <path class="cls-2" d="M210.82,351.48c-33.75-58.29-56.73-117.29-66.31-166.26-11.54-59-3.38-104.11,19.86-117.57,24.22-14,70.06,2.24,118.14,44.94,36.36,32.28,73.69,80.84,105.72,136.17,32.84,56.73,57.46,114.21,67,162.58,12.12,61.21,2.31,108-21.45,121.74-23.06,13.35-65.25-.78-110.24-39.5C285.57,460.89,244.9,410.34,210.82,351.48Z" transform="translate(-18.63 -50.2)"/>
</svg>
