<svg id="Layer_1" data-name="Layer 1" xmlns="http://www.w3.org/2000/svg" width="224.57" height="388" viewBox="0 0 224.57 388">
  <defs>
    <style>
      .cls-1 {
        fill: #ffef6f;
      }

      .cls-2 {
        fill: #eecc48;
      }

      .cls-3 {
        fill: #e6e7e8;
      }

      .cls-4 {
        fill: #fff;
      }

      .cls-5 {
        fill: #b1adab;
      }

      .cls-6 {
        fill: #858280;
      }

      .cls-7 {
        fill: #d8b094;
      }

      .cls-8 {
        fill: #bb9167;
      }

      .cls-9 {
        fill: #31d2f7;
      }

      .cls-10 {
        fill: #00bcf2;
      }

      .cls-11 {
        fill: #ff6767;
      }

      .cls-12 {
        fill: #ff4343;
      }
    </style>
  </defs>
  <title>styles-header</title>
  <g>
    <polygon class="cls-1" points="104.74 294.76 104.74 294.48 0 294.48 0 359.81 55.94 359.81 104.74 294.76"/>
    <polygon class="cls-2" points="104.74 359.81 104.74 294.76 55.94 359.81 104.74 359.81"/>
    <polygon class="cls-3" points="47.27 371.38 47.27 377.74 42.49 377.74 34.79 388 104.74 388 104.74 359.81 55.94 359.81 47.27 371.38"/>
    <polygon class="cls-4" points="34.79 388 42.49 377.74 6.36 377.74 6.36 369.49 47.27 369.49 47.27 371.38 55.94 359.81 0 359.81 0 388 34.79 388"/>
    <polygon class="cls-5" points="47.27 369.49 6.36 369.49 6.36 377.74 42.49 377.74 47.27 371.38 47.27 369.49"/>
    <polygon class="cls-6" points="47.27 371.38 42.49 377.74 47.27 377.74 47.27 371.38"/>
    <polygon class="cls-7" points="224.57 294.76 224.57 294.48 119.83 294.48 119.83 359.81 175.77 359.81 224.57 294.76"/>
    <polygon class="cls-8" points="224.57 359.81 224.57 294.76 175.77 359.81 224.57 359.81"/>
    <polygon class="cls-3" points="167.09 371.38 167.09 377.74 162.32 377.74 154.62 388 224.57 388 224.57 359.81 175.77 359.81 167.09 371.38"/>
    <polygon class="cls-4" points="154.62 388 162.32 377.74 126.19 377.74 126.19 369.49 167.09 369.49 167.09 371.38 175.77 359.81 119.83 359.81 119.83 388 154.62 388"/>
    <polygon class="cls-5" points="167.09 369.49 126.19 369.49 126.19 377.74 162.32 377.74 167.09 371.38 167.09 369.49"/>
    <polygon class="cls-6" points="167.09 371.38 162.32 377.74 167.09 377.74 167.09 371.38"/>
    <polygon class="cls-9" points="104.74 186.61 104.74 186.34 0 186.34 0 251.66 55.94 251.66 104.74 186.61"/>
    <polygon class="cls-10" points="104.74 251.66 104.74 186.61 55.94 251.66 104.74 251.66"/>
    <polygon class="cls-3" points="47.27 263.23 47.27 269.6 42.49 269.6 34.79 279.85 104.74 279.85 104.74 251.66 55.94 251.66 47.27 263.23"/>
    <polygon class="cls-4" points="34.79 279.85 42.49 269.6 6.36 269.6 6.36 261.34 47.27 261.34 47.27 263.23 55.94 251.66 0 251.66 0 279.85 34.79 279.85"/>
    <polygon class="cls-5" points="47.27 261.34 6.36 261.34 6.36 269.6 42.49 269.6 47.27 263.23 47.27 261.34"/>
    <polygon class="cls-6" points="47.27 263.23 42.49 269.6 47.27 269.6 47.27 263.23"/>
    <polygon class="cls-11" points="224.57 186.61 224.57 186.34 119.83 186.34 119.83 251.66 175.77 251.66 224.57 186.61"/>
    <polygon class="cls-12" points="224.57 251.66 224.57 186.61 175.77 251.66 224.57 251.66"/>
    <polygon class="cls-3" points="167.09 263.23 167.09 269.6 162.32 269.6 154.62 279.85 224.57 279.85 224.57 251.66 175.77 251.66 167.09 263.23"/>
    <polygon class="cls-4" points="154.62 279.85 162.32 269.6 126.19 269.6 126.19 261.34 167.09 261.34 167.09 263.23 175.77 251.66 119.83 251.66 119.83 279.85 154.62 279.85"/>
    <polygon class="cls-5" points="167.09 261.34 126.19 261.34 126.19 269.6 162.32 269.6 167.09 263.23 167.09 261.34"/>
    <polygon class="cls-6" points="167.09 263.23 162.32 269.6 167.09 269.6 167.09 263.23"/>
    <path class="cls-4" d="M761.38,2571.55L743.16,2522H674l-18.22,49.55H643.72l60.11-159.33h10.44l59.44,159.33H761.38Zm-48.89-133.33a59.17,59.17,0,0,1-2-6.55q-0.78-2.78-1.67-5.56h-0.44a108.31,108.31,0,0,1-3.67,11.89l-26.78,73.89h61.44Z" transform="translate(-643.72 -2412.22)"/>
    <path class="cls-4" d="M858.07,2571.55v-22.78h-0.44a44.58,44.58,0,0,1-15.83,18.61,40.6,40.6,0,0,1-23.05,6.95q-16.22,0-25.67-9.11t-9.44-23q0-29.77,39.44-36l35-5.22q0-36.67-27.55-36.67-18.78,0-36.55,15.11v-12.33q6.33-5,17.17-8.55a65.5,65.5,0,0,1,20.39-3.55q17.55,0,27.17,10.89t9.61,31.67v74H858.07Zm-31.33-56.66q-17.89,2.56-25.11,8.28t-7.22,18.61a22.28,22.28,0,0,0,6.72,16.67q6.72,6.56,18.72,6.55a35.14,35.14,0,0,0,27.33-12.17q10.89-12.17,10.89-31.39v-11.11Z" transform="translate(-643.72 -2412.22)"/>
  </g>
</svg>
