<svg width="1280" height="960" viewBox="0 0 1280 960" fill="none" xmlns="http://www.w3.org/2000/svg">
<rect width="1280" height="960" fill="white"/>
<rect width="1280" height="960"/>
<path d="M78.5469 269.109H54.8281V285.609H76.625V297.891H54.8281V324H39.6875V256.781H78.5469V269.109ZM101.096 324H86.2831V252.938H101.096V324ZM157.254 324H142.488V316.688H142.254C138.598 322.344 133.707 325.172 127.582 325.172C116.457 325.172 110.894 318.438 110.894 304.969V276H125.66V303.656C125.66 310.438 128.348 313.828 133.723 313.828C136.379 313.828 138.504 312.906 140.098 311.062C141.691 309.188 142.488 306.656 142.488 303.469V276H157.254V324ZM210.974 304.219H179.662C180.162 311.188 184.553 314.672 192.834 314.672C198.115 314.672 202.756 313.422 206.756 310.922V321.609C202.318 323.984 196.553 325.172 189.459 325.172C181.709 325.172 175.693 323.031 171.412 318.75C167.131 314.438 164.99 308.438 164.99 300.75C164.99 292.781 167.303 286.469 171.928 281.812C176.553 277.156 182.24 274.828 188.99 274.828C195.99 274.828 201.396 276.906 205.209 281.062C209.053 285.219 210.974 290.859 210.974 297.984V304.219ZM197.24 295.125C197.24 288.25 194.459 284.812 188.896 284.812C186.521 284.812 184.459 285.797 182.709 287.766C180.99 289.734 179.943 292.188 179.568 295.125H197.24ZM264.226 324H249.461V297.328C249.461 289.891 246.804 286.172 241.492 286.172C238.929 286.172 236.82 287.156 235.164 289.125C233.508 291.094 232.679 293.594 232.679 296.625V324H217.867V276H232.679V283.594H232.867C236.398 277.75 241.539 274.828 248.289 274.828C258.914 274.828 264.226 281.422 264.226 294.609V324ZM303.087 323.438C300.9 324.594 297.603 325.172 293.197 325.172C282.759 325.172 277.541 319.75 277.541 308.906V286.922H269.759V276H277.541V265.641L292.306 261.422V276H303.087V286.922H292.306V306.328C292.306 311.328 294.291 313.828 298.259 313.828C299.822 313.828 301.431 313.375 303.087 312.469V323.438ZM379.872 276L362.013 324H345.138L328.122 276H343.966L352.31 305.578C353.247 308.922 353.794 311.766 353.951 314.109H354.138C354.357 311.891 354.935 309.141 355.872 305.859L364.404 276H379.872ZM446.203 324H430.921L403.218 281.766C401.593 279.297 400.468 277.438 399.843 276.188H399.656C399.906 278.562 400.031 282.188 400.031 287.062V324H385.734V256.781H402.046L428.718 297.703C429.937 299.547 431.062 301.375 432.093 303.188H432.281C432.031 301.625 431.906 298.547 431.906 293.953V256.781H446.203V324ZM501.329 304.219H470.017C470.517 311.188 474.908 314.672 483.189 314.672C488.47 314.672 493.111 313.422 497.111 310.922V321.609C492.673 323.984 486.908 325.172 479.814 325.172C472.064 325.172 466.048 323.031 461.767 318.75C457.486 314.438 455.345 308.438 455.345 300.75C455.345 292.781 457.658 286.469 462.283 281.812C466.908 277.156 472.595 274.828 479.345 274.828C486.345 274.828 491.751 276.906 495.564 281.062C499.408 285.219 501.329 290.859 501.329 297.984V304.219ZM487.595 295.125C487.595 288.25 484.814 284.812 479.251 284.812C476.876 284.812 474.814 285.797 473.064 287.766C471.345 289.734 470.298 292.188 469.923 295.125H487.595ZM554.581 276L538.737 299.25L554.487 324H537.425L530.487 311.062C529.925 310.031 529.253 308.578 528.472 306.703H528.284C527.816 308.016 527.175 309.422 526.362 310.922L519.378 324H502.362L518.581 300.094L503.347 276H520.503L527.347 289.453C528.253 291.234 528.894 292.734 529.269 293.953H529.456C529.956 292.484 530.628 290.953 531.472 289.359L538.456 276H554.581ZM588.38 323.438C586.193 324.594 582.896 325.172 578.489 325.172C568.052 325.172 562.833 319.75 562.833 308.906V286.922H555.052V276H562.833V265.641L577.599 261.422V276H588.38V286.922H577.599V306.328C577.599 311.328 579.583 313.828 583.552 313.828C585.114 313.828 586.724 313.375 588.38 312.469V323.438ZM708.852 256.781L691.087 324H674.306L663.149 280.875C662.556 278.625 662.196 276.109 662.071 273.328H661.884C661.602 276.391 661.196 278.906 660.665 280.875L649.227 324H631.743L614.071 256.781H630.618L640.087 301.547C640.493 303.453 640.79 306.016 640.977 309.234H641.259C641.384 306.828 641.837 304.203 642.618 301.359L654.806 256.781H671.024L682.04 301.922C682.446 303.578 682.806 305.984 683.118 309.141H683.306C683.431 306.672 683.759 304.172 684.29 301.641L693.571 256.781H708.852ZM754.511 304.219H723.198C723.698 311.188 728.089 314.672 736.37 314.672C741.651 314.672 746.292 313.422 750.292 310.922V321.609C745.854 323.984 740.089 325.172 732.995 325.172C725.245 325.172 719.229 323.031 714.948 318.75C710.667 314.438 708.526 308.438 708.526 300.75C708.526 292.781 710.839 286.469 715.464 281.812C720.089 277.156 725.776 274.828 732.526 274.828C739.526 274.828 744.932 276.906 748.745 281.062C752.589 285.219 754.511 290.859 754.511 297.984V304.219ZM740.776 295.125C740.776 288.25 737.995 284.812 732.432 284.812C730.057 284.812 727.995 285.797 726.245 287.766C724.526 289.734 723.479 292.188 723.104 295.125H740.776ZM776.403 318.422H776.216V324H761.403V252.938H776.216V283.219H776.403C780.059 277.625 785.263 274.828 792.013 274.828C798.2 274.828 802.966 276.953 806.309 281.203C809.653 285.453 811.325 291.266 811.325 298.641C811.325 306.641 809.372 313.062 805.466 317.906C801.559 322.75 796.341 325.172 789.809 325.172C783.903 325.172 779.434 322.922 776.403 318.422ZM775.981 298.172V303.094C775.981 306.188 776.872 308.75 778.653 310.781C780.434 312.812 782.716 313.828 785.497 313.828C788.872 313.828 791.481 312.531 793.325 309.938C795.2 307.312 796.138 303.609 796.138 298.828C796.138 294.859 795.278 291.766 793.559 289.547C791.872 287.297 789.45 286.172 786.294 286.172C783.325 286.172 780.856 287.281 778.888 289.5C776.95 291.719 775.981 294.609 775.981 298.172ZM815.874 322.734V310.734C818.311 312.203 820.733 313.297 823.139 314.016C825.577 314.734 827.874 315.094 830.03 315.094C832.655 315.094 834.718 314.734 836.218 314.016C837.749 313.297 838.514 312.203 838.514 310.734C838.514 309.797 838.171 309.016 837.483 308.391C836.796 307.766 835.905 307.219 834.811 306.75C833.749 306.281 832.577 305.859 831.296 305.484C830.014 305.109 828.78 304.688 827.593 304.219C825.686 303.5 823.999 302.734 822.53 301.922C821.093 301.078 819.874 300.109 818.874 299.016C817.905 297.922 817.155 296.656 816.624 295.219C816.124 293.781 815.874 292.078 815.874 290.109C815.874 287.422 816.452 285.109 817.608 283.172C818.796 281.234 820.358 279.656 822.296 278.438C824.264 277.188 826.499 276.281 828.999 275.719C831.53 275.125 834.155 274.828 836.874 274.828C838.999 274.828 841.155 275 843.343 275.344C845.53 275.656 847.686 276.125 849.811 276.75V288.188C847.936 287.094 845.921 286.281 843.764 285.75C841.639 285.188 839.546 284.906 837.483 284.906C836.514 284.906 835.593 285 834.718 285.188C833.874 285.344 833.124 285.594 832.468 285.938C831.811 286.25 831.296 286.672 830.921 287.203C830.546 287.703 830.358 288.281 830.358 288.938C830.358 289.812 830.639 290.562 831.202 291.188C831.764 291.812 832.499 292.359 833.405 292.828C834.311 293.266 835.311 293.672 836.405 294.047C837.53 294.391 838.639 294.75 839.733 295.125C841.702 295.812 843.483 296.562 845.077 297.375C846.671 298.188 848.03 299.141 849.155 300.234C850.311 301.328 851.186 302.609 851.78 304.078C852.405 305.547 852.718 307.297 852.718 309.328C852.718 312.172 852.093 314.609 850.843 316.641C849.624 318.641 847.983 320.281 845.921 321.562C843.889 322.812 841.53 323.719 838.843 324.281C836.186 324.875 833.421 325.172 830.546 325.172C825.264 325.172 820.374 324.359 815.874 322.734ZM866.876 268.406C864.376 268.406 862.329 267.672 860.735 266.203C859.141 264.703 858.344 262.875 858.344 260.719C858.344 258.5 859.141 256.688 860.735 255.281C862.329 253.875 864.376 253.172 866.876 253.172C869.407 253.172 871.454 253.875 873.016 255.281C874.61 256.688 875.407 258.5 875.407 260.719C875.407 262.969 874.61 264.812 873.016 266.25C871.454 267.688 869.407 268.406 866.876 268.406ZM874.188 324H859.376V276H874.188V324ZM913.753 323.438C911.565 324.594 908.268 325.172 903.862 325.172C893.424 325.172 888.206 319.75 888.206 308.906V286.922H880.424V276H888.206V265.641L902.971 261.422V276H913.753V286.922H902.971V306.328C902.971 311.328 904.956 313.828 908.924 313.828C910.487 313.828 912.096 313.375 913.753 312.469V323.438ZM962.973 304.219H931.661C932.161 311.188 936.551 314.672 944.833 314.672C950.114 314.672 954.754 313.422 958.754 310.922V321.609C954.317 323.984 948.551 325.172 941.458 325.172C933.708 325.172 927.692 323.031 923.411 318.75C919.129 314.438 916.989 308.438 916.989 300.75C916.989 292.781 919.301 286.469 923.926 281.812C928.551 277.156 934.239 274.828 940.989 274.828C947.989 274.828 953.395 276.906 957.208 281.062C961.051 285.219 962.973 290.859 962.973 297.984V304.219ZM949.239 295.125C949.239 288.25 946.458 284.812 940.895 284.812C938.52 284.812 936.458 285.797 934.708 287.766C932.989 289.734 931.942 292.188 931.567 295.125H949.239ZM128 423.562H32V413.203H128V423.562ZM216.551 444H201.363V416.625H173.519V444H158.379V376.781H173.519V403.594H201.363V376.781H216.551V444ZM251.474 445.172C243.474 445.172 237.178 442.938 232.584 438.469C228.021 433.969 225.74 427.875 225.74 420.188C225.74 412.25 228.115 406.047 232.865 401.578C237.615 397.078 244.037 394.828 252.131 394.828C260.099 394.828 266.349 397.078 270.881 401.578C275.412 406.047 277.678 411.969 277.678 419.344C277.678 427.312 275.334 433.609 270.646 438.234C265.99 442.859 259.599 445.172 251.474 445.172ZM251.849 406.172C248.349 406.172 245.631 407.375 243.693 409.781C241.756 412.188 240.787 415.594 240.787 420C240.787 429.219 244.506 433.828 251.943 433.828C259.037 433.828 262.584 429.094 262.584 419.625C262.584 410.656 259.006 406.172 251.849 406.172ZM361.586 444H346.82V416.625C346.82 409.656 344.258 406.172 339.133 406.172C336.695 406.172 334.711 407.219 333.179 409.312C331.648 411.406 330.883 414.016 330.883 417.141V444H316.07V416.344C316.07 409.562 313.554 406.172 308.523 406.172C305.992 406.172 303.961 407.172 302.429 409.172C300.929 411.172 300.179 413.891 300.179 417.328V444H285.367V396H300.179V403.5H300.367C301.898 400.938 304.039 398.859 306.789 397.266C309.57 395.641 312.601 394.828 315.883 394.828C322.664 394.828 327.304 397.812 329.804 403.781C333.461 397.812 338.836 394.828 345.929 394.828C356.367 394.828 361.586 401.266 361.586 414.141V444ZM414.509 424.219H383.197C383.697 431.188 388.087 434.672 396.369 434.672C401.65 434.672 406.291 433.422 410.291 430.922V441.609C405.853 443.984 400.087 445.172 392.994 445.172C385.244 445.172 379.228 443.031 374.947 438.75C370.666 434.438 368.525 428.438 368.525 420.75C368.525 412.781 370.837 406.469 375.462 401.812C380.087 397.156 385.775 394.828 392.525 394.828C399.525 394.828 404.931 396.906 408.744 401.062C412.587 405.219 414.509 410.859 414.509 417.984V424.219ZM400.775 415.125C400.775 408.25 397.994 404.812 392.431 404.812C390.056 404.812 387.994 405.797 386.244 407.766C384.525 409.734 383.478 412.188 383.103 415.125H400.775ZM462.607 420.844V444H447.466V376.781H471.185C488.122 376.781 496.591 383.922 496.591 398.203C496.591 404.953 494.154 410.422 489.279 414.609C484.435 418.766 477.951 420.844 469.826 420.844H462.607ZM462.607 388.406V409.359H468.56C476.622 409.359 480.654 405.828 480.654 398.766C480.654 391.859 476.622 388.406 468.56 388.406H462.607ZM540.562 444H526.546V437.109H526.359C523.14 442.484 518.374 445.172 512.062 445.172C507.406 445.172 503.734 443.859 501.046 441.234C498.39 438.578 497.062 435.047 497.062 430.641C497.062 421.328 502.578 415.953 513.609 414.516L526.64 412.781C526.64 407.531 523.796 404.906 518.109 404.906C512.39 404.906 506.953 406.609 501.796 410.016V398.859C503.859 397.797 506.671 396.859 510.234 396.047C513.828 395.234 517.093 394.828 520.031 394.828C533.718 394.828 540.562 401.656 540.562 415.312V444ZM526.64 424.5V421.266L517.921 422.391C513.109 423.016 510.703 425.188 510.703 428.906C510.703 430.594 511.281 431.984 512.437 433.078C513.624 434.141 515.218 434.672 517.218 434.672C519.999 434.672 522.265 433.719 524.015 431.812C525.765 429.875 526.64 427.438 526.64 424.5ZM597.423 438.516C597.423 447.422 594.845 454.312 589.689 459.188C584.532 464.094 577.064 466.547 567.282 466.547C560.814 466.547 555.689 465.625 551.907 463.781V451.312C556.845 454.188 561.829 455.625 566.861 455.625C571.861 455.625 575.736 454.297 578.486 451.641C581.236 449.016 582.611 445.438 582.611 440.906V437.109H582.423C579.048 442.484 574.064 445.172 567.47 445.172C561.345 445.172 556.486 443.016 552.892 438.703C549.298 434.391 547.501 428.609 547.501 421.359C547.501 413.234 549.501 406.781 553.501 402C557.501 397.219 562.767 394.828 569.298 394.828C575.142 394.828 579.517 397.078 582.423 401.578H582.611V396H597.423V438.516ZM582.798 420.938V417.141C582.798 414.109 581.892 411.531 580.079 409.406C578.298 407.25 575.97 406.172 573.095 406.172C569.814 406.172 567.236 407.453 565.361 410.016C563.486 412.578 562.548 416.188 562.548 420.844C562.548 424.844 563.439 428.016 565.22 430.359C567.001 432.672 569.439 433.828 572.532 433.828C575.595 433.828 578.064 432.656 579.939 430.312C581.845 427.938 582.798 424.812 582.798 420.938ZM651.003 424.219H619.691C620.191 431.188 624.581 434.672 632.862 434.672C638.144 434.672 642.784 433.422 646.784 430.922V441.609C642.347 443.984 636.581 445.172 629.487 445.172C621.737 445.172 615.722 443.031 611.441 438.75C607.159 434.438 605.019 428.438 605.019 420.75C605.019 412.781 607.331 406.469 611.956 401.812C616.581 397.156 622.269 394.828 629.019 394.828C636.019 394.828 641.425 396.906 645.237 401.062C649.081 405.219 651.003 410.859 651.003 417.984V424.219ZM637.269 415.125C637.269 408.25 634.487 404.812 628.925 404.812C626.55 404.812 624.487 405.797 622.737 407.766C621.019 409.734 619.972 412.188 619.597 415.125H637.269ZM745.601 445.078C743.944 445.078 742.366 444.859 740.866 444.422C739.398 443.984 737.991 443.391 736.648 442.641C735.335 441.891 734.085 441.016 732.898 440.016C731.71 438.984 730.585 437.891 729.523 436.734C728.366 437.672 726.976 438.641 725.351 439.641C723.726 440.641 721.882 441.547 719.819 442.359C717.788 443.141 715.538 443.781 713.069 444.281C710.601 444.812 707.96 445.078 705.148 445.078C701.491 445.078 698.101 444.641 694.976 443.766C691.882 442.891 689.21 441.594 686.96 439.875C684.71 438.125 682.944 435.969 681.663 433.406C680.413 430.844 679.788 427.875 679.788 424.5C679.788 421.844 680.257 419.484 681.194 417.422C682.163 415.328 683.413 413.5 684.944 411.938C686.476 410.375 688.21 409.031 690.148 407.906C692.085 406.781 694.054 405.844 696.054 405.094C695.085 404.344 694.101 403.484 693.101 402.516C692.132 401.516 691.257 400.438 690.476 399.281C689.694 398.094 689.054 396.812 688.554 395.438C688.085 394.062 687.851 392.609 687.851 391.078C687.851 388.609 688.351 386.422 689.351 384.516C690.351 382.609 691.741 381 693.523 379.688C695.335 378.375 697.491 377.375 699.991 376.688C702.491 376 705.241 375.656 708.241 375.656C711.116 375.656 713.741 376.016 716.116 376.734C718.523 377.453 720.585 378.453 722.304 379.734C724.023 381.016 725.351 382.562 726.288 384.375C727.226 386.156 727.694 388.125 727.694 390.281C727.694 393.75 726.648 396.766 724.554 399.328C722.491 401.859 719.569 403.922 715.788 405.516C717.288 406.203 718.726 406.984 720.101 407.859C721.476 408.734 722.819 409.734 724.132 410.859C725.444 411.984 726.726 413.266 727.976 414.703C729.226 416.109 730.46 417.734 731.679 419.578C734.241 416.359 736.069 412.938 737.163 409.312C738.288 405.656 738.851 401.859 738.851 397.922C738.851 396.734 738.773 395.594 738.616 394.5C738.491 393.406 738.273 392.391 737.96 391.453H750.569C750.913 392.453 751.163 393.422 751.319 394.359C751.476 395.297 751.554 396.406 751.554 397.688C751.554 400.719 751.226 403.672 750.569 406.547C749.944 409.422 749.054 412.172 747.898 414.797C746.741 417.422 745.335 419.906 743.679 422.25C742.054 424.594 740.257 426.781 738.288 428.812C739.819 430.406 741.398 431.641 743.023 432.516C744.648 433.359 746.179 433.781 747.616 433.781C749.116 433.781 750.648 433.625 752.21 433.312C753.773 432.969 755.132 432.5 756.288 431.906V443.062C754.569 443.75 752.866 444.25 751.179 444.562C749.523 444.906 747.663 445.078 745.601 445.078ZM705.898 433.875C707.741 433.875 709.476 433.703 711.101 433.359C712.726 432.984 714.257 432.5 715.694 431.906C717.132 431.312 718.46 430.625 719.679 429.844C720.929 429.062 722.069 428.25 723.101 427.406C721.507 424.906 719.929 422.797 718.366 421.078C716.804 419.328 715.257 417.844 713.726 416.625C712.194 415.375 710.663 414.328 709.132 413.484C707.632 412.641 706.116 411.875 704.585 411.188C703.304 411.812 702.069 412.516 700.882 413.297C699.726 414.047 698.694 414.938 697.788 415.969C696.882 416.969 696.148 418.125 695.585 419.438C695.054 420.719 694.788 422.203 694.788 423.891C694.788 425.391 695.054 426.75 695.585 427.969C696.116 429.188 696.866 430.234 697.835 431.109C698.835 431.984 700.007 432.672 701.351 433.172C702.726 433.641 704.241 433.875 705.898 433.875ZM714.569 391.312C714.569 390.406 714.398 389.594 714.054 388.875C713.71 388.156 713.241 387.562 712.648 387.094C712.054 386.594 711.382 386.219 710.632 385.969C709.882 385.688 709.085 385.547 708.241 385.547C707.21 385.547 706.257 385.703 705.382 386.016C704.538 386.328 703.788 386.75 703.132 387.281C702.507 387.812 702.023 388.453 701.679 389.203C701.335 389.922 701.163 390.703 701.163 391.547C701.163 393.297 701.71 394.906 702.804 396.375C703.898 397.844 705.257 399.031 706.882 399.938C707.913 399.562 708.882 399.125 709.788 398.625C710.726 398.125 711.538 397.531 712.226 396.844C712.944 396.156 713.507 395.359 713.913 394.453C714.351 393.547 714.569 392.5 714.569 391.312ZM844.182 376.781L821.026 444H803.87L780.995 376.781H797.307L811.323 423.562C812.073 426.094 812.526 428.328 812.682 430.266H812.964C813.182 428.172 813.667 425.875 814.417 423.375L828.339 376.781H844.182ZM856.372 388.406C853.872 388.406 851.825 387.672 850.231 386.203C848.638 384.703 847.841 382.875 847.841 380.719C847.841 378.5 848.638 376.688 850.231 375.281C851.825 373.875 853.872 373.172 856.372 373.172C858.903 373.172 860.95 373.875 862.513 375.281C864.106 376.688 864.903 378.5 864.903 380.719C864.903 382.969 864.106 384.812 862.513 386.25C860.95 387.688 858.903 388.406 856.372 388.406ZM863.684 444H848.872V396H863.684V444ZM871.093 442.734V430.734C873.53 432.203 875.952 433.297 878.358 434.016C880.796 434.734 883.093 435.094 885.249 435.094C887.874 435.094 889.936 434.734 891.436 434.016C892.968 433.297 893.733 432.203 893.733 430.734C893.733 429.797 893.389 429.016 892.702 428.391C892.014 427.766 891.124 427.219 890.03 426.75C888.968 426.281 887.796 425.859 886.514 425.484C885.233 425.109 883.999 424.688 882.811 424.219C880.905 423.5 879.218 422.734 877.749 421.922C876.311 421.078 875.093 420.109 874.093 419.016C873.124 417.922 872.374 416.656 871.843 415.219C871.343 413.781 871.093 412.078 871.093 410.109C871.093 407.422 871.671 405.109 872.827 403.172C874.014 401.234 875.577 399.656 877.514 398.438C879.483 397.188 881.718 396.281 884.218 395.719C886.749 395.125 889.374 394.828 892.093 394.828C894.218 394.828 896.374 395 898.561 395.344C900.749 395.656 902.905 396.125 905.03 396.75V408.188C903.155 407.094 901.139 406.281 898.983 405.75C896.858 405.188 894.764 404.906 892.702 404.906C891.733 404.906 890.811 405 889.936 405.188C889.093 405.344 888.343 405.594 887.686 405.938C887.03 406.25 886.514 406.672 886.139 407.203C885.764 407.703 885.577 408.281 885.577 408.938C885.577 409.812 885.858 410.562 886.421 411.188C886.983 411.812 887.718 412.359 888.624 412.828C889.53 413.266 890.53 413.672 891.624 414.047C892.749 414.391 893.858 414.75 894.952 415.125C896.921 415.812 898.702 416.562 900.296 417.375C901.889 418.188 903.249 419.141 904.374 420.234C905.53 421.328 906.405 422.609 906.999 424.078C907.624 425.547 907.936 427.297 907.936 429.328C907.936 432.172 907.311 434.609 906.061 436.641C904.843 438.641 903.202 440.281 901.139 441.562C899.108 442.812 896.749 443.719 894.061 444.281C891.405 444.875 888.639 445.172 885.764 445.172C880.483 445.172 875.593 444.359 871.093 442.734ZM960.204 444H945.438V436.688H945.204C941.547 442.344 936.657 445.172 930.532 445.172C919.407 445.172 913.844 438.438 913.844 424.969V396H928.61V423.656C928.61 430.438 931.297 433.828 936.672 433.828C939.329 433.828 941.454 432.906 943.047 431.062C944.641 429.188 945.438 426.656 945.438 423.469V396H960.204V444ZM1010.74 444H996.721V437.109H996.534C993.315 442.484 988.549 445.172 982.237 445.172C977.581 445.172 973.909 443.859 971.221 441.234C968.565 438.578 967.237 435.047 967.237 430.641C967.237 421.328 972.753 415.953 983.784 414.516L996.815 412.781C996.815 407.531 993.971 404.906 988.284 404.906C982.565 404.906 977.128 406.609 971.971 410.016V398.859C974.034 397.797 976.846 396.859 980.409 396.047C984.003 395.234 987.268 394.828 990.206 394.828C1003.89 394.828 1010.74 401.656 1010.74 415.312V444ZM996.815 424.5V421.266L988.096 422.391C983.284 423.016 980.878 425.188 980.878 428.906C980.878 430.594 981.456 431.984 982.612 433.078C983.799 434.141 985.393 434.672 987.393 434.672C990.174 434.672 992.44 433.719 994.19 431.812C995.94 429.875 996.815 427.438 996.815 424.5ZM1035.35 444H1020.54V372.938H1035.35V444ZM1042.76 442.734V430.734C1045.19 432.203 1047.62 433.297 1050.02 434.016C1052.46 434.734 1054.76 435.094 1056.91 435.094C1059.54 435.094 1061.6 434.734 1063.1 434.016C1064.63 433.297 1065.4 432.203 1065.4 430.734C1065.4 429.797 1065.05 429.016 1064.37 428.391C1063.68 427.766 1062.79 427.219 1061.69 426.75C1060.63 426.281 1059.46 425.859 1058.18 425.484C1056.9 425.109 1055.66 424.688 1054.47 424.219C1052.57 423.5 1050.88 422.734 1049.41 421.922C1047.97 421.078 1046.76 420.109 1045.76 419.016C1044.79 417.922 1044.04 416.656 1043.51 415.219C1043.01 413.781 1042.76 412.078 1042.76 410.109C1042.76 407.422 1043.33 405.109 1044.49 403.172C1045.68 401.234 1047.24 399.656 1049.18 398.438C1051.15 397.188 1053.38 396.281 1055.88 395.719C1058.41 395.125 1061.04 394.828 1063.76 394.828C1065.88 394.828 1068.04 395 1070.22 395.344C1072.41 395.656 1074.57 396.125 1076.69 396.75V408.188C1074.82 407.094 1072.8 406.281 1070.65 405.75C1068.52 405.188 1066.43 404.906 1064.37 404.906C1063.4 404.906 1062.47 405 1061.6 405.188C1060.76 405.344 1060.01 405.594 1059.35 405.938C1058.69 406.25 1058.18 406.672 1057.8 407.203C1057.43 407.703 1057.24 408.281 1057.24 408.938C1057.24 409.812 1057.52 410.562 1058.08 411.188C1058.65 411.812 1059.38 412.359 1060.29 412.828C1061.19 413.266 1062.19 413.672 1063.29 414.047C1064.41 414.391 1065.52 414.75 1066.62 415.125C1068.58 415.812 1070.37 416.562 1071.96 417.375C1073.55 418.188 1074.91 419.141 1076.04 420.234C1077.19 421.328 1078.07 422.609 1078.66 424.078C1079.29 425.547 1079.6 427.297 1079.6 429.328C1079.6 432.172 1078.97 434.609 1077.72 436.641C1076.51 438.641 1074.87 440.281 1072.8 441.562C1070.77 442.812 1068.41 443.719 1065.72 444.281C1063.07 444.875 1060.3 445.172 1057.43 445.172C1052.15 445.172 1047.26 444.359 1042.76 442.734Z" fill="black"/>
<path d="M56.1562 39.0628L35.8485 50.7679C34.7048 51.4271 34 52.6468 34 53.9669V105.033C34 106.353 34.7048 107.573 35.8485 108.232L55.2319 119.405C56.4627 120.114 58 119.226 58 117.805V93.3333L79.225 81.0995C80.4573 80.3892 80.4573 78.6108 79.225 77.9005L58 65.6667L79.225 53.4328C80.4573 52.7225 80.4573 50.9441 79.225 50.2339L59.8438 39.0628C58.7026 38.405 57.2974 38.405 56.1562 39.0628Z" fill="black"/>
<rect x="812" y="34" width="436" height="96" rx="48" fill="black"/>
<path d="M889.844 64.3906L880.633 98H874.328L867.93 74.4922C867.664 73.4922 867.5 72.3984 867.438 71.2109H867.344C867.266 72.3203 867.078 73.3984 866.781 74.4453L860.359 98H853.914L844.516 64.3906H850.633L856.727 89C856.977 90.0312 857.133 91.1094 857.195 92.2344H857.312C857.375 91.4375 857.594 90.3594 857.969 89L864.859 64.3906H870.602L876.977 89.1875C877.195 90.0312 877.359 91.0312 877.469 92.1875H877.562C877.609 91.4062 877.789 90.375 878.102 89.0938L884.078 64.3906H889.844ZM903.32 98.5625C899.617 98.5625 896.656 97.4453 894.438 95.2109C892.234 92.9609 891.133 89.9844 891.133 86.2812C891.133 82.25 892.281 79.1016 894.578 76.8359C896.891 74.5703 900 73.4375 903.906 73.4375C907.656 73.4375 910.578 74.5391 912.672 76.7422C914.766 78.9453 915.812 82 915.812 85.9062C915.812 89.7344 914.68 92.8047 912.414 95.1172C910.164 97.4141 907.133 98.5625 903.32 98.5625ZM903.578 77.7734C901.453 77.7734 899.773 78.5156 898.539 80C897.305 81.4844 896.688 83.5312 896.688 86.1406C896.688 88.6562 897.312 90.6406 898.562 92.0938C899.812 93.5312 901.484 94.25 903.578 94.25C905.719 94.25 907.359 93.5391 908.5 92.1172C909.656 90.6953 910.234 88.6719 910.234 86.0469C910.234 83.4062 909.656 81.3672 908.5 79.9297C907.359 78.4922 905.719 77.7734 903.578 77.7734ZM935.289 79.1797C934.633 78.6641 933.688 78.4062 932.453 78.4062C930.844 78.4062 929.5 79.1328 928.422 80.5859C927.344 82.0391 926.805 84.0156 926.805 86.5156V98H921.367V74H926.805V78.9453H926.898C927.43 77.2578 928.242 75.9453 929.336 75.0078C930.445 74.0547 931.68 73.5781 933.039 73.5781C934.023 73.5781 934.773 73.7266 935.289 74.0234V79.1797ZM960.906 98H954.016L944.688 86.4688H944.594V98H939.133V62.4688H944.594V84.9922H944.688L953.5 74H960.039L950.125 85.5781L960.906 98ZM980.312 68.9609C979.422 68.9609 978.656 68.6719 978.016 68.0938C977.391 67.5156 977.078 66.7812 977.078 65.8906C977.078 65 977.391 64.2578 978.016 63.6641C978.656 63.0703 979.422 62.7734 980.312 62.7734C981.234 62.7734 982.016 63.0703 982.656 63.6641C983.297 64.2578 983.617 65 983.617 65.8906C983.617 66.7344 983.297 67.4609 982.656 68.0703C982.016 68.6641 981.234 68.9609 980.312 68.9609ZM983.008 98H977.57V74H983.008V98ZM1011.51 98H1006.07V84.4766C1006.07 79.9922 1004.48 77.75 1001.31 77.75C999.656 77.75 998.289 78.375 997.211 79.625C996.133 80.8594 995.594 82.4219 995.594 84.3125V98H990.133V74H995.594V77.9844H995.688C997.484 74.9531 1000.08 73.4375 1003.47 73.4375C1006.08 73.4375 1008.07 74.2891 1009.45 75.9922C1010.82 77.6797 1011.51 80.125 1011.51 83.3281V98ZM1036.91 94.4609H1036.82V109.039H1031.38V74H1036.82V78.2188H1036.91C1038.77 75.0312 1041.49 73.4375 1045.07 73.4375C1048.12 73.4375 1050.49 74.5078 1052.2 76.6484C1053.9 78.7891 1054.75 81.6641 1054.75 85.2734C1054.75 89.2734 1053.79 92.4766 1051.87 94.8828C1049.95 97.2891 1047.32 98.4922 1043.99 98.4922C1040.93 98.4922 1038.57 97.1484 1036.91 94.4609ZM1036.77 84.9922V87.9688C1036.77 89.7188 1037.33 91.2031 1038.44 92.4219C1039.56 93.6406 1040.98 94.25 1042.7 94.25C1044.72 94.25 1046.3 93.4688 1047.44 91.9062C1048.59 90.3281 1049.17 88.1328 1049.17 85.3203C1049.17 82.9609 1048.63 81.1172 1047.55 79.7891C1046.49 78.4453 1045.05 77.7734 1043.22 77.7734C1041.28 77.7734 1039.72 78.4609 1038.53 79.8359C1037.36 81.2109 1036.77 82.9297 1036.77 84.9922ZM1074.23 79.1797C1073.57 78.6641 1072.62 78.4062 1071.39 78.4062C1069.78 78.4062 1068.44 79.1328 1067.36 80.5859C1066.28 82.0391 1065.74 84.0156 1065.74 86.5156V98H1060.3V74H1065.74V78.9453H1065.84C1066.37 77.2578 1067.18 75.9453 1068.27 75.0078C1069.38 74.0547 1070.62 73.5781 1071.98 73.5781C1072.96 73.5781 1073.71 73.7266 1074.23 74.0234V79.1797ZM1088.29 98.5625C1084.59 98.5625 1081.62 97.4453 1079.41 95.2109C1077.2 92.9609 1076.1 89.9844 1076.1 86.2812C1076.1 82.25 1077.25 79.1016 1079.55 76.8359C1081.86 74.5703 1084.97 73.4375 1088.88 73.4375C1092.62 73.4375 1095.55 74.5391 1097.64 76.7422C1099.73 78.9453 1100.78 82 1100.78 85.9062C1100.78 89.7344 1099.65 92.8047 1097.38 95.1172C1095.13 97.4141 1092.1 98.5625 1088.29 98.5625ZM1088.55 77.7734C1086.42 77.7734 1084.74 78.5156 1083.51 80C1082.27 81.4844 1081.66 83.5312 1081.66 86.1406C1081.66 88.6562 1082.28 90.6406 1083.53 92.0938C1084.78 93.5312 1086.45 94.25 1088.55 94.25C1090.69 94.25 1092.33 93.5391 1093.47 92.1172C1094.62 90.6953 1095.2 88.6719 1095.2 86.0469C1095.2 83.4062 1094.62 81.3672 1093.47 79.9297C1092.33 78.4922 1090.69 77.7734 1088.55 77.7734ZM1128.18 96.0781C1128.18 104.891 1123.75 109.297 1114.89 109.297C1111.77 109.297 1109.04 108.773 1106.71 107.727V102.758C1109.34 104.258 1111.83 105.008 1114.19 105.008C1119.89 105.008 1122.74 102.203 1122.74 96.5938V93.9688H1122.65C1120.85 97.0312 1118.15 98.5625 1114.54 98.5625C1111.62 98.5625 1109.26 97.5 1107.46 95.375C1105.68 93.2344 1104.79 90.3672 1104.79 86.7734C1104.79 82.6953 1105.75 79.4531 1107.67 77.0469C1109.59 74.6406 1112.23 73.4375 1115.59 73.4375C1118.77 73.4375 1121.12 74.7344 1122.65 77.3281H1122.74V74H1128.18V96.0781ZM1122.79 87.0078V83.8906C1122.79 82.2031 1122.23 80.7656 1121.1 79.5781C1119.99 78.375 1118.6 77.7734 1116.93 77.7734C1114.87 77.7734 1113.25 78.5391 1112.08 80.0703C1110.92 81.5859 1110.34 83.7109 1110.34 86.4453C1110.34 88.8047 1110.9 90.6953 1112.01 92.1172C1113.13 93.5234 1114.62 94.2266 1116.46 94.2266C1118.34 94.2266 1119.86 93.5547 1121.03 92.2109C1122.2 90.8516 1122.79 89.1172 1122.79 87.0078ZM1149.18 79.1797C1148.52 78.6641 1147.58 78.4062 1146.34 78.4062C1144.73 78.4062 1143.39 79.1328 1142.31 80.5859C1141.23 82.0391 1140.7 84.0156 1140.7 86.5156V98H1135.26V74H1140.7V78.9453H1140.79C1141.32 77.2578 1142.13 75.9453 1143.23 75.0078C1144.34 74.0547 1145.57 73.5781 1146.93 73.5781C1147.91 73.5781 1148.66 73.7266 1149.18 74.0234V79.1797ZM1172.92 87.4766H1156.56C1156.62 89.6953 1157.3 91.4062 1158.6 92.6094C1159.91 93.8125 1161.71 94.4141 1163.99 94.4141C1166.55 94.4141 1168.91 93.6484 1171.05 92.1172V96.5C1168.86 97.875 1165.97 98.5625 1162.38 98.5625C1158.84 98.5625 1156.07 97.4766 1154.05 95.3047C1152.05 93.1172 1151.05 90.0469 1151.05 86.0938C1151.05 82.3594 1152.16 79.3203 1154.36 76.9766C1156.58 74.6172 1159.33 73.4375 1162.61 73.4375C1165.89 73.4375 1168.43 74.4922 1170.23 76.6016C1172.02 78.7109 1172.92 81.6406 1172.92 85.3906V87.4766ZM1167.67 83.6328C1167.66 81.6797 1167.2 80.1641 1166.29 79.0859C1165.38 77.9922 1164.13 77.4453 1162.54 77.4453C1160.98 77.4453 1159.65 78.0156 1158.55 79.1562C1157.48 80.2969 1156.81 81.7891 1156.56 83.6328H1167.67ZM1176.6 97.25V92.2109C1178.63 93.7578 1180.88 94.5312 1183.33 94.5312C1186.61 94.5312 1188.25 93.5625 1188.25 91.625C1188.25 91.0781 1188.11 90.6172 1187.83 90.2422C1187.55 89.8516 1187.16 89.5078 1186.68 89.2109C1186.21 88.9141 1185.65 88.6484 1184.99 88.4141C1184.35 88.1797 1183.63 87.9141 1182.84 87.6172C1181.85 87.2266 1180.96 86.8125 1180.16 86.375C1179.38 85.9375 1178.73 85.4453 1178.2 84.8984C1177.68 84.3359 1177.29 83.7031 1177.02 83C1176.76 82.2969 1176.62 81.4766 1176.62 80.5391C1176.62 79.3828 1176.9 78.3672 1177.45 77.4922C1177.99 76.6016 1178.73 75.8594 1179.65 75.2656C1180.57 74.6562 1181.62 74.2031 1182.79 73.9062C1183.96 73.5938 1185.17 73.4375 1186.42 73.4375C1188.64 73.4375 1190.62 73.7734 1192.38 74.4453V79.2031C1190.69 78.0469 1188.75 77.4688 1186.56 77.4688C1185.88 77.4688 1185.25 77.5391 1184.69 77.6797C1184.14 77.8203 1183.67 78.0156 1183.28 78.2656C1182.89 78.5156 1182.59 78.8203 1182.37 79.1797C1182.15 79.5234 1182.04 79.9062 1182.04 80.3281C1182.04 80.8438 1182.15 81.2812 1182.37 81.6406C1182.59 82 1182.91 82.3203 1183.33 82.6016C1183.77 82.8672 1184.28 83.1172 1184.88 83.3516C1185.48 83.5703 1186.18 83.8125 1186.96 84.0781C1187.99 84.5 1188.91 84.9297 1189.73 85.3672C1190.55 85.8047 1191.26 86.3047 1191.84 86.8672C1192.41 87.4141 1192.86 88.0547 1193.17 88.7891C1193.48 89.5078 1193.64 90.3672 1193.64 91.3672C1193.64 92.5859 1193.36 93.6484 1192.8 94.5547C1192.23 95.4609 1191.48 96.2109 1190.55 96.8047C1189.61 97.3984 1188.52 97.8359 1187.29 98.1172C1186.07 98.4141 1184.78 98.5625 1183.42 98.5625C1180.8 98.5625 1178.52 98.125 1176.6 97.25ZM1197.32 97.25V92.2109C1199.35 93.7578 1201.59 94.5312 1204.05 94.5312C1207.33 94.5312 1208.97 93.5625 1208.97 91.625C1208.97 91.0781 1208.83 90.6172 1208.55 90.2422C1208.27 89.8516 1207.88 89.5078 1207.4 89.2109C1206.93 88.9141 1206.37 88.6484 1205.71 88.4141C1205.07 88.1797 1204.35 87.9141 1203.55 87.6172C1202.57 87.2266 1201.68 86.8125 1200.88 86.375C1200.1 85.9375 1199.45 85.4453 1198.91 84.8984C1198.4 84.3359 1198.01 83.7031 1197.74 83C1197.48 82.2969 1197.34 81.4766 1197.34 80.5391C1197.34 79.3828 1197.62 78.3672 1198.16 77.4922C1198.71 76.6016 1199.45 75.8594 1200.37 75.2656C1201.29 74.6562 1202.34 74.2031 1203.51 73.9062C1204.68 73.5938 1205.89 73.4375 1207.14 73.4375C1209.36 73.4375 1211.34 73.7734 1213.09 74.4453V79.2031C1211.41 78.0469 1209.47 77.4688 1207.28 77.4688C1206.59 77.4688 1205.97 77.5391 1205.41 77.6797C1204.86 77.8203 1204.39 78.0156 1204 78.2656C1203.61 78.5156 1203.3 78.8203 1203.09 79.1797C1202.87 79.5234 1202.76 79.9062 1202.76 80.3281C1202.76 80.8438 1202.87 81.2812 1203.09 81.6406C1203.3 82 1203.62 82.3203 1204.05 82.6016C1204.48 82.8672 1205 83.1172 1205.59 83.3516C1206.2 83.5703 1206.9 83.8125 1207.68 84.0781C1208.71 84.5 1209.63 84.9297 1210.45 85.3672C1211.27 85.8047 1211.98 86.3047 1212.55 86.8672C1213.13 87.4141 1213.58 88.0547 1213.89 88.7891C1214.2 89.5078 1214.36 90.3672 1214.36 91.3672C1214.36 92.5859 1214.08 93.6484 1213.52 94.5547C1212.95 95.4609 1212.2 96.2109 1211.27 96.8047C1210.33 97.3984 1209.24 97.8359 1208.01 98.1172C1206.79 98.4141 1205.5 98.5625 1204.14 98.5625C1201.52 98.5625 1199.24 98.125 1197.32 97.25Z" fill="white"/>
</svg>
