<svg width="163" height="29" viewBox="0 0 163 29" fill="none" xmlns="http://www.w3.org/2000/svg">
<path d="M8.17362 0.173779L0.678882 4.36611C0.259079 4.60094 0 5.03796 0 5.51127V23.7645C0 24.2378 0.25908 24.6748 0.678882 24.9096L7.83414 28.9121C8.28326 29.1633 8.84208 28.8459 8.84208 28.3395V19.5839L16.6606 15.2105C17.1131 14.9573 17.1131 14.3185 16.6606 14.0653L8.84208 9.69188L16.6606 5.31844C17.1131 5.06528 17.1131 4.42645 16.6606 4.17328L9.51054 0.173779C9.09635 -0.0579263 8.58781 -0.0579263 8.17362 0.173779Z" fill="#242424"/>
<path d="M36.7578 11.8516H32.8047V14.6016H36.4375V16.6484H32.8047V21H30.2812V9.79688H36.7578V11.8516ZM38.2072 21V9.15625H40.6759V21H38.2072ZM50.1956 21H47.7347V19.7812H47.6956C47.3935 20.25 47.0368 20.6042 46.6253 20.8438C46.2191 21.0781 45.7607 21.1953 45.2503 21.1953C44.3232 21.1953 43.6279 20.9141 43.1644 20.3516C42.7008 19.7891 42.4691 18.9479 42.4691 17.8281V13H44.93V17.6094C44.93 18.1719 45.042 18.5964 45.2659 18.8828C45.4899 19.1641 45.8258 19.3047 46.2738 19.3047C46.7165 19.3047 47.0706 19.151 47.3363 18.8438C47.6019 18.5312 47.7347 18.1094 47.7347 17.5781V13H50.1956V21ZM59.3091 17.7031H54.0903C54.132 18.2812 54.3247 18.7109 54.6684 18.9922C55.0174 19.2734 55.4966 19.4141 56.1059 19.4141C56.3351 19.4141 56.6502 19.3464 57.0513 19.2109C57.4575 19.0703 57.8507 18.8516 58.2309 18.5547L59.3247 19.9531C58.7778 20.3854 58.2153 20.7005 57.6372 20.8984C57.0591 21.0964 56.421 21.1953 55.7231 21.1953C54.4315 21.1953 53.4289 20.8385 52.7153 20.125C52.0018 19.4062 51.645 18.4062 51.645 17.125C51.645 15.849 52.0226 14.8099 52.7778 14.0078C53.533 13.2057 54.4888 12.8047 55.645 12.8047C56.7544 12.8047 57.6424 13.1406 58.3091 13.8125C58.9757 14.4792 59.3091 15.4505 59.3091 16.7266V17.7031ZM57.02 16.1875C57.02 15.5677 56.9028 15.1276 56.6684 14.8672C56.4393 14.6016 56.0929 14.4688 55.6294 14.4688C55.2335 14.4688 54.8898 14.6224 54.5981 14.9297C54.3117 15.237 54.1372 15.6562 54.0747 16.1875H57.02ZM68.3444 21H65.8834V16.5547C65.8834 15.9349 65.7715 15.4714 65.5475 15.1641C65.3288 14.8516 64.998 14.6953 64.5553 14.6953C64.1282 14.6953 63.7767 14.8594 63.5006 15.1875C63.2246 15.5156 63.0866 15.9323 63.0866 16.4375V21H60.6178V13H63.0866V14.2656H63.1178C63.4147 13.776 63.7767 13.4115 64.2038 13.1719C64.6308 12.9271 65.1256 12.8047 65.6881 12.8047C66.5735 12.8047 67.2376 13.0807 67.6803 13.6328C68.123 14.1797 68.3444 15.0026 68.3444 16.1016V21ZM75.1453 20.875C74.8953 20.9792 74.6141 21.0573 74.3016 21.1094C73.9943 21.1667 73.6818 21.1953 73.3641 21.1953C72.4891 21.1953 71.8302 20.9844 71.3875 20.5625C70.9448 20.1406 70.7234 19.5104 70.7234 18.6719V14.8203H69.4266V13H70.7234V11.0625L73.1844 10.3594V13H74.9813V14.8203H73.1844V18.5156C73.1844 18.8229 73.2443 19.0469 73.3641 19.1875C73.4839 19.3229 73.6766 19.3906 73.9422 19.3906C74.0724 19.3906 74.1974 19.375 74.3172 19.3438C74.437 19.3073 74.5516 19.263 74.6609 19.2109L75.1453 20.875ZM89.8566 16.1484C89.8566 17.8307 89.4633 19.0938 88.6769 19.9375C87.8956 20.776 86.7211 21.1953 85.1534 21.1953C83.6326 21.1953 82.492 20.7865 81.7316 19.9688C80.9711 19.1458 80.5909 17.9036 80.5909 16.2422V9.79688H83.1222V16.2969C83.1222 17.2031 83.2993 17.8828 83.6534 18.3359C84.0076 18.7891 84.5389 19.0156 85.2472 19.0156C85.9451 19.0156 86.4659 18.7969 86.8097 18.3594C87.1586 17.9219 87.3331 17.2656 87.3331 16.3906V9.79688H89.8566V16.1484ZM94.6653 21H92.1419V9.79688H94.6653V21ZM110.423 21H107.572L106.08 18.2422C105.84 17.7943 105.598 17.4557 105.353 17.2266C105.114 16.9974 104.838 16.8672 104.525 16.8359H103.845V21H101.322V9.79688H105.322C106.681 9.79688 107.699 10.0625 108.377 10.5938C109.059 11.1198 109.4 11.9115 109.4 12.9688C109.4 13.7135 109.181 14.3568 108.744 14.8984C108.306 15.4349 107.707 15.8307 106.947 16.0859V16.1172C107.28 16.2214 107.59 16.4401 107.877 16.7734C108.168 17.1068 108.416 17.4531 108.619 17.8125L110.423 21ZM103.845 11.6875V14.9297H104.939C105.486 14.9297 105.923 14.7656 106.252 14.4375C106.58 14.1094 106.744 13.7031 106.744 13.2188C106.744 12.7083 106.598 12.3255 106.306 12.0703C106.015 11.8151 105.574 11.6875 104.986 11.6875H103.845ZM118.154 17.7031H112.935C112.977 18.2812 113.17 18.7109 113.513 18.9922C113.862 19.2734 114.342 19.4141 114.951 19.4141C115.18 19.4141 115.495 19.3464 115.896 19.2109C116.302 19.0703 116.696 18.8516 117.076 18.5547L118.17 19.9531C117.623 20.3854 117.06 20.7005 116.482 20.8984C115.904 21.0964 115.266 21.1953 114.568 21.1953C113.276 21.1953 112.274 20.8385 111.56 20.125C110.847 19.4062 110.49 18.4062 110.49 17.125C110.49 15.849 110.868 14.8099 111.623 14.0078C112.378 13.2057 113.334 12.8047 114.49 12.8047C115.599 12.8047 116.487 13.1406 117.154 13.8125C117.821 14.4792 118.154 15.4505 118.154 16.7266V17.7031ZM115.865 16.1875C115.865 15.5677 115.748 15.1276 115.513 14.8672C115.284 14.6016 114.938 14.4688 114.474 14.4688C114.079 14.4688 113.735 14.6224 113.443 14.9297C113.157 15.237 112.982 15.6562 112.92 16.1875H115.865ZM126.119 21H123.783V19.8516H123.752C123.486 20.2995 123.153 20.6354 122.752 20.8594C122.356 21.0833 121.906 21.1953 121.4 21.1953C120.708 21.1953 120.111 20.9844 119.611 20.5625C119.116 20.1354 118.869 19.5391 118.869 18.7734C118.869 18.0339 119.114 17.4297 119.603 16.9609C120.098 16.4922 120.869 16.1875 121.916 16.0469L123.799 15.7969V15.6406C123.799 15.2604 123.676 14.974 123.432 14.7812C123.187 14.5833 122.848 14.4844 122.416 14.4844C122.088 14.4844 121.721 14.5391 121.314 14.6484C120.913 14.7578 120.504 14.9323 120.088 15.1719L119.252 13.7109C119.799 13.3932 120.34 13.1641 120.877 13.0234C121.419 12.8776 122.007 12.8047 122.643 12.8047C123.835 12.8047 124.713 13.0885 125.275 13.6562C125.838 14.224 126.119 15.0781 126.119 16.2188V21ZM123.799 17.75V17.2109L122.346 17.3984C121.945 17.4505 121.643 17.5729 121.439 17.7656C121.241 17.9531 121.143 18.1927 121.143 18.4844C121.143 18.7656 121.239 18.9974 121.432 19.1797C121.629 19.3568 121.895 19.4453 122.228 19.4453C122.692 19.4453 123.07 19.2865 123.361 18.9688C123.653 18.6458 123.799 18.2396 123.799 17.75ZM134.342 20.5C133.92 20.7396 133.501 20.9141 133.084 21.0234C132.673 21.138 132.222 21.1953 131.732 21.1953C130.378 21.1953 129.324 20.8229 128.568 20.0781C127.813 19.3333 127.436 18.3724 127.436 17.1953C127.436 15.8359 127.837 14.7656 128.639 13.9844C129.446 13.1979 130.514 12.8047 131.842 12.8047C132.347 12.8047 132.787 12.8542 133.162 12.9531C133.537 13.0469 133.917 13.2005 134.303 13.4141L133.389 15.0703C133.149 14.9401 132.915 14.8464 132.686 14.7891C132.462 14.7266 132.214 14.6953 131.943 14.6953C131.318 14.6953 130.829 14.8984 130.475 15.3047C130.121 15.7109 129.943 16.2865 129.943 17.0312C129.943 17.7448 130.141 18.3021 130.537 18.7031C130.933 19.1042 131.412 19.3047 131.975 19.3047C132.126 19.3047 132.331 19.2708 132.592 19.2031C132.857 19.1302 133.126 19.0156 133.397 18.8594L134.342 20.5ZM140.44 20.875C140.19 20.9792 139.908 21.0573 139.596 21.1094C139.289 21.1667 138.976 21.1953 138.658 21.1953C137.783 21.1953 137.125 20.9844 136.682 20.5625C136.239 20.1406 136.018 19.5104 136.018 18.6719V14.8203H134.721V13H136.018V11.0625L138.479 10.3594V13H140.276V14.8203H138.479V18.5156C138.479 18.8229 138.539 19.0469 138.658 19.1875C138.778 19.3229 138.971 19.3906 139.237 19.3906C139.367 19.3906 139.492 19.375 139.612 19.3438C139.731 19.3073 139.846 19.263 139.955 19.2109L140.44 20.875ZM153.393 13L150.417 21H147.604L144.768 13H147.409L148.799 17.9297C148.878 18.2109 148.94 18.4714 148.987 18.7109C149.034 18.9453 149.062 19.1589 149.073 19.3516H149.104C149.12 19.1693 149.151 18.9635 149.198 18.7344C149.25 18.5052 149.315 18.2526 149.393 17.9766L150.815 13H153.393ZM161.686 14.8594C161.686 16.8646 161.301 18.4219 160.53 19.5312C159.764 20.6406 158.572 21.1953 156.952 21.1953C156.384 21.1953 155.863 21.112 155.389 20.9453C154.921 20.7786 154.465 20.5156 154.022 20.1562L155.21 18.6875C155.475 18.901 155.746 19.0573 156.022 19.1562C156.303 19.2552 156.645 19.3047 157.046 19.3047C157.816 19.3047 158.402 19.026 158.803 18.4688C159.21 17.9115 159.415 17.1068 159.421 16.0547L159.374 16.0391C159.134 16.362 158.829 16.6068 158.46 16.7734C158.095 16.9349 157.668 17.0156 157.178 17.0156C156.288 17.0156 155.553 16.6927 154.975 16.0469C154.397 15.3958 154.108 14.5677 154.108 13.5625C154.108 12.3802 154.46 11.4271 155.163 10.7031C155.866 9.97396 156.783 9.60938 157.913 9.60938C159.085 9.60938 160.007 10.0729 160.678 11C161.35 11.9219 161.686 13.2083 161.686 14.8594ZM159.327 13.5469C159.327 12.974 159.189 12.4896 158.913 12.0938C158.642 11.6927 158.285 11.4922 157.842 11.4922C157.421 11.4922 157.074 11.6719 156.803 12.0312C156.533 12.3854 156.397 12.8255 156.397 13.3516C156.397 13.9401 156.535 14.3932 156.811 14.7109C157.087 15.0234 157.449 15.1797 157.897 15.1797C158.335 15.1797 158.681 15.0208 158.936 14.7031C159.197 14.3854 159.327 14 159.327 13.5469Z" fill="#1B1A19"/>
</svg>
