<svg width="76" height="28" viewBox="0 0 76 28" fill="none" xmlns="http://www.w3.org/2000/svg">
<path d="M36.7578 9.85156H32.8047V12.6016H36.4375V14.6484H32.8047V19H30.2812V7.79688H36.7578V9.85156ZM40.6759 19H38.2072V7.15625H40.6759V19ZM50.1956 19H47.7347V17.7812H47.6956C47.0863 18.724 46.2711 19.1953 45.2503 19.1953C43.3961 19.1953 42.4691 18.0729 42.4691 15.8281V11H44.93V15.6094C44.93 16.7396 45.3779 17.3047 46.2738 17.3047C46.7165 17.3047 47.0706 17.151 47.3363 16.8438C47.6019 16.5312 47.7347 16.1094 47.7347 15.5781V11H50.1956V19ZM59.3091 15.7031H54.0903C54.1736 16.8646 54.9054 17.4453 56.2856 17.4453C57.1658 17.4453 57.9393 17.237 58.6059 16.8203V18.6016C57.8664 18.9974 56.9054 19.1953 55.7231 19.1953C54.4315 19.1953 53.4289 18.8385 52.7153 18.125C52.0018 17.4062 51.645 16.4062 51.645 15.125C51.645 13.7969 52.0304 12.7448 52.8013 11.9688C53.5721 11.1927 54.52 10.8047 55.645 10.8047C56.8117 10.8047 57.7127 11.151 58.3481 11.8438C58.9888 12.5365 59.3091 13.4766 59.3091 14.6641V15.7031ZM57.02 14.1875C57.02 13.0417 56.5565 12.4688 55.6294 12.4688C55.2335 12.4688 54.8898 12.6328 54.5981 12.9609C54.3117 13.2891 54.1372 13.6979 54.0747 14.1875H57.02ZM68.3444 19H65.8834V14.5547C65.8834 13.3151 65.4407 12.6953 64.5553 12.6953C64.1282 12.6953 63.7767 12.8594 63.5006 13.1875C63.2246 13.5156 63.0866 13.9323 63.0866 14.4375V19H60.6178V11H63.0866V12.2656H63.1178C63.7064 11.2917 64.5631 10.8047 65.6881 10.8047C67.459 10.8047 68.3444 11.9036 68.3444 14.1016V19ZM74.9813 18.9062C74.6167 19.099 74.0672 19.1953 73.3328 19.1953C71.5932 19.1953 70.7234 18.2917 70.7234 16.4844V12.8203H69.4266V11H70.7234V9.27344L73.1844 8.57031V11H74.9813V12.8203H73.1844V16.0547C73.1844 16.888 73.5151 17.3047 74.1766 17.3047C74.437 17.3047 74.7052 17.2292 74.9813 17.0781V18.9062Z" fill="#1B1A19"/>
<path fill-rule="evenodd" clip-rule="evenodd" d="M16.5 4.66667L8.25 0L0 4.66667V14V23.3333L8.25 28V18.6667L16.5 14L8.25 9.33333L16.5 4.66667Z" fill="#1B1A19"/>
</svg>
