<svg  width="291" height="240" viewBox="0 0 291 240" fill="none" xmlns="http://www.w3.org/2000/svg"><path fill-rule="evenodd" clip-rule="evenodd" d="M171.685 94.6483C171.685 80.4831 183.168 69 197.333 69V43c-28.524 0-51.648 23.1237-51.648 51.6483h26zm-52.037 0C119.648 80.4831 108.165 69 94 69V43c28.525 0 51.648 23.1237 51.648 51.6483h-26zm26.037 51.6667h26c0-14.165 11.483-25.648 25.648-25.648V94.6666c-28.524 0-51.648 23.1234-51.648 51.6484zm-.037 0h-26c0-14.165-11.483-25.648-25.648-25.648V94.6666c28.525 0 51.648 23.1234 51.648 51.6484zm.037 51.667h26c0-14.166 11.483-25.649 25.648-25.649v-26c-28.524 0-51.648 23.124-51.648 51.649zm-.037 0h-26c0-14.166-11.483-25.649-25.648-25.649v-26c28.525 0 51.648 23.124 51.648 51.649z" fill="#fff"/><path fill-rule="evenodd" clip-rule="evenodd" d="M171.685 94.6483C171.685 80.4831 183.168 69 197.333 69V43c-28.524 0-51.648 23.1237-51.648 51.6483h26zm-52.037 0C119.648 80.4831 108.165 69 94 69V43c28.525 0 51.648 23.1237 51.648 51.6483h-26zm26.037 51.6667h26c0-14.165 11.483-25.648 25.648-25.648V94.6666c-28.524 0-51.648 23.1234-51.648 51.6484zm-.037 0h-26c0-14.165-11.483-25.648-25.648-25.648V94.6666c28.525 0 51.648 23.1234 51.648 51.6484zm.037 51.667h26c0-14.166 11.483-25.649 25.648-25.649v-26c-28.524 0-51.648 23.124-51.648 51.649zm-.037 0h-26c0-14.166-11.483-25.649-25.648-25.649v-26c28.525 0 51.648 23.124 51.648 51.649z" fill="url(#paint0_radial_254_2538)"/><path fill-rule="evenodd" clip-rule="evenodd" d="M171.685 94.6483C171.685 80.4831 183.168 69 197.333 69V43c-28.524 0-51.648 23.1237-51.648 51.6483h26zm-52.037 0C119.648 80.4831 108.165 69 94 69V43c28.525 0 51.648 23.1237 51.648 51.6483h-26zm26.037 51.6667h26c0-14.165 11.483-25.648 25.648-25.648V94.6666c-28.524 0-51.648 23.1234-51.648 51.6484zm-.037 0h-26c0-14.165-11.483-25.648-25.648-25.648V94.6666c28.525 0 51.648 23.1234 51.648 51.6484zm.037 51.667h26c0-14.166 11.483-25.649 25.648-25.649v-26c-28.524 0-51.648 23.124-51.648 51.649zm-.037 0h-26c0-14.166-11.483-25.649-25.648-25.649v-26c28.525 0 51.648 23.124 51.648 51.649z" fill="url(#paint1_radial_254_2538)"/><defs><radialGradient id="paint0_radial_254_2538" cx="0" cy="0" r="1" gradientUnits="userSpaceOnUse" gradientTransform="matrix(0 -306.5 306.536 0 145.333 281.982)"><stop stop-color="#F1B8C0"/><stop offset="1" stop-color="#4B5DFF"/></radialGradient><radialGradient id="paint1_radial_254_2538" cx="0" cy="0" r="1" gradientUnits="userSpaceOnUse" gradientTransform="matrix(0 -306.5 306.536 0 145.333 281.982)"><stop stop-color="#F1B8C0"/><stop offset="1" stop-color="#939DFF"/></radialGradient></defs></svg>
