<svg width="291" height="240" viewBox="0 0 291 240" fill="none" xmlns="http://www.w3.org/2000/svg"><path fill-rule="evenodd" clip-rule="evenodd" d="M96.6266 61.9537C91.4073 54.6071 88.7075 45.8167 88.7075 36h16.0005c0 5.5079 1.198 10.3498 3.589 14.5366l.126-.0868c12.429-8.5329 29.827-12.695 50.667-12.695 12.809 0 23.206 1.6971 30.709 5.2591 7.739 3.6741 13.42 9.99 13.42 18.7581 0 3.789-.996 7.5623-3.298 10.9564-2.264 3.3369-5.488 5.8678-9.283 7.7453-7.375 3.6487-17.885 5.3155-31.548 5.3155-21.059 0-38.394-4.1065-50.735-12.4958-2.42 4.2421-3.647 9.1487-3.647 14.7324 0 5.5079 1.198 10.3498 3.589 14.5362l.126-.086c12.429-8.5333 29.827-12.6954 50.667-12.6954 12.809 0 23.206 1.6971 30.709 5.2591 7.739 3.6741 13.42 9.9903 13.42 18.7583 0 3.789-.996 7.562-3.298 10.956-2.264 3.337-5.488 5.868-9.283 7.745-7.375 3.649-17.885 5.316-31.548 5.316-21.059 0-38.394-4.106-50.735-12.496-2.42 4.242-3.647 9.149-3.647 14.733 0 5.508 1.198 10.349 3.589 14.536l.126-.087c12.429-8.532 29.827-12.695 50.667-12.695 12.809 0 23.206 1.697 30.709 5.26 7.739 3.674 13.42 9.99 13.42 18.758 0 3.789-.996 7.562-3.298 10.956-2.264 3.337-5.488 5.868-9.283 7.745-7.375 3.649-17.885 5.316-31.548 5.316-21.059 0-38.394-4.107-50.735-12.496-2.42 4.242-3.647 9.149-3.647 14.732V204H88.7075v-11.923c0-9.89 2.7279-18.707 7.9191-26.072-5.2193-7.346-7.9191-16.137-7.9191-25.953 0-9.891 2.7279-18.708 7.9191-26.072-5.2193-7.347-7.9191-16.1375-7.9191-25.9542 0-9.8907 2.7279-18.7072 7.9191-26.0721zm23.6744-.0768c8.737 4.8668 21.541 7.9123 38.789 7.9123 12.833 0 20.387-1.6449 24.453-3.6564 1.925-.9527 2.765-1.839 3.136-2.3859.333-.4898.54-1.067.54-1.9749 0-.6254-.099-2.3181-4.282-4.3042-4.42-2.0982-12.088-3.713-23.847-3.713-17.098 0-29.971 3.1078-38.789 8.1221zm0 52.0261c8.737 4.866 21.541 7.912 38.789 7.912 12.833 0 20.387-1.645 24.453-3.656 1.925-.953 2.765-1.839 3.136-2.386.333-.49.54-1.067.54-1.975 0-.626-.099-2.318-4.282-4.304-4.42-2.099-12.088-3.713-23.847-3.713-17.098 0-29.971 3.107-38.789 8.122zm38.789 59.938c-17.248 0-30.052-3.046-38.789-7.912 8.818-5.015 21.691-8.123 38.789-8.123 11.759 0 19.427 1.615 23.847 3.713 4.183 1.987 4.282 3.679 4.282 4.305 0 .907-.207 1.485-.54 1.974-.371.547-1.211 1.434-3.136 2.386-4.066 2.012-11.62 3.657-24.453 3.657z" fill="#BCA9E5"/><path fill-rule="evenodd" clip-rule="evenodd" d="M96.6266 61.9537C91.4073 54.6071 88.7075 45.8167 88.7075 36h16.0005c0 5.5079 1.198 10.3498 3.589 14.5366l.126-.0868c12.429-8.5329 29.827-12.695 50.667-12.695 12.809 0 23.206 1.6971 30.709 5.2591 7.739 3.6741 13.42 9.99 13.42 18.7581 0 3.789-.996 7.5623-3.298 10.9564-2.264 3.3369-5.488 5.8678-9.283 7.7453-7.375 3.6487-17.885 5.3155-31.548 5.3155-21.059 0-38.394-4.1065-50.735-12.4958-2.42 4.2421-3.647 9.1487-3.647 14.7324 0 5.5079 1.198 10.3498 3.589 14.5362l.126-.086c12.429-8.5333 29.827-12.6954 50.667-12.6954 12.809 0 23.206 1.6971 30.709 5.2591 7.739 3.6741 13.42 9.9903 13.42 18.7583 0 3.789-.996 7.562-3.298 10.956-2.264 3.337-5.488 5.868-9.283 7.745-7.375 3.649-17.885 5.316-31.548 5.316-21.059 0-38.394-4.106-50.735-12.496-2.42 4.242-3.647 9.149-3.647 14.733 0 5.508 1.198 10.349 3.589 14.536l.126-.087c12.429-8.532 29.827-12.695 50.667-12.695 12.809 0 23.206 1.697 30.709 5.26 7.739 3.674 13.42 9.99 13.42 18.758 0 3.789-.996 7.562-3.298 10.956-2.264 3.337-5.488 5.868-9.283 7.745-7.375 3.649-17.885 5.316-31.548 5.316-21.059 0-38.394-4.107-50.735-12.496-2.42 4.242-3.647 9.149-3.647 14.732V204H88.7075v-11.923c0-9.89 2.7279-18.707 7.9191-26.072-5.2193-7.346-7.9191-16.137-7.9191-25.953 0-9.891 2.7279-18.708 7.9191-26.072-5.2193-7.347-7.9191-16.1375-7.9191-25.9542 0-9.8907 2.7279-18.7072 7.9191-26.0721zm23.6744-.0768c8.737 4.8668 21.541 7.9123 38.789 7.9123 12.833 0 20.387-1.6449 24.453-3.6564 1.925-.9527 2.765-1.839 3.136-2.3859.333-.4898.54-1.067.54-1.9749 0-.6254-.099-2.3181-4.282-4.3042-4.42-2.0982-12.088-3.713-23.847-3.713-17.098 0-29.971 3.1078-38.789 8.1221zm0 52.0261c8.737 4.866 21.541 7.912 38.789 7.912 12.833 0 20.387-1.645 24.453-3.656 1.925-.953 2.765-1.839 3.136-2.386.333-.49.54-1.067.54-1.975 0-.626-.099-2.318-4.282-4.304-4.42-2.099-12.088-3.713-23.847-3.713-17.098 0-29.971 3.107-38.789 8.122zm38.789 59.938c-17.248 0-30.052-3.046-38.789-7.912 8.818-5.015 21.691-8.123 38.789-8.123 11.759 0 19.427 1.615 23.847 3.713 4.183 1.987 4.282 3.679 4.282 4.305 0 .907-.207 1.485-.54 1.974-.371.547-1.211 1.434-3.136 2.386-4.066 2.012-11.62 3.657-24.453 3.657z" fill="url(#paint0_radial_254_2616)"/><defs><radialGradient id="paint0_radial_254_2616" cx="0" cy="0" r="1" gradientUnits="userSpaceOnUse" gradientTransform="matrix(0 -282.131 245.876 0 140.788 293.522)"><stop stop-color="#F1B8C0"/><stop offset="1" stop-color="#939DFF"/></radialGradient></defs></svg>