<svg width="291" height="240" viewBox="0 0 291 240" fill="none" xmlns="http://www.w3.org/2000/svg"><path fill-rule="evenodd" clip-rule="evenodd" d="M154 78.5c26.786 0 48.5-21.7142 48.5-48.5 0 26.7858 21.714 48.5 48.5 48.5-26.786 0-48.5 21.714-48.5 48.5 0-26.786-21.714-48.5-48.5-48.5zM144 171c20.987 0 38-17.013 38-38 0 20.987 17.013 38 38 38-20.987 0-38 17.013-38 38 0-20.987-17.013-38-38-38zM110 46c0 38.1076-30.8924 69-69 69 38.1076 0 69 30.892 69 69 0-38.108 30.892-69 69-69-38.108 0-69-30.8924-69-69z" fill="#BCA9E5"/><path fill-rule="evenodd" clip-rule="evenodd" d="M154 78.5c26.786 0 48.5-21.7142 48.5-48.5 0 26.7858 21.714 48.5 48.5 48.5-26.786 0-48.5 21.714-48.5 48.5 0-26.786-21.714-48.5-48.5-48.5zM144 171c20.987 0 38-17.013 38-38 0 20.987 17.013 38 38 38-20.987 0-38 17.013-38 38 0-20.987-17.013-38-38-38zM110 46c0 38.1076-30.8924 69-69 69 38.1076 0 69 30.892 69 69 0-38.108 30.892-69 69-69-38.108 0-69-30.8924-69-69z" fill="url(#paint0_radial_254_2561)"/><defs><radialGradient id="paint0_radial_254_2561" cx="0" cy="0" r="1" gradientUnits="userSpaceOnUse" gradientTransform="matrix(0 -300.604 450.905 0 136.51 304.384)"><stop stop-color="#F1B8C0"/><stop offset="1" stop-color="#939DFF"/></radialGradient></defs></svg>