<svg width="150" height="160" viewBox="0 0 150 160" fill="none" xmlns="http://www.w3.org/2000/svg">
<path d="M145.369 160L23.84 89.4623V2.67578L145.369 73.2138V160Z" fill="white"/>
<path d="M149.999 157.311L145.369 159.997V73.2109L149.999 70.5234V157.311Z" fill="#D3D3D3"/>
<path d="M145.369 73.2086L23.8404 2.67057L28.4413 0L149.97 70.538L145.369 73.2086Z" fill="#EFEFEC"/>
<path opacity="0.1" d="M149.999 88.7175L145.369 91.4049V90.0703L149.999 87.3828V88.7175Z" fill="#010101"/>
<path opacity="0.1" d="M145.369 91.4059L23.84 20.8678V19.5332L145.369 90.0712V91.4059Z" fill="#010101"/>
<path d="M4.76837e-05 65.2343L4.94938 64L32.2396 67.9941L27.2915 69.2284L4.76837e-05 65.2343Z" fill="#69ADDF"/>
<path d="M27.2915 69.2245L32.2396 67.9902L46.2667 94.591L41.3174 95.8254L27.2915 69.2245Z" fill="#015BA1"/>
<path d="M41.3169 95.8336L46.2662 94.5993L75.3623 87.5742L70.4129 88.8074L41.3169 95.8336Z" fill="#67308F"/>
<path d="M70.4138 88.8074L75.3632 87.5742L101.734 96.3406L96.7857 97.5749L70.4138 88.8074Z" fill="#69ADDF"/>
<path d="M96.7849 97.5722L101.733 96.3379L110.369 140.689L105.421 141.924L96.7849 97.5722Z" fill="#015BA1"/>
<path d="M135.051 128.305L140 127.07L106.225 155.765L101.276 156.999L135.051 128.305Z" fill="#015BA1"/>
<path d="M130.584 120.542L135.532 119.309L140 127.067L135.051 128.301L130.584 120.542Z" fill="#69ADDF"/>
<path d="M130.584 120.544L135.051 128.303L101.276 156.998L91.0982 104.726L71.1119 98.0881L38.6419 105.923L23.7547 77.6895L0.153256 74.2424L0 65.2344L27.2914 69.2285L41.3173 95.8293L70.4134 88.803L96.7853 97.5705L105.421 141.922L130.584 120.544Z" fill="#0078D4"/>
</svg>
