<svg width="194" height="139" viewBox="0 0 194 139" fill="none" xmlns="http://www.w3.org/2000/svg">
<path d="M121.687 132.73L0 62.4463L72.313 20.6797L194 90.9634L121.687 132.73Z" fill="white"/>
<path opacity="0.1" d="M178.562 99.766L56.8756 29.4022L57.4432 29.0742L179.13 99.4393L178.562 99.766Z" fill="black"/>
<path d="M121.687 138.002L0 67.7176V62.3223L121.687 132.606V138.002Z" fill="#EFEFEB"/>
<path d="M194 90.8418L121.687 132.608V138.003L194 96.2324V90.8418Z" fill="#D2D2D2"/>
<path opacity="0.1" d="M178.562 99.7627V105.151L179.13 104.815V99.4238L178.562 99.7627Z" fill="black"/>
<path d="M141.19 82.3991L91.676 54.4056V24.2656L141.19 52.2592V82.3991Z" fill="#662D91"/>
<path d="M147 79.0482L141.19 82.3995V52.2596L147 48.9082V79.0482Z" fill="#4D226D"/>
<path d="M141.189 52.2536L91.6755 24.2601L97.4492 20.9297L146.963 48.9228L141.189 52.2536Z" fill="#A381BD"/>
<path d="M127.631 90.1261L78.1171 62.133V3.33594L127.631 31.3295V90.1261Z" fill="#46549E"/>
<path d="M133.44 86.7752L127.631 90.1265V31.3299L133.44 27.9785V86.7752Z" fill="#353F77"/>
<path d="M127.631 31.3239L78.1173 3.33041L83.891 0L133.405 27.9935L127.631 31.3239Z" fill="#9098C5"/>
<path d="M114.072 96.4541L64.5579 68.4606V34.9902L114.072 62.9838V96.4541Z" fill="#0078D7"/>
<path d="M119.881 93.1032L114.072 96.4545V62.9842L119.881 59.6328V93.1032Z" fill="#005AA1"/>
<path d="M114.072 62.9782L64.5576 34.9847L70.3313 31.6543L119.845 59.6475L114.072 62.9782Z" fill="#66AEE7"/>
<path d="M100.514 103.001L51 75.0072V57.7422L100.514 85.7357V103.001Z" fill="#13A89E"/>
<path d="M106.324 99.6459L100.514 102.997V85.7322L106.324 82.3809V99.6459Z" fill="#0E7E77"/>
<path d="M100.514 85.7302L51 57.7367L56.7737 54.4062L106.287 82.3998L100.514 85.7302Z" fill="#71CBC5"/>
</svg>
