<svg width="20" height="20" viewBox="0 0 20 20" fill="none" xmlns="http://www.w3.org/2000/svg">
  <path d="M18.0007 7H15.5007C14.6737 7 14.0007 6.327 14.0007 5.5V2H6.00073V18H18.0007V7Z" fill="white" />
  <path d="M18.0007 6V5.707L15.0007 2.707V5.5C15.0007 5.775 15.2257 6 15.5007 6H18.0007Z" fill="white" />
  <path opacity="0.64" fill-rule="evenodd" clip-rule="evenodd"
    d="M18.7077 5L15.0007 1.293C14.8132 1.10545 14.5589 1.00006 14.2937 1H6.00073C5.44845 1 5.00073 1.44772 5.00073 2V18C5.00073 18.5523 5.44845 19 6.00073 19H18.0007C18.553 19 19.0007 18.5523 19.0007 18V5.707C19.0007 5.4418 18.8953 5.18749 18.7077 5ZM18.0007 5.707V6H15.5007C15.2248 5.99945 15.0013 5.77591 15.0007 5.5V2.707L18.0007 5.707ZM6.00073 2.2V17.8C6.00073 17.9105 6.09028 18 6.20073 18H17.8007C17.9112 18 18.0007 17.9105 18.0007 17.8V7H15.5007C14.6723 7 14.0007 6.32843 14.0007 5.5V2H6.20073C6.09073 2 6.00073 2.09 6.00073 2.2Z"
    fill="#605E5C" />
  <path fill-rule="evenodd" clip-rule="evenodd"
    d="M12.5007 12H13.5007C13.7757 12 14.0007 12.225 14.0007 12.5C14.0007 12.775 13.7757 13 13.5007 13H12.5007C12.2257 13 12.0007 12.775 12.0007 12.5C12.0007 12.225 12.2257 12 12.5007 12ZM15.5007 12H16.5007C16.7757 12 17.0007 12.225 17.0007 12.5C17.0007 12.775 16.7757 13 16.5007 13H15.5007C15.2257 13 15.0007 12.775 15.0007 12.5C15.0007 12.225 15.2257 12 15.5007 12Z"
    fill="#134A2C" />
  <path fill-rule="evenodd" clip-rule="evenodd"
    d="M12.5007 10H13.5007C13.7757 10 14.0007 10.225 14.0007 10.5C14.0007 10.775 13.7757 11 13.5007 11H12.5007C12.2257 11 12.0007 10.775 12.0007 10.5C12.0007 10.225 12.2257 10 12.5007 10ZM15.5007 10H16.5007C16.7757 10 17.0007 10.225 17.0007 10.5C17.0007 10.775 16.7757 11 16.5007 11H15.5007C15.2257 11 15.0007 10.775 15.0007 10.5C15.0007 10.225 15.2257 10 15.5007 10Z"
    fill="#21A366" />
  <path
    d="M16.5007 8H15.5007C15.2257 8 15.0007 8.225 15.0007 8.5C15.0007 8.775 15.2257 9 15.5007 9H16.5007C16.7757 9 17.0007 8.775 17.0007 8.5C17.0007 8.225 16.7757 8 16.5007 8Z"
    fill="#33C481" />
  <path
    d="M13.5007 8H12.5007C12.2257 8 12.0007 8.225 12.0007 8.5C12.0007 8.775 12.2257 9 12.5007 9H13.5007C13.7757 9 14.0007 8.775 14.0007 8.5C14.0007 8.225 13.7757 8 13.5007 8Z"
    fill="#21A366" />
  <path
    d="M2.00073 16H10.0007C10.553 16 11.0007 15.5523 11.0007 15V7C11.0007 6.44772 10.553 6 10.0007 6H2.00073C1.44845 6 1.00073 6.44772 1.00073 7V15C1.00073 15.5523 1.44845 16 2.00073 16Z"
    fill="#107C41" />
  <path d="M4.60674 14L8.31374 8H7.15074L3.39574 14H4.60674Z" fill="white" />
  <path d="M7.37374 14L3.66774 8H4.82974L8.58374 14H7.37374Z" fill="white" />
</svg>
