<svg width="23" height="23" viewBox="0 0 23 23" fill="none" xmlns="http://www.w3.org/2000/svg">
<path d="M7.11584 21.1495H21.1158C21.3908 21.1495 21.6158 20.9245 21.6158 20.6495V6.14954H18.1158C17.2888 6.14954 16.6158 5.47654 16.6158 4.64954V1.14954H7.11584C6.84084 1.14954 6.61584 1.37454 6.61584 1.64954V20.6495C6.61584 20.9245 6.84084 21.1495 7.11584 21.1495Z" fill="white"/>
<path opacity="0.64" fill-rule="evenodd" clip-rule="evenodd" d="M22.1758 5.00354L17.7618 0.588536C17.48 0.308441 17.0992 0.150709 16.7018 0.149536H7.11584C6.28884 0.149536 5.61584 0.822536 5.61584 1.64954V20.6495C5.61584 21.4765 6.28884 22.1495 7.11584 22.1495H21.1158C21.9428 22.1495 22.6158 21.4765 22.6158 20.6495V6.06354C22.6158 5.66354 22.4598 5.28654 22.1758 5.00354ZM17.6158 1.85654L20.9088 5.14954H18.1158C17.8399 5.14899 17.6164 4.92545 17.6158 4.64954V1.85654ZM7.11584 21.1495H21.1158C21.3908 21.1495 21.6158 20.9245 21.6158 20.6495V6.14954H18.1158C17.2888 6.14954 16.6158 5.47654 16.6158 4.64954V1.14954H7.11584C6.84084 1.14954 6.61584 1.37454 6.61584 1.64954V20.6495C6.61639 20.9254 6.83993 21.149 7.11584 21.1495Z" fill="#605E5C"/>
<path d="M19.5658 11.1495H16.6158L15.6158 10.1495H14.6158L13.6158 11.1495V14.0945C14.2725 14.7694 15.1742 15.1499 16.1158 15.1495C18.0488 15.1495 19.6158 13.5825 19.6158 11.6495C19.6158 11.4785 19.5888 11.3145 19.5658 11.1495Z" fill="#ED6C47"/>
<path d="M16.1158 8.14954C15.1268 8.14954 14.2488 8.56954 13.6158 9.22954V11.1495H16.6158V8.19954C16.4508 8.17654 16.2868 8.14954 16.1158 8.14954Z" fill="#FF8F6B"/>
<path d="M17.6658 10.0995H20.6158C20.3959 8.5706 19.1948 7.36943 17.6658 7.14954V10.0995Z" fill="#FFC7B5"/>
<path d="M1.61584 18.1495H11.6158C12.1681 18.1495 12.6158 17.7018 12.6158 17.1495V7.14954C12.6158 6.59725 12.1681 6.14954 11.6158 6.14954H1.61584C1.06356 6.14954 0.615845 6.59725 0.615845 7.14954V17.1495C0.615845 17.7018 1.06356 18.1495 1.61584 18.1495Z" fill="#C43E1C"/>
<path fill-rule="evenodd" clip-rule="evenodd" d="M8.36284 9.62954C7.98784 9.30954 7.68784 9.14954 6.97784 9.14954H4.61584V15.1495H5.61584V13.1495H6.90384C7.75984 13.1545 8.18584 12.8565 8.51384 12.4445C8.92384 11.9295 8.92884 11.4145 8.92884 11.0245C8.92884 10.4155 8.74084 9.95154 8.36284 9.62954ZM6.77084 12.1495H5.61584V10.1495H6.80884C7.56984 10.1495 7.95084 10.4745 7.95084 11.1245C7.95084 11.4605 7.85084 11.7145 7.65284 11.8875C7.45384 12.0625 7.16084 12.1495 6.77084 12.1495Z" fill="#F9F7F7"/>
</svg>
