<svg width="22" height="23" viewBox="0 0 22 23" fill="none" xmlns="http://www.w3.org/2000/svg">
<path d="M6.5 21.5049H20.5C20.775 21.5049 21 21.2799 21 21.0049V6.50488H17.5C16.673 6.50488 16 5.83188 16 5.00488V1.50488H6.5C6.225 1.50488 6 1.72988 6 2.00488V21.0049C6 21.2799 6.225 21.5049 6.5 21.5049Z" fill="white"/>
<path opacity="0.64" fill-rule="evenodd" clip-rule="evenodd" d="M21.56 5.35888L17.146 0.943883C16.8642 0.663788 16.4833 0.506056 16.086 0.504883H6.5C5.673 0.504883 5 1.17788 5 2.00488V21.0049C5 21.8319 5.673 22.5049 6.5 22.5049H20.5C21.327 22.5049 22 21.8319 22 21.0049V6.41888C22 6.01888 21.844 5.64188 21.56 5.35888ZM17 2.21167L20.293 5.50467H17.5C17.2241 5.50412 17.0006 5.28059 17 5.00467V2.21167ZM6.49999 21.5048H20.5C20.775 21.5048 21 21.2798 21 21.0048V6.50476H17.5C16.673 6.50476 16 5.83176 16 5.00476V1.50476H6.49999C6.22499 1.50476 5.99999 1.72976 5.99999 2.00476V21.0048C6.00054 21.2807 6.22407 21.5042 6.49999 21.5048Z" fill="#605E5C"/>
<path d="M18.5 13.5049H13V14.5049H18.5C18.7761 14.5049 19 14.281 19 14.0049C19 13.7287 18.7761 13.5049 18.5 13.5049Z" fill="#185ABD"/>
<path d="M18.5 11.5049H13V12.5049H18.5C18.7761 12.5049 19 12.281 19 12.0049C19 11.7287 18.7761 11.5049 18.5 11.5049Z" fill="#2B7CD3"/>
<path d="M18.5 9.50488H13V10.5049H18.5C18.7761 10.5049 19 10.281 19 10.0049C19 9.72874 18.7761 9.50488 18.5 9.50488Z" fill="#41A5EE"/>
<path d="M0.999878 18.5049H10.9999C11.5522 18.5049 11.9999 18.0572 11.9999 17.5049V7.50488C11.9999 6.9526 11.5522 6.50488 10.9999 6.50488H0.999878C0.447593 6.50488 -0.00012207 6.9526 -0.00012207 7.50488V17.5049C-0.00012207 18.0572 0.447593 18.5049 0.999878 18.5049Z" fill="#185ABD"/>
<path d="M10 9.50488L8.493 15.5049H7.083C7.083 15.5049 6.062 11.2519 6.051 11.0049L4.968 15.5049H3.498L2 9.50488H3.386L4.295 14.2189L5.452 9.50488H6.792L7.842 14.2189C7.858 14.2189 8.722 9.50488 8.722 9.50488H10Z" fill="white"/>
</svg>
